<svg width="238" height="367" viewBox="0 0 238 367" fill="none" xmlns="http://www.w3.org/2000/svg">
<g clip-path="url(#clip0_72_5543)">
<path opacity="0.2" d="M370.909 297.982L359.959 329.296C338.152 342.533 316.71 352.119 295.815 358.053C274.92 363.987 252.108 367 227.472 367C198.548 367 171.631 362.618 146.812 353.854C121.994 345.09 100.278 332.582 81.6638 316.332C63.05 300.082 47.9035 281.915 36.133 261.739C24.3625 241.563 15.4204 219.653 9.21577 196.008C3.01115 172.363 0 146.436 0 118.135C0 46.6523 20.8039 -12.597 62.3201 -59.5217C103.836 -106.446 160.59 -130 232.4 -130C249.371 -130 265.156 -128.813 279.573 -126.44C294.081 -124.066 311.691 -119.593 332.495 -113.019C353.298 -106.446 366.073 -102.521 370.726 -101.425C366.62 -89.1007 363.518 -76.9587 361.51 -65.0906C358.499 -46.0103 356.492 -23.9173 355.397 1.18831H337.787L337.513 -38.5243C335.688 -60.5259 325.56 -76.8674 307.129 -87.64C288.698 -98.4126 261.78 -103.799 226.377 -103.799C199.825 -103.342 177.379 -99.2342 158.857 -91.5656C140.334 -83.8057 124.092 -71.5724 110.041 -54.9571C95.8978 -38.2504 84.4012 -17.0703 75.4593 8.58304C66.5173 34.2364 61.9551 66.4629 61.7726 105.262C61.7726 173.185 79.0178 227.778 113.599 269.134C148.181 310.49 193.803 331.213 250.557 331.213C276.106 331.213 299.829 326.922 321.728 318.432C336.692 312.589 351.474 303.46 366.255 290.862L371 297.891L370.909 297.982Z" fill="#BEC8D4"/>
</g>
<defs>
<clipPath id="clip0_72_5543">
<rect width="238" height="367" fill="white"/>
</clipPath>
</defs>
</svg>
