<svg width="371" height="497" viewBox="0 0 371 497" fill="none" xmlns="http://www.w3.org/2000/svg">
<path opacity="0.2" d="M0.0913596 69.0176L11.0408 37.7041C32.8482 24.4666 54.2904 14.8807 75.1853 8.94668C96.0803 3.01263 118.892 -7.59804e-06 143.528 -5.4443e-06C172.452 -2.91564e-06 199.369 4.38209 224.188 13.1462C249.006 21.9104 270.722 34.4176 289.336 50.6677C307.95 66.9179 323.097 85.0852 334.867 105.261C346.638 125.437 355.58 147.347 361.784 170.992C367.989 194.637 371 220.564 371 248.865C371 320.348 350.196 379.597 308.68 426.522C267.164 473.446 210.41 497 138.6 497C121.629 497 105.844 495.813 91.427 493.44C76.9192 491.066 59.3091 486.593 38.5054 480.019C17.7017 473.446 4.92746 469.521 0.273992 468.425C4.37999 456.101 7.48239 443.959 9.48977 432.091C12.5008 413.01 14.5081 390.917 15.603 365.812L33.2131 365.812L33.4871 405.524C35.312 427.526 45.4397 443.867 63.8711 454.64C82.3024 465.413 109.22 470.799 144.623 470.799C171.175 470.342 193.621 466.234 212.143 458.566C230.666 450.806 246.908 438.572 260.959 421.957C275.102 405.25 286.599 384.07 295.541 358.417C304.483 332.764 309.045 300.537 309.227 261.738C309.227 193.815 291.982 139.222 257.401 97.8663C222.819 56.5105 177.197 35.7869 120.443 35.7869C94.8943 35.7869 71.1709 40.0776 49.2722 48.5679C34.3081 54.4106 19.5265 63.54 4.74491 76.1385L2.60588e-05 69.1088L0.0913596 69.0176Z" fill="#BEC8D4"/>
</svg>
