<svg width="367" height="337" viewBox="0 0 367 337" fill="none" xmlns="http://www.w3.org/2000/svg">
<g clip-path="url(#clip0_72_5542)">
<path opacity="0.2" d="M-79.9086 70.0176L-68.9592 38.7041C-47.1518 25.4666 -25.7096 15.8807 -4.81468 9.94668C16.0803 4.01263 38.8919 0.999992 63.5278 0.999995C92.4523 0.999997 119.369 5.38209 144.188 14.1462C169.006 22.9104 190.722 35.4176 209.336 51.6677C227.95 67.9179 243.097 86.0852 254.867 106.261C266.638 126.437 275.58 148.347 281.784 171.992C287.989 195.637 291 221.564 291 249.865C291 321.348 270.196 380.597 228.68 427.522C187.164 474.446 130.41 498 58.6002 498C41.6288 498 25.8437 496.813 11.427 494.44C-3.08081 492.066 -20.6909 487.593 -41.4946 481.019C-62.2983 474.446 -75.0725 470.521 -79.726 469.425C-75.62 457.101 -72.5176 444.959 -70.5102 433.091C-67.4992 414.01 -65.4919 391.917 -64.397 366.812L-46.7869 366.812L-46.5129 406.524C-44.688 428.526 -34.5603 444.867 -16.1289 455.64C2.30243 466.413 29.2199 471.799 64.6227 471.799C91.1748 471.342 113.621 467.234 132.143 459.566C150.666 451.806 166.908 439.572 180.959 422.957C195.102 406.25 206.599 385.07 215.541 359.417C224.483 333.764 229.045 301.537 229.227 262.738C229.227 194.815 211.982 140.222 177.401 98.8663C142.819 57.5105 97.1967 36.7869 40.4427 36.7869C14.8943 36.7869 -8.82912 41.0776 -30.7278 49.5679C-45.6919 55.4106 -60.4735 64.54 -75.2551 77.1385L-80 70.1088L-79.9086 70.0176Z" fill="#BEC8D4"/>
</g>
<defs>
<clipPath id="clip0_72_5542">
<rect width="367" height="337" fill="white"/>
</clipPath>
</defs>
</svg>
