<svg width="25" height="24" viewBox="0 0 25 24" fill="none" xmlns="http://www.w3.org/2000/svg">
<path d="M12.9521 4.08723C12.9513 3.71959 12.9001 3.3538 12.8 3C17.7683 3.00545 21.7944 7.03979 21.7999 12C21.816 16.9625 17.7705 20.9835 12.8 20.9997C7.82945 21.0158 3.81614 16.963 3.79999 12.0005C4.91167 12.2363 6.07037 11.9981 6.94989 11.2795C7.85619 10.5452 8.37889 9.43935 8.37019 8.27407C8.36957 8.01195 8.34608 7.75072 8.29999 7.49268C9.31783 7.89624 10.4704 7.76409 11.3708 7.14162C12.3696 6.44537 12.961 5.3034 12.9521 4.08723Z" stroke="white" stroke-width="2" stroke-linecap="round" stroke-linejoin="round"/>
<path d="M3.80194 7.002V7H3.79999V7.00195L3.80194 7.002Z" stroke="white" stroke-width="2" stroke-linecap="round" stroke-linejoin="round"/>
<path d="M8.80194 3.002V3H8.79999V3.00195L8.80194 3.002Z" stroke="white" stroke-width="2" stroke-linecap="round" stroke-linejoin="round"/>
<path d="M4.80194 3.002V3H4.79999V3.00195L4.80194 3.002Z" stroke="white" stroke-width="2" stroke-linecap="round" stroke-linejoin="round"/>
<path d="M10.8019 17.002V17H10.8V17.002L10.8019 17.002Z" stroke="white" stroke-width="2" stroke-linecap="round" stroke-linejoin="round"/>
<path d="M15.8019 15.002V15H15.8V15.002L15.8019 15.002Z" stroke="white" stroke-width="2" stroke-linecap="round" stroke-linejoin="round"/>
<path d="M11.8019 12.002V12H11.8V12.002L11.8019 12.002Z" stroke="white" stroke-width="2" stroke-linecap="round" stroke-linejoin="round"/>
<path d="M16.8019 10.002V10H16.8V10.002L16.8019 10.002Z" stroke="white" stroke-width="2" stroke-linecap="round" stroke-linejoin="round"/>
<path d="M3.80194 7.002V7H3.79999V7.00195L3.80194 7.002Z" stroke="white" stroke-width="2" stroke-linecap="round" stroke-linejoin="round"/>
<path d="M8.80194 3.002V3H8.79999V3.00195L8.80194 3.002Z" stroke="white" stroke-width="2" stroke-linecap="round" stroke-linejoin="round"/>
<path d="M4.80194 3.002V3H4.79999V3.00195L4.80194 3.002Z" stroke="white" stroke-width="2" stroke-linecap="round" stroke-linejoin="round"/>
</svg>
