<svg width="28" height="28" viewBox="0 0 28 28" fill="none" xmlns="http://www.w3.org/2000/svg">
<circle cx="14" cy="14" r="14" fill="#37394E"/>
<path d="M9 10.2778C9 9.90741 9.12387 9.60185 9.37162 9.36111C9.61937 9.12037 9.94144 9 10.3378 9C10.7272 9 11.0421 9.11852 11.2828 9.35556C11.5306 9.6 11.6544 9.91852 11.6544 10.3111C11.6544 10.6667 11.5341 10.963 11.2934 11.2C11.0457 11.4444 10.7201 11.5667 10.3166 11.5667H10.306C9.91667 11.5667 9.60167 11.4444 9.361 11.2C9.12033 10.9556 9 10.6481 9 10.2778ZM9.13803 20V12.5778H11.4952V20H9.13803ZM12.8012 20H15.1583V15.8556C15.1583 15.5963 15.1866 15.3963 15.2432 15.2556C15.3423 15.0037 15.4928 14.7907 15.6945 14.6167C15.8962 14.4426 16.1493 14.3556 16.4537 14.3556C17.2465 14.3556 17.6429 14.9148 17.6429 16.0333V20H20V15.7444C20 14.6481 19.7523 13.8167 19.2568 13.25C18.7613 12.6833 18.1065 12.4 17.2925 12.4C16.3793 12.4 15.668 12.8111 15.1583 13.6333V13.6556H15.1477L15.1583 13.6333V12.5778H12.8012C12.8153 12.8148 12.8224 13.5519 12.8224 14.7889C12.8224 16.0259 12.8153 17.763 12.8012 20Z" fill="#CFAA72"/>
</svg>
