<svg width="28" height="28" viewBox="0 0 28 28" fill="none" xmlns="http://www.w3.org/2000/svg">
<circle cx="14" cy="14" r="14" fill="white"/>
<path d="M9 9.27778C9 8.90741 9.12387 8.60185 9.37162 8.36111C9.61937 8.12037 9.94144 8 10.3378 8C10.7272 8 11.0421 8.11852 11.2828 8.35556C11.5306 8.6 11.6544 8.91852 11.6544 9.31111C11.6544 9.66667 11.5341 9.96296 11.2934 10.2C11.0457 10.4444 10.7201 10.5667 10.3166 10.5667H10.306C9.91667 10.5667 9.60167 10.4444 9.361 10.2C9.12033 9.95556 9 9.64815 9 9.27778ZM9.13803 19V11.5778H11.4952V19H9.13803ZM12.8012 19H15.1583V14.8556C15.1583 14.5963 15.1866 14.3963 15.2432 14.2556C15.3423 14.0037 15.4928 13.7907 15.6945 13.6167C15.8962 13.4426 16.1493 13.3556 16.4537 13.3556C17.2465 13.3556 17.6429 13.9148 17.6429 15.0333V19H20V14.7444C20 13.6481 19.7523 12.8167 19.2568 12.25C18.7613 11.6833 18.1065 11.4 17.2925 11.4C16.3793 11.4 15.668 11.8111 15.1583 12.6333V12.6556H15.1477L15.1583 12.6333V11.5778H12.8012C12.8153 11.8148 12.8224 12.5519 12.8224 13.7889C12.8224 15.0259 12.8153 16.763 12.8012 19Z" fill="#CFAA72"/>
</svg>
