<svg width="257" height="497" viewBox="0 0 257 497" fill="none" xmlns="http://www.w3.org/2000/svg">
<path opacity="0.2" d="M-113.909 427.982L-102.959 459.296C-81.1518 472.533 -59.7097 482.119 -38.8147 488.053C-17.9198 493.987 4.89182 497 29.5278 497C58.4523 497 85.369 492.618 110.188 483.854C135.006 475.09 156.722 462.582 175.336 446.332C193.95 430.082 209.096 411.915 220.867 391.739C232.638 371.563 241.58 349.653 247.784 326.008C253.989 302.363 257 276.436 257 248.135C257 176.652 236.196 117.403 194.68 70.4783C153.164 23.5536 96.4096 0 24.6003 0C7.62878 0 -8.15634 1.18681 -22.5729 3.56043C-37.0808 5.93405 -54.6909 10.4074 -75.4946 16.9805C-96.2983 23.5536 -109.073 27.4792 -113.726 28.5747C-109.62 40.8993 -106.518 53.0413 -104.51 64.9094C-101.499 83.9897 -99.4919 106.083 -98.397 131.188H-80.7869L-80.5129 91.4757C-78.688 69.4741 -68.5603 53.1326 -50.1289 42.36C-31.6976 31.5874 -4.78015 26.2011 30.6227 26.2011C57.1748 26.6576 79.6206 30.7658 98.1432 38.4344C116.666 46.1943 132.908 58.4276 146.959 75.0429C161.102 91.7496 172.599 112.93 181.541 138.583C190.483 164.236 195.045 196.463 195.227 235.262C195.227 303.185 177.982 357.778 143.401 399.134C108.819 440.49 63.1967 461.213 6.4427 461.213C-19.1057 461.213 -42.8292 456.922 -64.7278 448.432C-79.6919 442.589 -94.4735 433.46 -109.255 420.862L-114 427.891L-113.909 427.982Z" fill="#BEC8D4"/>
</svg>
