<svg width="371" height="497" viewBox="0 0 371 497" fill="none" xmlns="http://www.w3.org/2000/svg">
<path opacity="0.2" d="M370.909 427.982L359.959 459.296C338.152 472.533 316.71 482.119 295.815 488.053C274.92 493.987 252.108 497 227.472 497C198.548 497 171.631 492.618 146.812 483.854C121.994 475.09 100.278 462.582 81.6638 446.332C63.05 430.082 47.9035 411.915 36.133 391.739C24.3625 371.563 15.4204 349.653 9.21577 326.008C3.01115 302.363 0 276.436 0 248.135C0 176.652 20.8039 117.403 62.3201 70.4783C103.836 23.5536 160.59 0 232.4 0C249.371 0 265.156 1.18681 279.573 3.56043C294.081 5.93405 311.691 10.4074 332.495 16.9805C353.298 23.5536 366.073 27.4792 370.726 28.5747C366.62 40.8993 363.518 53.0413 361.51 64.9094C358.499 83.9897 356.492 106.083 355.397 131.188H337.787L337.513 91.4757C335.688 69.4741 325.56 53.1326 307.129 42.36C288.698 31.5874 261.78 26.2011 226.377 26.2011C199.825 26.6576 177.379 30.7658 158.857 38.4344C140.334 46.1943 124.092 58.4276 110.041 75.0429C95.8978 91.7496 84.4012 112.93 75.4593 138.583C66.5173 164.236 61.9551 196.463 61.7726 235.262C61.7726 303.185 79.0178 357.778 113.599 399.134C148.181 440.49 193.803 461.213 250.557 461.213C276.106 461.213 299.829 456.922 321.728 448.432C336.692 442.589 351.474 433.46 366.255 420.862L371 427.891L370.909 427.982Z" fill="#BEC8D4"/>
</svg>
