<svg xmlns="http://www.w3.org/2000/svg" version="1.1" xmlns:xlink="http://www.w3.org/1999/xlink" width="60" height="60"><svg width="60" height="60" viewBox="0 0 60 60" fill="none" xmlns="http://www.w3.org/2000/svg">
<g clip-path="url(#clip0_76_5666)">
<rect width="60" height="60" fill="#282A3C"></rect>
<path d="M22.8707 15.1298C22.754 15.2443 22.9428 15.6939 23.104 15.6939C23.1761 15.6939 23.2333 15.6494 23.2333 15.5921C23.2333 15.3886 22.9576 15.0408 22.8707 15.1277V15.1298Z" fill="white"></path>
<path d="M20.1901 17.1299C20.1901 16.8691 19.7829 17.0154 19.5538 17.3632C19.2633 17.7979 19.2485 17.9591 19.539 17.7258C19.6556 17.624 19.872 17.5965 20.0607 17.6537C20.3216 17.7407 20.364 17.711 20.2919 17.5074C20.2346 17.378 20.1901 17.202 20.1901 17.1299Z" fill="white"></path>
<path d="M25.9735 14.3898C25.8292 14.3898 25.6978 14.4619 25.6978 14.534C25.6978 14.6209 25.8717 14.6782 26.0752 14.6782C26.2788 14.6782 26.4082 14.6209 26.3488 14.534C26.3043 14.4619 26.1325 14.3898 25.9713 14.3898H25.9735Z" fill="white"></path>
<path d="M29.9922 41.054C30.3824 40.8801 30.8468 40.6192 31.0207 40.4602C31.3982 40.0975 32.414 39.8515 32.4989 40.0827C32.5286 40.1845 32.7322 40.4156 32.9336 40.6065C33.2539 40.897 33.2666 40.9394 33.0354 40.897C32.8912 40.8822 32.73 40.9246 32.7003 40.9988C32.6728 41.1006 32.8742 41.1282 33.222 41.1006C33.8752 41.0285 33.8901 40.7825 33.2517 40.405C32.8446 40.1739 32.8742 40.1739 34.1064 40.4771C35.7457 40.8695 35.6864 40.8398 34.8465 40.8991C34.4118 40.9267 33.9898 41.0285 33.9049 41.1303C33.818 41.247 33.5698 41.3636 33.3535 41.4209C32.4543 41.6244 33.2666 42.3497 34.1785 42.1758C34.4118 42.1165 34.7299 41.9574 34.9038 41.8132C35.0925 41.6244 35.4828 41.5226 36.1084 41.4802C36.6004 41.4527 37.0076 41.4654 37.0076 41.5248C37.0076 41.5841 37.1815 41.8429 37.3999 42.0889C37.7774 42.5533 37.7901 42.5533 37.9068 42.2331C38.0086 41.9722 38.0658 41.9426 38.2397 42.0889C38.3564 42.1907 38.6172 42.2183 38.8632 42.161C39.2386 42.0889 39.3553 42.1461 39.7476 42.6254C40.0855 43.0312 40.1823 43.3359 40.0381 43.5395C39.9088 43.7134 39.8642 43.7282 39.807 43.5543C39.7624 43.4525 39.6034 43.2638 39.4592 43.1323C39.2577 42.9584 39.228 42.8566 39.3574 42.7124C39.474 42.5682 39.4167 42.5236 39.0541 42.5236C38.7784 42.5236 38.5027 42.6403 38.3585 42.7993C38.227 42.9584 38.0531 43.0475 37.981 43.0029C37.9089 42.9584 37.8792 43.2638 37.8941 43.6837C37.9365 44.4238 37.9068 44.4662 37.2706 45.077C36.7043 45.5987 36.4859 45.7132 36.0384 45.7132C35.733 45.7132 35.328 45.815 35.154 45.9465C34.8635 46.148 34.8359 46.148 34.8359 45.902C34.8359 45.5393 34.5602 45.2785 34.2994 45.3803C34.1976 45.4248 33.9813 45.3506 33.8201 45.2064C33.3853 44.814 32.8615 44.901 31.9793 45.5118C30.8044 46.3092 30.7917 46.5679 31.8775 46.9475C32.2974 47.0917 32.4861 47.0917 32.6452 46.9751C32.747 46.8881 33.0227 46.8309 33.2411 46.8457C33.5465 46.8903 33.7204 46.7736 34.0237 46.3664C34.4584 45.8023 34.6769 45.7705 34.4012 46.3219C34.0682 46.9454 33.6335 47.308 33.2136 47.308C32.9676 47.308 32.8212 47.3653 32.8806 47.4523C32.9251 47.5392 33.3726 47.5965 33.8795 47.5965C34.6048 47.5965 34.8529 47.6537 35.0544 47.887C35.2155 48.0609 35.504 48.1776 35.8094 48.1776C36.2441 48.1776 36.4625 48.0037 37.6226 46.7991C38.333 46.0462 39.0287 45.4227 39.1453 45.4227C39.5079 45.4227 40.0593 44.7419 40.0593 44.2775C40.0593 44.0442 40.1314 43.7982 40.2035 43.7558C40.422 43.6264 40.3775 43.0602 40.1314 42.7124C39.667 42.0592 39.0732 40.6956 39.0159 40.2035C38.9862 39.8656 39.5369 39.6628 40.668 39.5949C42.1907 39.4931 42.4812 39.4358 43.2786 39.0286C43.7855 38.7678 44.3941 38.5218 44.6274 38.4645C44.8734 38.4073 45.3082 38.2482 45.6136 38.1167C46.1056 37.8983 46.165 37.8983 46.2519 38.1167C46.3686 38.4348 45.4397 41.2194 45.2085 41.2194C45.1067 41.2194 44.8756 41.3933 44.7165 41.6266C44.4832 41.9298 44.3835 41.9744 44.2817 41.8153C44.1057 41.5396 42.2649 41.7284 41.8895 42.0613C41.5545 42.3646 41.0773 43.2935 41.0773 43.6413C41.0872 43.8053 41.1402 43.8053 41.2364 43.6413C41.3806 43.3804 41.4103 43.3804 41.6711 43.6286C41.8302 43.7579 41.9892 43.83 42.0465 43.7728C42.1059 43.7134 42.0613 43.6116 41.9595 43.5543C41.8005 43.4525 41.8153 43.3062 42.0316 42.7421C42.3052 41.9892 42.5088 42.0889 42.2479 42.8439C42.0147 43.5119 42.0592 43.6561 42.3625 43.2659C42.5067 43.0623 42.6106 42.8311 42.5661 42.7272C42.4791 42.4812 42.7972 42.3073 43.0008 42.5109C43.1175 42.6276 43.1026 42.7145 42.9414 42.8439C42.8269 42.9457 42.5491 43.3083 42.3201 43.6413C42.1016 43.9594 41.7814 44.2796 41.6096 44.322C41.001 44.4811 41.493 44.5829 42.1886 44.4387C42.5661 44.3666 43.0878 44.322 43.3359 44.3666C43.6985 44.426 43.8852 44.3538 44.2478 43.9912C44.655 43.584 44.7992 43.5416 45.5669 43.5416C46.6252 43.5416 46.8139 43.3232 46.9433 41.9468C47.1045 40.3372 47.3208 39.4528 47.8298 38.3649C48.466 37.0457 48.4511 36.7828 47.8149 36.4795C47.5413 36.348 47.2784 36.1169 47.219 35.9726C47.0748 35.5082 46.5085 35.3343 46.0886 35.6227C45.6221 35.9281 44.0866 36.2908 43.2617 36.2908C42.723 36.2908 42.6509 36.2632 42.74 36.0448C42.8121 35.9005 42.8842 35.5655 42.9287 35.3046C42.9563 35.0438 43.0453 34.7978 43.1175 34.7532C43.1896 34.7108 43.2468 34.4627 43.2468 34.2039C43.2468 33.9282 43.3486 33.6377 43.4631 33.5359C43.5798 33.4341 43.6816 33.2602 43.6816 33.1584C43.6816 32.8552 44.1736 32.9124 44.479 33.2454C44.7526 33.5508 45.1322 33.6377 45.1322 33.4044C45.1322 33.3175 45.0749 33.2157 44.988 33.1711C44.7547 33.0269 44.8141 32.8085 45.1046 32.8085C45.234 32.8085 45.4376 32.7512 45.5521 32.6791C45.7111 32.5773 45.639 32.4904 45.2764 32.3016C45.0155 32.1723 44.6804 32.0853 44.5362 32.1277C44.3178 32.185 44.2605 32.1277 44.2605 31.7948C44.2605 31.5042 44.1163 31.2307 43.7961 30.9401C43.4865 30.6588 43.5833 30.0204 44.0866 29.0251C44.59 28.0297 45.4793 27.3582 46.7545 27.0104C47.8128 26.7198 48.8286 26.4314 49.0174 26.3741C49.2485 26.302 49.3355 26.3296 49.3355 26.459C49.3355 26.5756 49.4373 26.7919 49.5518 26.9531C49.7405 27.1991 49.7554 27.1843 49.6684 26.6923C49.5815 26.1133 49.8275 25.9076 49.9866 26.4314C50.2601 27.3158 51.8146 27.636 52.3639 26.9234C52.5399 26.7071 52.6693 26.4166 52.6693 26.2702C52.6693 26.1409 52.7266 25.9945 52.8135 25.967C53.0298 25.8949 53.0023 24.9957 52.7414 23.9501C52.5527 23.1973 52.3936 22.877 51.9292 22.4274C51.4944 21.9927 51.3205 21.9057 51.2336 22.0648C51.1466 22.1814 51.0003 22.2238 50.784 22.1517C50.4934 22.0648 50.4658 22.0796 50.5676 22.4995C50.6843 23.0064 50.451 23.1103 50.205 22.6586C50.0884 22.4571 50.0884 22.2811 50.205 22.0627C50.3344 21.8442 50.3216 21.7149 50.1901 21.5558C49.9441 21.2525 49.7702 21.3098 49.8148 21.6873C49.8275 21.9185 49.7702 22.0054 49.5539 22.0054C49.2931 22.0054 49.2634 21.9036 49.2634 21.1359C49.2634 20.6566 49.2061 20.1201 49.1467 19.9462C49.0746 19.7298 49.0895 19.6132 49.1743 19.6132C49.3631 19.6132 49.6239 20.0925 49.6239 20.4551C49.6239 20.629 49.7533 20.7733 49.9569 20.8305C50.1308 20.875 50.4043 21.1062 50.5655 21.3522C50.9282 21.8888 51.0724 21.9036 51.0724 21.4095C51.0724 21.1635 50.9854 21.0044 50.7818 20.962C50.4489 20.875 50.4192 20.7584 50.6525 20.5272C50.7818 20.3958 50.767 20.2664 50.5804 19.9907C50.4489 19.7871 50.3471 19.469 50.3471 19.2802C50.3471 18.9897 50.2898 18.9452 49.9844 19.0045C49.7808 19.0321 49.6218 19.1636 49.6218 19.2802C49.6218 19.4245 49.7236 19.469 49.9547 19.4117C50.1286 19.3672 50.1859 19.3672 50.099 19.4117C49.9675 19.469 49.9675 19.5856 50.1562 19.8465C50.4616 20.3237 50.2432 20.5124 49.9102 20.048C49.7512 19.8465 49.503 19.5114 49.3312 19.2951C48.9389 18.7882 48.9686 18.6567 49.4755 18.5549C49.7653 18.497 49.8134 18.2941 49.6197 17.9463C49.426 17.5971 49.4352 17.3843 49.6472 17.3079C49.9526 17.1913 49.9526 17.1637 49.7193 17.0747C49.5751 17.0174 49.4882 16.8711 49.5306 16.7566C49.59 16.6123 49.5454 16.5678 49.344 16.6399C49.1107 16.712 49.0683 16.6251 49.011 15.8722C48.9516 15.0472 48.4745 13.9741 48.343 14.3644C48.3154 14.4492 48.3875 14.64 48.5169 14.7567C48.8074 15.0472 48.9516 15.5689 48.7777 15.6835C48.7056 15.728 48.4151 16.1627 48.1542 16.6399C47.8262 17.2196 47.6474 17.2924 47.6177 16.8583C47.5731 16.307 47.6177 16.1627 47.9358 15.9167C48.1394 15.7428 48.3133 15.482 48.3133 15.3378C48.3133 15.1193 48.2857 15.0918 48.1839 15.236C48.097 15.3802 48.0397 15.3526 47.9676 15.0769C47.8637 14.6697 47.1108 14.0484 46.5467 13.9041C45.9805 13.7727 46.0101 14.1798 46.5743 14.3813C47.0536 14.5404 47.1108 14.7015 46.8076 14.9603C46.6909 15.0472 46.4725 15.4396 46.3007 15.8298C45.938 16.6717 45.4015 17.1065 45.1258 16.7884C45.024 16.6717 44.6762 16.4978 44.3432 16.396C44.023 16.3091 43.6901 16.1776 43.6031 16.1055C43.3847 15.9019 43.2405 15.974 43.2405 16.2794C43.2405 16.4384 43.3423 16.6123 43.4568 16.642C44.1969 16.8753 44.1821 16.8605 43.8491 17.0916C43.5734 17.2783 43.4568 17.2783 42.7484 17.0768C42.3137 16.9474 41.9214 16.7587 41.8789 16.642C41.7623 16.3366 41.5014 16.3685 41.5014 16.6866C41.5014 17.0492 41.792 17.2952 42.197 17.2952C42.7336 17.2952 43.5458 17.73 43.5013 18.0057C43.4292 18.3832 43.0369 18.3386 42.4579 17.8763C41.862 17.4119 41.3106 17.397 40.9649 17.8487C40.704 18.1817 40.7316 18.3556 41.037 18.2411C41.6011 17.9951 41.8641 18.0078 42.0359 18.2983C42.2098 18.5592 42.1801 18.6037 41.7326 18.6907C41.0497 18.8052 40.6595 18.661 40.3244 18.1244C40.1406 17.8148 40.0487 17.8388 40.0487 18.1965C40.0487 18.574 40.1357 18.7925 40.3541 18.9494C40.6722 19.1678 40.6574 19.1678 40.1781 19.3842C39.8501 19.5397 39.855 19.5984 40.1929 19.5602C40.4686 19.5305 40.7889 19.5453 40.8885 19.5729C41.2215 19.6895 40.9013 19.9059 40.3944 19.9059C40.1208 19.9059 39.9024 19.9631 39.9024 20.0501C39.9024 20.1943 39.0032 20.6863 38.1782 20.9917C37.829 21.1274 37.8969 21.2002 38.3818 21.2101C38.8654 21.22 38.9184 21.3169 38.5409 21.5007C37.7859 21.8782 37.5399 21.8633 36.8591 21.4137C36.483 21.1635 36.0624 21.1253 35.5973 21.2992C34.872 21.5579 34.3651 21.893 34.9017 21.7467C35.9006 21.471 36.1487 21.4858 36.6704 21.7912C36.9758 21.9651 37.4678 22.1687 37.8007 22.2408C38.3224 22.3426 38.2928 22.3553 37.5823 22.2832C36.4223 22.1814 36.2484 22.1984 36.1317 22.385C36.0596 22.4868 35.856 22.5144 35.5803 22.4423C35.3492 22.3977 35.101 22.4147 35.0586 22.4868C34.9992 22.5886 36.1466 23.0382 37.2748 23.3415C37.4339 23.386 37.4508 23.4284 37.3045 23.5748C37.173 23.7041 36.927 23.6766 36.2314 23.4157C35.3046 23.0827 34.4627 22.9958 34.3333 23.227C34.2739 23.2991 34.3333 23.386 34.4181 23.4305C34.5624 23.4751 34.5624 23.5323 34.4054 23.7211C34.1 24.0965 33.8095 24.0244 33.8095 23.5769C33.8095 23.0403 33.9537 22.8516 34.3885 22.7922C34.5899 22.7646 34.7511 22.6628 34.7511 22.561C34.7511 22.4741 34.7956 22.3447 34.8677 22.2853C35.0416 22.1114 34.9844 21.9821 34.679 21.8951C34.4606 21.8379 34.4033 21.8951 34.433 22.1114C34.4457 22.2853 34.3736 22.4444 34.2888 22.4741C33.9982 22.5759 34.0555 21.0235 34.3906 19.7786C34.7384 18.4744 34.7532 18.1838 34.4478 16.9071C34.1149 15.5138 34.2464 14.7312 34.942 13.7896C35.2452 13.3676 35.6079 12.8311 35.7521 12.585C35.8963 12.3518 36.3904 11.8322 36.8549 11.4398C37.6226 10.7866 37.7096 10.6552 37.7986 10.0041C37.8856 9.42513 37.8559 9.22154 37.6247 8.90342C37.3639 8.57047 37.2345 8.52593 36.2484 8.4814C35.2898 8.45383 35.118 8.4814 34.6387 8.81435C34.3354 9.01795 34.0597 9.177 34.0301 9.177C33.9855 9.177 33.9579 8.98825 33.9579 8.76982C33.9579 8.55138 33.7416 8.04452 33.4935 7.6543C33.2327 7.26409 32.957 6.84206 32.87 6.72754C32.7979 6.59605 32.4056 6.14857 32.0153 5.69685C31.623 5.2621 31.2455 4.72555 31.1734 4.50924C30.9847 3.95784 30.4926 3.82847 30.1576 4.24838C29.8225 4.66829 29.8225 5.13273 30.1851 5.59718C30.5626 6.06162 30.5478 6.30763 30.1703 6.65543C29.5913 7.16229 29.2711 8.27992 29.1269 10.1928C29.1142 10.4685 29.0251 10.7888 28.9678 10.9033C28.8957 11.0199 28.7918 11.3105 28.7494 11.5565C28.6624 11.9785 28.6052 12.0061 27.5024 12.2245C25.7634 12.5872 16.7735 14.5149 15.6135 14.7779C15.0621 14.9073 14.5404 15.0239 14.4534 15.0366C14.3813 15.0366 14.3368 14.8627 14.3516 14.6316C14.3962 14.3113 14.2923 14.1374 13.9445 13.8342C13.5521 13.5139 13.4652 13.3125 13.4079 12.7038C13.2043 10.6446 14.5086 9.48451 17.3949 9.16428C19.4817 8.93312 20.2664 8.75921 20.54 8.45383C20.6863 8.29477 20.9026 8.16328 21.0193 8.16328C21.1932 8.16328 21.1932 8.10602 20.9747 7.87274C20.7909 7.66915 20.6361 7.68399 20.5103 7.91728C20.2643 8.39657 19.6259 8.59804 18.3789 8.59804C14.6804 8.59804 12.6508 9.94683 12.636 12.4111C12.636 13.3103 12.8692 14.0505 13.2595 14.3813C13.5352 14.5976 13.5776 15.0494 13.3612 15.1936C13.2891 15.2381 12.9413 15.2954 12.6084 15.3229C12.2585 15.3526 11.7961 15.4544 11.5501 15.5711C11.2702 15.7054 11.319 15.7973 11.6965 15.8468C12.0824 15.8948 12.3094 16.1797 12.3772 16.7014C12.4493 17.2973 12.566 17.5709 12.9286 17.9484C13.3634 18.398 13.3931 18.485 13.3061 19.0936C13.058 20.6757 13.9593 22.0669 15.5541 22.5886C16.6272 22.9513 18.6122 22.9216 19.961 22.5313C21.3247 22.1242 21.963 22.139 22.2514 22.5589C22.455 22.8495 22.4826 22.8622 22.5695 22.6162C22.6268 22.472 22.6141 22.2811 22.525 22.1963C22.2345 21.9057 20.9302 21.8909 19.5814 22.1517C17.2761 22.6013 15.5223 22.2535 14.5658 21.1529C14.1756 20.7181 14.0865 20.4997 14.0865 19.9483C14.0865 19.5856 14.1586 19.0342 14.2604 18.7161C14.3764 18.3301 15.0868 18.1654 16.3918 18.222C17.4797 18.2517 18.6101 18.3386 18.9155 18.398C19.206 18.4404 19.8295 18.4404 20.2643 18.3832C20.9005 18.3111 21.0893 18.2241 21.1635 17.993C21.2115 17.7993 21.5445 17.7901 22.1623 17.9654C22.4232 18.0375 22.525 17.9781 22.6268 17.7045C22.7583 17.3716 22.8749 17.327 23.9035 17.2401C24.527 17.1807 25.1802 17.0959 25.3541 17.0513C25.6149 16.992 25.7167 17.0641 25.8482 17.3864C26.2957 18.5592 26.4272 19.416 26.3254 20.7224C26.2681 21.6343 26.283 22.069 26.3975 22.1411C26.775 22.3744 26.5735 23.1273 25.9627 23.7232C25.441 24.2449 25.3986 24.3616 25.5428 24.5927C25.7888 24.9851 25.3265 25.8546 24.8621 25.8546C24.6882 25.8546 24.4994 25.9267 24.457 25.9988C24.4125 26.0857 24.211 26.1006 24.0222 26.056C23.7762 25.9988 23.6448 26.056 23.5154 26.2745C23.4284 26.4505 23.21 26.5799 23.0361 26.5799C22.3702 26.5799 19.2654 27.4642 18.6419 27.8269C18.2941 28.0283 17.3801 28.7536 16.6124 29.4217C15.8446 30.1024 15.0176 30.7556 14.7715 30.8723C14.2202 31.1628 13.0177 31.1628 12.1906 30.8723C10.9584 30.4375 9.84293 30.639 8.8992 31.4512C7.79853 32.3928 7.75399 33.5529 8.7974 35.0035C9.62237 36.1635 9.60965 36.3501 8.6235 36.8591C8.2757 37.0351 8 37.2812 8 37.3978C8 37.5717 8.04454 37.5993 8.18875 37.4826C8.4496 37.2663 9.45059 37.0182 9.45059 37.1794C9.45059 37.2515 9.33395 37.3087 9.18974 37.3087C8.63834 37.3087 8.29054 37.7286 8.29054 38.3967C8.29054 38.7445 8.33508 39.122 8.37749 39.2513C8.53655 39.6734 8.7253 39.4995 8.7253 38.9481C8.7253 38.6427 8.82709 38.2673 8.95858 38.1061C9.1452 37.8453 9.16005 37.8601 9.06037 38.3246C8.97342 38.8039 8.97342 38.8166 9.21943 38.5706C9.36364 38.4412 9.61177 38.2949 9.78567 38.2673C10.5831 38.1061 11.3529 38.0786 11.425 38.2079C11.5098 38.3394 11.9467 37.6862 12.2224 36.9906C12.3094 36.787 12.4684 36.5686 12.5851 36.5262C12.9753 36.382 12.7865 35.9748 11.8449 35.0162C11.3232 34.4945 10.9033 34.0173 10.9033 33.9431C10.9033 33.784 11.7007 33.3917 12.0188 33.3917C12.163 33.3917 12.672 33.2623 13.1343 33.1012C13.6009 32.9273 14.0038 32.8106 14.0208 32.8403C14.0484 32.8679 14.1226 33.5804 14.2095 34.4224C14.4259 36.7701 14.7737 37.3066 17.0217 38.9459C17.6303 39.3934 18.2093 39.9024 18.3132 40.0763C18.5147 40.4686 18.3853 41.7284 18.0799 42.4833C17.9633 42.759 17.6727 43.2235 17.4564 43.514C16.9347 44.1799 16.7905 44.7186 17.0365 45.0495C17.1383 45.1937 17.6452 45.3994 18.152 45.5287C19.6175 45.8617 21.1677 46.6315 21.3565 47.1235C21.4434 47.3399 21.647 47.7195 21.8336 47.9655C22.4444 48.7777 22.9216 49.749 23.5324 51.3163C24.1855 52.998 24.7794 53.8103 25.229 53.6215C25.7655 53.4031 25.8949 53.4752 25.9967 54.0414C26.126 54.8388 26.4166 55 27.706 55C28.7791 54.9852 28.7939 54.9852 28.4016 54.7667C28.1556 54.6374 27.8375 54.5801 27.6318 54.6225C27.4451 54.6819 27.284 54.6522 27.284 54.5801C27.284 54.4041 27.6466 54.2747 28.198 54.2599C28.6455 54.2599 28.6455 54.2471 28.3274 54.1008C27.8926 53.8824 27.9796 53.4773 28.4588 53.4773C28.7091 53.4872 28.7381 53.3571 28.5458 53.0871C28.1832 52.593 27.9223 52.5633 27.8078 53.015C27.7498 53.2271 27.648 53.2271 27.5024 53.015C27.3136 52.7393 27.2118 52.7096 26.9065 52.8262C26.4717 53.0001 26.213 52.8835 26.3275 52.5802C26.459 52.2621 26.1112 51.3926 25.8355 51.3035C25.5301 51.2017 24.8048 50.099 24.7475 49.6642C24.7179 49.3737 24.7624 49.3461 25.1102 49.4182C25.3435 49.4755 25.5598 49.433 25.617 49.3461C25.6892 49.2294 25.8185 49.2591 26.0666 49.4182C26.2985 49.5638 26.4144 49.4139 26.4144 48.9686C26.4144 48.432 26.3423 48.2306 25.9945 47.8955C25.7613 47.6622 25.5153 47.2275 25.4431 46.9242C25.3414 46.4449 25.2396 46.358 24.7475 46.2137C24.3616 46.1077 24.1537 45.6631 24.124 44.8798C24.0944 44.0979 24.2301 43.7841 24.5312 43.9382C24.9087 44.1121 25.055 44.1269 25.4156 43.9827C25.8631 43.794 26.4144 43.2002 26.4144 42.8948C26.4144 42.8078 26.705 42.4303 27.0676 42.0528C27.5321 41.5608 27.8205 41.3721 28.1259 41.3721C28.3422 41.3721 28.6052 41.3 28.7049 41.1982C28.8215 41.0815 28.9212 41.0815 29.0675 41.1982C29.2266 41.3424 29.4302 41.3 29.9815 41.0667L29.9922 41.054ZM33.8922 41.7941C33.502 41.968 33.4129 41.968 33.3132 41.7941C33.256 41.7072 33.415 41.6499 33.7056 41.6647C34.0979 41.6647 34.1403 41.6923 33.8943 41.7941H33.8922ZM33.0503 46.1162C32.6876 46.464 32.4416 46.5806 32.0344 46.5806C31.7439 46.5806 31.4979 46.5234 31.4979 46.4513C31.4979 46.3792 31.7163 46.2752 31.9772 46.218C32.2232 46.1607 32.6876 45.9571 32.993 45.7684C33.6589 45.3336 33.6886 45.4948 33.0503 46.1183V46.1162ZM36.1381 47.8849C36.066 47.8849 35.9939 47.8276 35.9939 47.7407C35.9939 47.6686 35.8348 47.5519 35.6164 47.5074C35.2983 47.4226 35.2686 47.3632 35.3576 46.9581C35.4425 46.5085 35.5315 46.3346 35.6036 46.4513C35.6164 46.4788 35.7775 46.7121 35.9663 46.973C36.2993 47.4671 36.3862 47.887 36.1402 47.887L36.1381 47.8849ZM38.1528 45.709C37.8919 46.0271 37.5887 46.288 37.472 46.288C37.3554 46.288 37.0373 46.4173 36.7764 46.5934C36.5007 46.7524 36.2844 46.8245 36.2844 46.7376C36.2844 46.5488 36.8634 46.1416 37.1539 46.1416C37.2833 46.1416 37.6035 45.9084 37.8792 45.6348C38.5472 44.9392 38.7211 44.9986 38.1549 45.7069L38.1528 45.709ZM39.0096 44.9689C38.6596 44.7822 38.6766 44.4047 39.0223 44.4047C39.1665 44.4047 39.3998 44.2605 39.5164 44.0866C39.6705 43.8647 39.7476 43.8795 39.7476 44.1312C39.7624 44.6804 39.3277 45.1597 39.0096 44.971V44.9689ZM44.2881 43.1556C44.2308 43.1853 44.1715 42.969 44.1863 42.6636C44.1863 42.3582 44.2308 42.1398 44.303 42.1843C44.4472 42.2713 44.4323 43.0687 44.2881 43.1556ZM45.9995 42.8099C45.9274 42.8099 45.8553 42.7527 45.8553 42.6657C45.8553 42.5936 45.7535 42.5215 45.639 42.5215C45.4651 42.5215 45.4354 42.4197 45.5097 42.1292C45.639 41.5778 45.6963 41.5333 45.9444 41.8535C46.1756 42.1886 46.2201 42.8121 46.0017 42.8121L45.9995 42.8099ZM47.7958 36.9524C48.0439 37.1984 48.1012 37.4444 47.9125 37.4444C47.8404 37.4444 47.6813 37.3278 47.5498 37.1836C47.1299 36.7192 47.3611 36.5028 47.7958 36.9524ZM46.6358 35.7479C46.78 35.8051 46.9263 35.8496 46.956 35.8496C46.9836 35.8496 47.0133 35.9218 47.0133 35.9939C47.0133 36.2123 46.8245 36.1678 46.5785 35.8921C46.3898 35.6757 46.4046 35.6588 46.6358 35.7479ZM46.797 36.3714C47.1596 36.6025 47.2762 36.8634 47.043 36.8634C46.9709 36.8634 46.8118 36.7467 46.6803 36.6025C46.3177 36.2123 46.377 36.0957 46.797 36.3714ZM9.95109 37.5887C9.34243 37.8219 9.21307 37.7477 9.64782 37.4148C9.87898 37.2557 10.1271 36.98 10.1844 36.8061C10.301 36.5453 10.3137 36.5728 10.3137 36.98C10.3286 37.3554 10.2565 37.472 9.95109 37.5887ZM11.0263 36.5898C10.9966 36.8217 10.9146 36.8167 10.7803 36.5749C10.6637 36.3735 10.2586 35.8348 9.86626 35.3704C9.45907 34.8635 9.17065 34.3842 9.17065 34.1658C9.17065 33.6738 9.27245 33.731 9.5333 34.3694C9.66267 34.6599 10.0571 35.2113 10.4198 35.574C10.9118 36.066 11.073 36.3417 11.0284 36.5898H11.0263ZM11.7792 36.8061C11.7792 36.9079 11.7219 37.0373 11.635 37.0818C11.548 37.1263 11.4907 37.0245 11.4907 36.8485C11.4907 36.6619 11.3168 36.2696 11.1133 35.9642C10.8969 35.6588 10.7506 35.3682 10.7951 35.3258C10.8969 35.241 11.7813 36.558 11.7813 36.8061H11.7792ZM12.4324 32.571C11.7368 32.8912 10.5322 33.0057 10.7655 32.7321C11.0412 32.414 11.724 32.2104 12.3751 32.2529C12.7993 32.2825 12.8183 32.3886 12.4324 32.571ZM13.7069 32.1086C13.3294 32.2401 13.1704 32.2104 12.7505 31.9496C12.4748 31.7905 12.1567 31.6442 12.0252 31.6442C11.8937 31.6442 11.2999 31.9051 10.6912 32.2232C9.50361 32.8467 9.15369 32.9485 9.47392 32.571C9.70508 32.2804 10.5173 31.8775 11.3147 31.6442C12.0824 31.4109 12.0973 31.2095 11.3593 31.2095C10.9097 31.2095 10.547 31.3685 9.71993 31.9199C9.14096 32.3122 8.63198 32.6155 8.60441 32.5731C8.48777 32.4586 8.96706 32.0365 9.60328 31.7184C9.96593 31.5297 10.3562 31.2688 10.4579 31.1543C10.6743 30.8935 11.4589 30.8489 12.2288 31.0674C12.6211 31.184 12.7929 31.3134 12.8501 31.5742C12.9223 31.8796 13.0262 31.9369 13.5606 31.9517C13.9664 31.9602 14.0144 32.0132 13.7048 32.1108L13.7069 32.1086ZM26.1048 48.29C26.1494 48.4193 26.0454 48.449 25.7422 48.3918C25.4721 48.3239 25.4481 48.3819 25.6701 48.5657C25.9882 48.8265 25.9733 49.0449 25.6425 49.0449C25.5555 49.0449 25.2077 48.9156 24.8578 48.7544C24.4824 48.5805 24.264 48.4066 24.3213 48.3048C24.3785 48.2327 24.51 48.1903 24.6118 48.2327C24.7285 48.2772 24.8727 48.22 24.9596 48.1182C25.1632 47.8849 26.0051 48.0143 26.1069 48.2921L26.1048 48.29ZM24.7709 46.4619C25.1462 46.534 25.1462 46.7673 24.756 47.0408C24.4209 47.2868 24.4082 47.2868 24.3213 46.9963C24.2046 46.6337 24.4082 46.3876 24.7709 46.4598V46.4619ZM29.744 40.4008C29.7165 40.4305 29.5574 40.3732 29.4111 40.2566C29.2499 40.1548 29.1502 40.0254 29.1926 39.9978C29.2202 39.9681 29.3793 40.0254 29.5256 40.142C29.6868 40.2438 29.7864 40.3732 29.744 40.4008ZM29.9031 39.8367C29.7143 39.6352 29.6274 39.474 29.7016 39.474C29.8607 39.4889 30.4842 39.9978 30.4842 40.1102C30.4842 40.299 30.2233 40.1823 29.9052 39.8345L29.9031 39.8367ZM31.9623 39.7645C31.7609 39.7645 31.746 39.737 31.9348 39.6203C32.1956 39.4613 32.1087 39.4316 30.7174 39.2132C30.1215 39.1283 29.5426 38.9226 29.2965 38.7487C28.8745 38.4433 28.7727 38.56 29.0505 39.0668C29.1375 39.2259 29.1651 39.3849 29.1226 39.4295C28.9912 39.5737 28.3104 37.9068 28.3252 37.472C28.3252 37.1391 28.3677 37.1815 28.5712 37.7329C28.7254 38.1683 28.8314 38.2164 28.8894 37.8771C28.9473 37.5392 29.0583 37.53 29.2223 37.8495C29.4832 38.3415 30.2382 38.8929 30.6284 38.8929C30.7577 38.8929 30.6284 38.7042 30.3103 38.4136C30.0197 38.1676 29.7143 37.805 29.6295 37.6311C29.4259 37.2409 29.4259 36.4265 29.6147 36.1381C29.7165 35.979 29.7589 36.1232 29.7589 36.6619C29.7589 37.2006 29.831 37.4593 30.0494 37.6608C30.2085 37.805 30.3675 38.0383 30.4121 38.1825C30.4693 38.3691 30.6453 38.4582 30.9338 38.4582C31.2222 38.4582 31.5276 38.6172 31.8775 38.9502C32.3992 39.457 32.4268 39.7624 31.9623 39.7624V39.7645ZM27.7293 35.1965C27.6127 35.0522 27.4388 35.0077 27.25 35.0671C26.9892 35.1519 26.9743 35.1392 27.1631 34.9653C27.4663 34.6748 28.2786 34.1106 28.3804 34.1106C28.4249 34.1106 28.4249 34.1827 28.3804 34.2697C28.3231 34.3418 28.2362 34.7172 28.1916 35.0968C28.1068 35.6482 28.0326 35.7924 27.7845 35.8221C27.6106 35.8496 27.4366 35.7627 27.3942 35.6482C27.3221 35.487 27.3942 35.4149 27.6106 35.4149C27.8566 35.4149 27.8714 35.3873 27.7272 35.1965H27.7293ZM26.3805 36.2123C26.0772 36.0829 25.5534 36.5028 25.5534 36.8655C25.5534 37.0542 25.4665 37.0988 25.1908 37.0394C24.9299 36.9948 24.756 37.0542 24.6267 37.2281C24.51 37.402 24.4082 37.4317 24.3361 37.3299C24.2916 37.2451 24.4209 37.0394 24.6394 36.8655C25.7422 36.0235 26.7559 35.2707 26.7856 35.2983C26.8004 35.3258 26.7856 35.6482 26.741 36.0384C26.6965 36.5028 26.6117 36.7192 26.4802 36.7192C26.2342 36.7192 26.2215 36.4731 26.4675 36.3862C26.5841 36.3417 26.5544 36.2844 26.3805 36.2123ZM26.512 34.8062C25.9458 35.2261 25.2205 35.7924 24.9024 36.0511C24.1919 36.6301 23.526 37.067 23.526 36.9652C23.526 36.9206 24.4252 36.1826 25.528 35.3131C26.6159 34.4563 28.6158 32.8912 29.9646 31.833C31.3134 30.7599 32.4607 29.9328 32.5031 29.9921C32.5476 30.0346 32.4904 30.1512 32.3737 30.2381C32.2444 30.3399 31.1119 31.2243 29.8522 32.2253C28.5903 33.2242 27.0825 34.3842 26.5162 34.8062H26.512ZM21.0596 36.3268C21.2928 36.0808 21.4371 36.0214 21.5388 36.1232C21.77 36.3565 20.8708 37.0373 20.523 36.9079C20.4212 36.8634 20.3343 36.7764 20.3343 36.6916C20.3343 36.6068 20.4212 36.5749 20.523 36.6195C20.6248 36.664 20.8708 36.5325 21.0596 36.3289V36.3268ZM20.9302 35.4573C20.9154 35.1965 21.2059 34.486 21.2928 34.573C21.3353 34.6175 21.2632 34.8783 21.1486 35.1392C21.032 35.4149 20.9302 35.5591 20.9302 35.4573ZM21.9439 36.4286C22.0457 36.4286 21.9439 36.6301 21.7106 36.8634C21.2759 37.3278 21.1317 37.3872 20.9853 37.1688C20.8984 37.0097 21.6534 36.4286 21.9418 36.4286H21.9439ZM21.7849 35.8645C21.7849 35.7924 22.5102 35.0798 23.3945 34.2973C26.1494 31.8754 27.2225 30.9041 28.9339 29.2944C30.4269 27.8884 30.8913 27.5109 30.7471 27.8438C30.7026 27.9287 26.9764 31.4682 25.1929 33.1075C24.8027 33.4702 23.9311 34.2676 23.28 34.8762C22.1645 35.9196 21.787 36.1805 21.787 35.8624L21.7849 35.8645ZM24.1622 32.1362C23.8441 32.2529 23.6978 32.2529 23.5981 32.079C23.3648 31.7015 23.9459 31.483 24.2343 31.8457C24.3658 32.0047 24.351 32.0641 24.1622 32.1362ZM24.2492 32.8764C24.2492 33.08 23.9438 33.5296 23.7996 33.5296C23.7126 33.5296 23.7126 33.4278 23.8144 33.2539C23.9586 32.9485 24.2492 32.7152 24.2492 32.8764ZM26.4972 26.8598C26.2215 26.5989 26.0179 26.3529 26.0476 26.3232C26.0772 26.2957 26.3381 26.4102 26.6265 26.5693C26.9892 26.7856 27.1928 27.0485 27.2946 27.4112C27.4833 28.1068 27.4833 28.6158 27.3094 28.3252C27.2076 28.1662 27.1652 28.181 27.1207 28.4122C27.1058 28.5712 26.9892 28.673 26.9022 28.6455C26.8004 28.6009 26.7135 28.4419 26.7135 28.268C26.6986 28.0941 26.512 27.7314 26.2787 27.4557C25.7146 26.7877 25.8588 26.688 26.4972 27.2967C26.8301 27.6148 27.004 27.7166 27.004 27.5724C27.004 27.4578 26.7707 27.1376 26.4972 26.8619V26.8598ZM27.9902 17.45C27.4239 17.1022 27.5257 17.0577 28.2659 17.3631C28.8745 17.6239 28.8894 17.6239 28.8894 17.45C28.8894 17.3779 28.4695 17.1447 27.9477 16.9114C26.8598 16.4639 26.7877 16.2179 27.5851 15.781C27.923 15.6071 28.6236 15.8248 29.6868 16.4342C30.5711 16.9411 31.3537 17.4182 31.4258 17.5073C31.6421 17.7109 32.2232 18.5507 32.2232 18.6525C32.2232 18.7395 29.9031 17.3334 29.6868 17.1022C29.6147 17.0301 29.8161 17.1171 30.1512 17.291C31.0207 17.7703 31.0801 17.5667 30.2233 17.0301C29.4556 16.5381 28.3825 16.1034 28.2531 16.2327C28.1216 16.3769 28.1513 16.5657 28.3104 16.5657C28.3825 16.5657 28.8342 16.8265 29.2817 17.1447C29.7461 17.4776 30.6008 18.029 31.1819 18.3917C31.746 18.7543 32.2253 19.1445 32.2253 19.2612C32.2253 19.5793 32.0514 19.5072 30.832 18.7225C29.5871 17.9102 29.3241 17.7788 29.3241 17.9696C29.3241 18.029 29.8755 18.4341 30.5563 18.8688C31.3777 19.3806 31.7884 19.8981 31.7884 20.4212C31.7884 20.856 31.7736 21.2038 31.7609 21.1889C31.7333 21.1762 31.1649 20.6248 30.4842 19.9568C29.5256 19.0152 29.0336 18.6525 28.3083 18.3323C27.2352 17.8848 26.6117 17.4903 26.758 17.3461C26.8153 17.2889 27.1928 17.3907 27.5851 17.5794C28.427 17.9717 28.6879 17.8975 27.9923 17.45H27.9902ZM27.2946 15.202C27.2946 14.9688 27.846 14.4471 27.9626 14.5785C28.0771 14.6952 27.7738 15.2169 27.513 15.3166C27.3836 15.3611 27.2967 15.3166 27.2967 15.202H27.2946ZM33.2835 12.6211C33.239 12.1991 33.2835 12.2436 33.5868 12.9541C34.2824 14.5043 34.2549 14.7079 33.3557 14.3453C33.0206 14.2159 32.9485 14.0993 32.9485 13.7218C32.9485 13.4758 33.0354 13.2297 33.1372 13.1852C33.2666 13.1407 33.3111 12.9392 33.2814 12.6211H33.2835ZM33.3832 11.3444C33.5571 11.3444 33.6886 11.7516 33.5423 11.8513C33.4702 11.8788 33.3832 11.794 33.3387 11.6328C33.2942 11.4738 33.309 11.3423 33.3832 11.3423V11.3444ZM33.3981 17.4352C33.4702 17.4352 33.5274 17.537 33.5274 17.6536C33.5274 17.8699 33.3535 17.9442 33.1945 17.783C33.0778 17.6685 33.2093 17.4352 33.3981 17.4352ZM32.9485 15.4332C32.9485 15.2593 33.0354 15.1151 33.1499 15.1151C33.2645 15.1151 33.3832 15.0281 33.4256 14.9412C33.4553 14.8394 33.5423 14.797 33.5995 14.8542C33.6568 14.9136 33.5274 15.1299 33.326 15.3611C32.9633 15.7513 32.9485 15.7513 32.9485 15.4332ZM33.5296 19.2463C33.6314 18.8561 33.6462 18.8837 33.6589 19.4923C33.6589 19.8698 33.6165 20.2176 33.5296 20.2622C33.4426 20.3067 33.4002 20.2049 33.4002 20.0161C33.4129 19.8274 33.4723 19.4923 33.5296 19.2463ZM33.6292 15.9994C33.6886 15.6071 33.7607 15.4481 33.818 15.5647C33.9622 15.8255 34.1658 18.0142 34.0513 18.0142C34.0067 18.0142 33.9643 17.8551 33.9643 17.6515C33.9643 17.4479 33.8774 17.1277 33.7628 16.9559C33.6186 16.7375 33.5741 16.4342 33.6313 15.9994H33.6292ZM32.5286 9.22578C32.1808 8.96705 31.9326 8.73376 31.9623 8.73376C32.1511 8.73376 33.3832 9.50148 33.3832 9.61812C33.3832 9.83655 33.1945 9.74748 32.5286 9.22578ZM32.6579 30.4842C32.6579 30.5711 32.7746 30.6284 32.9188 30.6008C33.0778 30.5732 33.1796 30.6729 33.2093 30.8913C33.2539 31.1819 33.222 31.2095 32.9909 31.1077C32.6007 30.9189 31.9602 30.991 31.6718 31.2667C31.5276 31.3982 31.3388 31.5 31.2646 31.5C31.1904 31.5 31.2943 31.3706 31.4979 31.1946C32.3398 30.5287 32.6579 30.3251 32.6579 30.4842ZM32.7152 24.9448C32.8467 24.7709 32.9485 24.4952 32.9485 24.3488C32.9485 24.2025 33.0206 24.1304 33.0927 24.1749C33.326 24.3213 33.2666 24.7539 32.976 25.0169C32.6007 25.3647 32.4543 25.3201 32.7152 24.9448ZM33.4575 33.8625C33.8053 34.7044 33.7628 34.8911 33.3408 34.4266C33.1966 34.2824 33.0948 34.0513 33.0948 33.9346C33.0948 33.5571 32.9357 33.239 32.7894 33.326C32.7173 33.3684 32.66 33.2963 32.66 33.1648C32.66 32.6431 33.1393 33.063 33.4575 33.8604V33.8625ZM32.6579 31.6718C32.6579 31.5997 32.7873 31.4979 32.9633 31.4555C33.1499 31.4109 33.239 31.4427 33.1945 31.5424C33.1224 31.7608 32.6579 31.8605 32.6579 31.6718ZM32.1511 31.5424C32.0069 31.9899 31.8902 32.0938 31.6442 31.9347C31.4703 31.833 31.4852 31.7608 31.7015 31.5148C32.0641 31.1225 32.2677 31.1225 32.1511 31.5424ZM28.338 28.3252C28.0199 28.0771 27.7145 27.7463 27.6572 27.5575C27.6127 27.3688 27.496 27.0782 27.4112 26.9043C27.3242 26.7304 27.2946 26.4823 27.3518 26.3529C27.4833 25.9903 27.9477 26.1493 27.9753 26.5693C27.9937 26.811 27.9647 26.811 27.8884 26.5693C27.7866 26.2215 27.7717 26.2215 27.6721 26.512C27.5406 26.9467 27.846 27.5681 28.5267 28.1937C29.2223 28.8469 29.1502 28.9042 28.338 28.3252ZM28.7282 29.0908C28.6858 29.1354 28.4249 28.9763 28.1492 28.743C27.8735 28.5097 27.7293 28.3231 27.8014 28.3231C28.005 28.3231 28.8173 29.0039 28.7282 29.0908ZM27.6127 30.0494C27.5406 30.0494 27.4239 29.9476 27.3815 29.8161C27.3221 29.6719 27.3667 29.6146 27.4663 29.6422C27.6848 29.7143 27.7993 30.0494 27.6106 30.0494H27.6127ZM28.6285 27.9032C28.0495 27.3667 27.8608 27.004 28.1492 27.004C28.3252 27.004 29.3962 28.2934 29.2965 28.3825C29.252 28.427 28.9615 28.2086 28.6285 27.9032ZM27.337 23.1464C27.3942 23.0891 27.5681 23.1612 27.7442 23.3224C28.1068 23.6405 28.9466 24.6839 28.8448 24.6839C28.8003 24.6839 28.4249 24.3658 28.0029 23.9586C27.583 23.5663 27.2776 23.1909 27.337 23.1464ZM27.5406 24.9448C27.3667 24.9893 27.2946 24.8854 27.2946 24.6266C27.2946 24.2767 27.3221 24.264 27.5851 24.4231C27.9181 24.6415 27.8905 24.8727 27.5406 24.9469V24.9448ZM26.9468 18.2029C26.8301 17.9272 27.583 18.2899 28.092 18.7543C28.338 18.9855 28.8894 19.3184 29.339 19.522C29.9031 19.7701 30.3951 20.1455 30.9634 20.7839C31.4279 21.2759 31.7905 21.7403 31.7905 21.8124C31.7905 22.016 31.4427 21.9439 30.9634 21.6237C30.7026 21.4498 30.4842 21.261 30.4842 21.1889C30.4842 20.9281 29.5404 20.0161 28.9912 19.7383C28.2956 19.3757 27.0486 18.4489 26.9468 18.2029ZM28.2362 19.8847C28.1641 19.8995 27.8735 19.7553 27.6275 19.5941C27.1058 19.2612 27.0486 19.1742 27.337 19.1742C27.5406 19.1742 28.4376 19.8847 28.2362 19.8847ZM29.0484 20.1328C29.0908 20.0882 29.3093 20.2473 29.5404 20.4806C30.0473 21.0023 29.9328 21.0596 29.3665 20.5675C29.1502 20.3788 29.0039 20.1752 29.0484 20.1328ZM30.0197 21.8718C30.4842 22.2196 30.5711 22.349 30.3951 22.4211C30.0197 22.5653 29.6274 22.5229 29.5107 22.3066C29.4514 22.2048 29.1205 21.9439 28.7854 21.7276C28.2192 21.3777 27.9732 21.0596 28.2913 21.0596C28.6094 21.0596 29.4662 21.4519 30.0176 21.8718H30.0197ZM29.2944 22.5526C29.3517 22.8283 28.83 22.9152 28.6561 22.6395C28.6137 22.5526 28.3804 22.3638 28.1344 22.2196C27.7569 21.9863 27.742 21.9587 28.0029 21.8866C28.3804 21.7848 29.235 22.2196 29.2944 22.5547V22.5526ZM27.4833 21.4222C27.4388 21.2928 27.4388 21.1465 27.496 21.1041C27.5978 21.0023 28.0199 21.3352 28.0199 21.5113C28.0199 21.7297 27.5851 21.6555 27.4833 21.4243V21.4222ZM28.9912 27.0613C28.1938 26.4399 27.9477 26.0772 28.5564 26.3954C28.8173 26.5544 30.0218 27.7293 29.9052 27.7293C29.8607 27.7293 29.4556 27.4239 28.9912 27.0613ZM29.0336 25.0614C29.0336 25.0169 29.1057 24.9745 29.1778 24.9745C29.2647 24.9745 29.322 25.0614 29.322 25.1759C29.322 25.2904 29.4662 25.4092 29.6549 25.4665C29.9731 25.5534 31.3515 26.7856 31.3515 27.004C31.3515 27.0613 31.2498 27.1631 31.1183 27.2055C30.9741 27.2649 30.728 27.1334 30.4524 26.8301C29.7992 26.1345 29.0315 25.1759 29.0315 25.0614H29.0336ZM30.4842 25.5258C30.4842 25.3519 31.1946 25.4983 31.4279 25.7146C31.5573 25.844 31.413 25.8588 30.8192 25.7422C30.6305 25.7146 30.4863 25.6107 30.4863 25.5258H30.4842ZM31.8181 29.0484C31.9051 29.0187 31.9496 29.0611 31.9199 29.1502C31.8775 29.2796 30.7174 30.2657 26.1345 34.0937C25.6998 34.4563 25.4241 34.6599 25.5259 34.5157C25.7867 34.1976 31.6166 29.1226 31.8181 29.0505V29.0484ZM31.5997 26.7707C31.4109 26.5841 31.4979 26.4229 31.8033 26.4229C31.9623 26.4229 32.079 26.495 32.0493 26.5968C31.9772 26.8004 31.7312 26.9022 31.5997 26.7707ZM31.8457 25.1187C31.57 25.1187 31.3537 25.0614 31.3537 24.9745C31.3537 24.9023 31.4109 24.8302 31.483 24.8302C31.5551 24.8302 31.816 24.6563 32.062 24.4527C32.484 24.1049 32.5116 24.0901 32.5116 24.3679C32.5116 24.932 32.3525 25.1208 31.8436 25.1208L31.8457 25.1187ZM31.6442 23.8292C31.6442 23.7423 31.5148 23.6702 31.3388 23.6702C30.9465 23.6702 31.0631 24.018 31.4703 24.0774C32.0493 24.1622 31.8033 24.3955 31.1374 24.3955C30.6305 24.3955 30.5139 24.44 30.5732 24.6139C30.6878 24.9045 30.5584 24.8875 30.2678 24.5991C30.1067 24.4252 30.0791 24.3085 30.1809 24.2089C30.3845 24.0053 30.3845 23.5281 30.2106 23.5281C30.1236 23.5281 30.0346 23.5854 29.9943 23.6575C29.8776 23.8335 29.182 23.948 29.182 23.8017C29.182 23.7296 29.2838 23.6723 29.4005 23.6723C29.5171 23.6723 29.6168 23.6151 29.6168 23.5281C29.6168 23.369 30.9931 23.3542 31.8499 23.5005C32.1553 23.5578 32.4013 23.6744 32.4013 23.7465C32.3737 23.948 31.6485 24.0201 31.6485 23.8335L31.6442 23.8292ZM31.2095 22.9449C31.2095 22.8728 31.2964 22.8007 31.3982 22.8007C31.6887 22.8007 32.4861 21.9015 32.6028 21.4519C32.6452 21.2335 32.7173 21.0765 32.7618 21.1168C32.8636 21.2186 32.4861 22.4083 32.2401 22.7562C32.0069 23.0891 31.2095 23.2354 31.2095 22.9449ZM31.8457 10.9818C31.6294 10.8206 31.6145 10.7782 31.8033 10.7633C31.9178 10.7633 32.1511 10.8651 32.3101 10.9818C32.5264 11.1408 32.5413 11.1832 32.3525 11.1981C32.238 11.1981 32.0047 11.0963 31.8457 10.9818ZM31.9623 11.8513C31.9623 11.9234 31.8902 12.0103 31.8033 12.04C31.7163 12.0676 31.6442 11.9806 31.6442 11.8513C31.6442 11.7219 31.7163 11.6328 31.8033 11.6625C31.8902 11.6901 31.9623 11.7792 31.9623 11.8513ZM32.3695 17.7957C32.2677 17.9124 32.168 18.0142 32.1511 18.0142C32.1341 18.0142 32.0344 17.9124 31.9348 17.7957C31.7757 17.607 31.8181 17.5794 32.1511 17.5794C32.484 17.5794 32.5286 17.607 32.3695 17.7957ZM31.9348 8.41565C31.2985 8.11026 31.0801 7.95121 31.254 7.90879C31.5 7.83669 32.7046 8.46019 32.8785 8.73589C32.9951 8.92463 33.0227 8.93736 31.9348 8.41777V8.41565ZM31.3537 9.53117C31.483 9.61812 31.483 9.67538 31.3388 9.76445C31.2095 9.83655 31.4555 9.89381 31.9772 9.89381C32.5286 9.89381 32.7746 10.0295 32.7152 10.301C32.6579 10.5173 32.6007 10.7082 32.5858 10.7358C32.571 10.7485 32.2953 10.6764 31.9772 10.5619C31.4406 10.3731 31.3982 10.3731 31.4109 10.5894C31.4109 10.7188 31.3261 10.8503 31.1946 10.88C30.991 10.9075 30.9635 10.8079 30.991 10.2565C31.0356 9.51632 31.1077 9.38696 31.3537 9.53117ZM31.0631 11.9085C31.0631 12.0973 30.8298 12.2288 30.7153 12.1121C30.5563 11.9531 30.6284 11.7792 30.8447 11.7792C30.9613 11.7792 31.061 11.8364 31.061 11.9085H31.0631ZM30.9486 13.1407C31.2391 13.1852 31.6442 13.1704 31.8626 13.0834C32.0811 12.9965 32.2826 12.9541 32.3122 12.9816C32.3547 13.0113 32.325 13.5903 32.2677 14.2583C32.19 15.0699 31.963 15.2098 31.5869 14.6782C30.3103 12.8819 30.3824 13.0262 30.9486 13.1407ZM31.7609 16.1012C31.7884 16.1861 31.746 16.2751 31.6739 16.2751C31.6018 16.2751 31.5 16.4045 31.4576 16.5657C31.3558 16.9729 31.167 16.9283 30.8786 16.4363C30.7493 16.203 30.6326 15.9867 30.6326 15.9422C30.6326 15.798 31.7057 15.9295 31.763 16.1012H31.7609ZM27.1207 19.4923C27.337 19.7108 27.8014 20.0161 28.1641 20.1731C28.5267 20.3321 29.0187 20.6227 29.252 20.8263C29.6868 21.2038 29.7165 21.2928 29.3241 21.0744C29.2075 21.0023 28.8745 20.9153 28.584 20.8581C28.2934 20.8135 27.7569 20.5675 27.3815 20.3194C26.8747 19.9716 26.7135 19.7829 26.7135 19.4923C26.7135 19.2421 26.8492 19.2421 27.1207 19.4923ZM27.5109 25.4962C27.9456 25.3795 28.1068 25.4516 27.9456 25.6828C27.8438 25.8715 27.583 25.8864 27.3221 25.7125C27.1779 25.6255 27.2203 25.5683 27.5109 25.4962ZM22.3935 36.312C22.4211 36.2399 23.7423 35.0226 25.3371 33.6017C26.9319 32.1808 28.76 30.5563 29.3962 29.9921C30.0324 29.4259 30.7153 28.8321 30.9189 28.673C31.1607 28.4892 31.1607 28.5232 30.9189 28.7748C30.2827 29.428 22.525 36.4307 22.4359 36.4307C22.3787 36.4307 22.3638 36.3735 22.3914 36.3141L22.3935 36.312ZM30.3824 32.9336C30.1491 32.7025 29.6147 33.2963 29.6147 33.7607C29.6147 33.9622 29.5426 34.2527 29.4704 34.4139C29.3114 34.7044 28.8915 34.8062 28.8915 34.5433C28.8915 34.4712 28.9933 34.3991 29.1099 34.3991C29.2266 34.3991 29.3262 34.2697 29.3262 34.1085C29.3262 33.9473 29.2393 33.818 29.1248 33.818C29.0102 33.818 28.8915 33.731 28.8491 33.6165C28.7473 33.3684 29.3856 32.7321 29.6019 32.8764C29.6889 32.9209 29.9497 32.8318 30.1809 32.6749C30.4142 32.4989 30.6453 32.3695 30.6878 32.3695C30.8192 32.3695 30.6305 33.4278 30.4714 33.5868C30.27 33.8201 30.1385 33.5592 30.3421 33.3132C30.4714 33.1521 30.4863 33.0375 30.3866 32.9357L30.3824 32.9336ZM29.9773 32.5286C29.8161 32.6155 29.9476 32.4564 30.2678 32.1659C30.586 31.8902 30.921 31.659 30.9931 31.659C31.167 31.659 30.3972 32.3122 29.9794 32.5286H29.9773ZM32.2677 38.56C32.0217 38.4582 31.7609 38.3415 31.7015 38.2843C31.6442 38.2122 31.4109 38.1676 31.1798 38.1676C30.9613 38.1676 30.7726 38.0955 30.7726 38.0234C30.7726 37.9365 30.6135 37.718 30.4099 37.5441C30.077 37.2536 30.0621 37.1518 30.1491 36.3989C30.2509 35.3682 30.482 35.2961 30.482 36.2674C30.482 36.9503 30.5266 37.0224 31.1776 37.5717C32.062 38.3394 32.2656 38.3267 31.5679 37.5717C31.1904 37.1518 31.061 36.8909 31.1034 36.6598C31.148 36.5007 31.2201 36.1932 31.2773 35.9917C31.3643 35.6588 31.3494 35.6439 31.1607 35.8899C30.8256 36.2823 30.7683 36.1932 30.7853 35.311C30.798 34.5433 30.8129 34.5136 30.9295 34.9483C31.1034 35.5124 31.3219 35.5421 31.4364 35.0204C31.6527 34.0343 31.6675 34.0046 31.799 34.3672C31.8711 34.556 31.8563 35.1646 31.7693 35.7881C31.6824 36.3968 31.6548 36.9334 31.7121 36.9758C31.8414 37.1051 32.0747 36.7001 32.0747 36.3374C32.0747 36.1359 32.1914 35.9896 32.3801 35.9472C32.6113 35.8899 32.6707 35.803 32.5837 35.5994C32.3801 35.1498 31.9305 33.7713 31.9305 33.6419C31.9305 33.5826 31.9878 33.5253 32.0599 33.5253C32.3207 33.5253 32.9167 35.7585 32.8446 36.4986C32.7852 37.1348 32.817 37.2515 33.1203 37.4254C33.2942 37.542 33.6992 37.629 34.0046 37.6014C34.2951 37.5865 34.5412 37.629 34.5412 37.7159C34.5412 37.9195 34.0767 38.0489 33.9177 37.8919C33.8159 37.7901 33.6865 37.7901 33.5105 37.8771C33.1478 38.0786 32.8149 37.9047 32.7131 37.4847C32.5837 36.9779 32.3377 37.296 32.395 37.8919C32.4395 38.3394 32.4819 38.3839 32.9909 38.4285C33.2814 38.456 33.4977 38.5303 33.4553 38.6172C33.3387 38.7911 32.8467 38.7614 32.2656 38.5578L32.2677 38.56ZM33.239 39.9533C32.9633 39.8218 32.8043 39.7073 32.8912 39.6628C33.0503 39.6034 34.1085 40.0106 34.1085 40.1272C34.1085 40.2566 33.7607 40.1845 33.239 39.9533ZM34.5284 40.1993C34.2966 40.0155 34.2824 39.9187 34.486 39.9088C34.8041 39.9088 35.8475 40.3011 35.8475 40.4156C35.8475 40.6192 34.8169 40.4453 34.5284 40.1993ZM35.1668 39.474C35.3852 39.474 35.7903 39.72 35.7033 39.807C35.6588 39.8515 35.487 39.8197 35.311 39.7476C34.9483 39.6182 34.8762 39.4719 35.1668 39.4719V39.474ZM34.8062 39.2407C34.5157 39.2704 34.24 39.2704 34.1976 39.228C34.0534 39.0838 34.0958 38.4879 34.2549 38.3861C34.3418 38.3415 34.3991 38.4306 34.3991 38.5897C34.3991 38.8378 34.486 38.895 34.819 38.895C35.4425 38.895 35.7033 38.5621 35.7033 37.7201C35.7033 37.0097 35.6015 36.8803 35.3258 37.156C35.224 37.2578 34.9929 37.2281 34.6005 37.0691C33.8328 36.751 33.6017 36.5622 33.8328 36.4159C33.9622 36.3438 33.9198 36.1974 33.6886 35.9239C33.5296 35.7054 33.3832 35.417 33.3832 35.2855C33.3832 35.1413 33.2963 34.9526 33.2093 34.8359C33.0651 34.6769 33.0778 34.6769 33.2942 34.8359C33.6568 35.1116 34.1509 36.242 34.0194 36.4604C33.9473 36.5771 33.9919 36.5919 34.1637 36.5325C34.5136 36.3883 35.2092 36.5771 34.9611 36.7361C34.802 36.8231 34.8168 36.8655 35.0204 36.9376C35.1498 36.9949 35.3555 36.9376 35.4849 36.8082C35.9642 36.3289 36.1381 36.5177 36.1381 37.489C36.1381 39.0393 36.1105 39.0689 34.8041 39.2428L34.8062 39.2407ZM35.7182 31.1522C35.9048 31.2095 36.1826 31.254 36.312 31.237C36.4435 31.237 36.6301 31.324 36.734 31.4406C36.821 31.5551 36.8485 31.6272 36.7764 31.6272C36.7043 31.6145 36.3862 31.5551 36.0829 31.5127C35.7627 31.4682 35.487 31.3367 35.4446 31.2222C35.4001 31.078 35.4722 31.0631 35.7203 31.1501L35.7182 31.1522ZM35.1816 29.9031C35.0671 29.9031 34.9801 29.8458 34.9801 29.7589C34.9801 29.6868 35.1095 29.6146 35.2855 29.6146C35.4446 29.6146 35.5315 29.6868 35.4891 29.7589C35.4446 29.8458 35.3004 29.9031 35.1837 29.9031H35.1816ZM36.3417 31.7884C36.9079 31.7884 37.1836 32.1808 36.6767 32.2529C36.3862 32.2974 36.401 32.3398 36.8655 32.6304C37.4169 32.9782 37.1985 33.0375 36.5325 32.747C35.7203 32.3843 35.6058 31.7884 36.3438 31.7884H36.3417ZM37.0521 28.4694C37.3872 28.5416 37.9513 29.4132 37.7329 29.5425C37.6608 29.5871 37.5441 29.5129 37.4869 29.3686C37.4423 29.2244 37.2706 28.9466 37.0967 28.76C36.821 28.4546 36.821 28.427 37.0521 28.4694ZM36.4011 33.0651C37.0967 33.572 37.067 33.5868 35.8348 33.3832C35.2558 33.2814 34.2549 32.8912 34.2549 32.747C34.2549 32.7173 34.6323 32.7173 35.0968 32.7173C35.7203 32.7321 36.0532 32.8339 36.4011 33.0672V33.0651ZM34.5433 34.7469C34.5433 34.8783 34.1361 34.8487 34.064 34.7341C34.0364 34.662 33.9622 34.4287 33.9049 34.1976C33.8371 33.9162 33.9233 33.9254 34.1637 34.2252C34.3821 34.4563 34.5412 34.7044 34.5412 34.7469H34.5433ZM34.6175 35.1244C34.5454 34.995 34.5602 34.9653 34.6748 35.0374C34.7617 35.0968 34.8062 35.2134 34.7617 35.2855C34.7044 35.3576 34.7172 35.4149 34.7914 35.4149C34.8508 35.4149 35.0247 35.5888 35.1689 35.7775C35.5888 36.3565 35.1244 36.2271 34.5305 35.6185C34.0831 35.1413 34.0661 35.0968 34.3863 35.1986C34.6472 35.2707 34.7066 35.2558 34.6196 35.1265L34.6175 35.1244ZM36.5898 36.1381C36.5177 36.1381 36.3565 36.1656 36.2568 36.2102C36.1402 36.2547 35.9218 36.1381 35.7627 35.9642C34.8359 34.8911 34.1382 33.818 34.3715 33.818C34.5305 33.818 35.4297 34.8911 35.6906 35.3852C35.7924 35.574 36.0532 35.7479 36.3014 35.8051C36.6767 35.8772 36.91 36.1381 36.5919 36.1381H36.5898ZM35.1095 33.9643C35.3258 33.9643 36.3141 35.241 36.2568 35.4297C36.2293 35.5167 35.9218 35.2261 35.5888 34.7765C35.241 34.3269 35.0374 33.9643 35.1095 33.9643ZM36.5177 34.978C36.4159 34.978 36.2271 34.8614 36.1105 34.732C35.9939 34.5878 35.8497 34.3545 35.8051 34.2252C35.7606 34.0937 35.47 33.8477 35.1668 33.6886C34.6451 33.3981 34.6451 33.3832 35.0501 33.4723C35.4997 33.5571 36.4435 34.1382 36.7319 34.4881C36.9058 34.7044 36.7891 34.9801 36.5156 34.9801L36.5177 34.978ZM36.8485 34.24C36.6174 33.7925 36.9503 33.4871 37.2409 33.8774C37.3554 34.0364 37.4423 34.2548 37.4423 34.3566C37.4423 34.662 37.0351 34.573 36.8464 34.24H36.8485ZM37.3999 30.745C37.4593 30.4693 37.5738 30.3378 37.7477 30.3378C37.9068 30.3378 38.0234 30.3527 38.0234 30.3824C38.0234 30.3951 38.0807 30.6284 38.1528 30.8892C38.297 31.3812 38.1401 31.5254 37.8919 31.1055C37.7604 30.8723 37.7159 30.8723 37.6014 31.061C37.3978 31.3515 37.3108 31.2052 37.3978 30.7429L37.3999 30.745ZM41.4315 34.7044C41.4887 34.4563 41.5926 34.2824 41.6647 34.3418C42.0698 34.5878 41.4315 35.8496 40.897 35.8496C40.6065 35.8496 40.6065 35.8348 40.9543 35.5167C41.1579 35.3279 41.3763 34.9653 41.4336 34.7044H41.4315ZM40.3011 33.1669C40.0106 32.9654 39.7646 32.7321 39.7646 32.66C39.7646 32.4268 39.9978 32.501 40.2714 32.8043C40.562 33.1372 40.9246 33.1817 41.1855 32.9209C41.4166 32.6876 41.5036 32.8191 41.4018 33.2114C41.3 33.6313 40.967 33.6186 40.299 33.1669H40.3011ZM40.4729 31.2095C40.1696 31.2095 40.1696 31.237 40.6319 31.6887C40.9515 31.9984 40.8497 32.1772 40.3265 32.2253C39.1092 32.3419 39.211 32.7321 40.7337 33.9219C41.2851 34.3566 40.8652 34.3439 40.1548 33.9092C39.8367 33.7204 39.4592 33.3429 39.3001 33.0821C39.1064 32.764 39.1213 32.4013 39.3446 31.9941C39.5185 31.6612 39.6776 31.1246 39.6776 30.8214C39.6924 30.3145 39.7221 30.27 40.0551 30.3145C40.2566 30.3421 40.7952 30.5753 41.2724 30.8214C41.9404 31.184 42.1737 31.4152 42.3307 31.8372C42.636 32.5901 42.4324 32.6919 41.8959 32.0684C41.3742 31.4597 40.9522 31.2137 40.475 31.2137L40.4729 31.2095ZM40.2269 35.0798C40.0678 35.3258 38.9502 35.4849 38.8208 35.2834C38.6766 35.0353 39.0244 34.6875 39.4167 34.6875C39.6034 34.6875 39.8218 34.5581 39.9088 34.3969C39.9957 34.2358 40.1272 34.1064 40.1993 34.1064C40.3732 34.1064 40.3881 34.8317 40.2269 35.0777V35.0798ZM38.6194 33.0651C38.0531 32.2953 38.0086 32.1808 38.1973 31.9772C38.4009 31.7884 38.4306 31.8181 38.5154 32.2529C38.56 32.5137 38.7763 32.9782 38.9947 33.2687C39.6034 34.1679 39.3128 33.994 38.6194 33.0672V33.0651ZM44.5341 37.1391C44.7229 36.98 44.9116 36.8931 44.9561 36.9355C45.0728 37.0521 44.6656 37.4423 44.4196 37.4423C44.2436 37.4275 44.2605 37.3702 44.5341 37.1369V37.1391ZM43.461 37.0097C43.8809 37.0097 43.6646 37.226 42.8375 37.6332C41.9383 38.0679 41.7941 38.0976 41.7941 37.8792C41.7941 37.7201 43.1429 37.0097 43.461 37.0097ZM42.6212 36.9206C42.3179 37.1242 41.968 37.2981 41.8514 37.2981C41.7347 37.2981 41.6054 37.4869 41.5481 37.7329C41.4887 38.0234 41.3148 38.2567 41.054 38.4009C40.8228 38.5154 40.6341 38.7042 40.6341 38.8208C40.6341 39.1389 40.4453 39.1835 39.7794 39.0096C39.2725 38.8781 39.0689 38.8929 38.6618 39.0944C38.068 39.3701 38.0255 39.3701 38.0255 39.1813C38.0255 39.1092 38.1273 39.0371 38.2588 39.0371C38.3903 39.0371 38.736 38.8632 39.0562 38.6448C39.6055 38.2397 39.7667 38.0213 39.4761 38.0213C39.2874 38.0213 39.2874 37.3978 39.491 37.1942C39.7667 36.9185 39.4316 36.8888 38.7233 37.1221C37.9704 37.3533 37.8962 37.4847 38.2588 37.8898C38.5048 38.1655 38.4179 38.4539 38.0828 38.4539C37.9534 38.4539 37.8813 38.2949 37.8813 37.9746C37.8813 37.7138 37.8092 37.4232 37.7074 37.3214C37.5908 37.2048 37.5908 37.1051 37.7201 36.9461C37.8368 36.8019 37.8516 36.7128 37.735 36.6407C37.6629 36.5962 37.5908 36.4816 37.5908 36.3947C37.5908 36.3077 37.7202 36.3501 37.8813 36.4965C38.1146 36.7128 38.3161 36.7425 39.0414 36.6704C39.8685 36.5834 39.9109 36.5834 39.9109 36.9037C39.9109 37.5993 40.1442 37.6586 40.6362 37.0924C40.897 36.8019 41.2003 36.5686 41.3318 36.5686C41.5205 36.5686 41.5057 36.6258 41.2597 36.9015C40.738 37.4805 40.7231 37.6714 41.2597 37.1624C41.652 36.7997 41.9404 36.6683 42.477 36.611C42.9407 36.5629 42.9888 36.664 42.6212 36.9143V36.9206ZM46.5213 26.4971C45.955 26.7007 45.3739 26.8598 45.217 26.845C45.041 26.845 45.3018 26.7156 45.7811 26.5544C47.1299 26.1345 47.6368 26.09 46.5213 26.4971ZM52.0161 24.3934C52.3066 24.0753 52.4657 24.1028 52.3342 24.4655C52.277 24.5821 52.1306 24.6839 51.9991 24.6839C51.768 24.6839 51.768 24.6563 52.014 24.3934H52.0161ZM51.5093 23.8568C51.6683 23.6532 51.7998 23.5514 51.7998 23.6405C51.7998 23.8144 51.2357 24.51 51.2208 24.351C51.2208 24.2788 51.3502 24.0604 51.5114 23.8589L51.5093 23.8568ZM51.276 25.8885C51.4371 26.4823 51.6535 26.4675 51.6535 25.8885C51.6535 25.4834 51.8867 25.4537 51.9864 25.844C52.0882 26.2066 51.7977 27.004 51.5644 27.004C51.4626 27.004 51.2887 27.0485 51.1593 27.091C51.0151 27.1482 50.8985 27.091 50.8391 26.9467C50.7967 26.8153 50.7967 26.4972 50.8391 26.2363C50.926 25.8015 50.8985 25.7443 50.6079 25.757C50.4043 25.7719 50.275 25.6849 50.275 25.5555C50.275 25.4113 50.4192 25.3371 50.6949 25.3371C51.0575 25.3371 51.1445 25.4092 51.2738 25.8885H51.276ZM49.8402 23.3945C49.8975 23.35 50.0014 23.4369 50.0862 23.596C50.1732 23.7423 50.4489 24.0604 50.6949 24.2767C51.0724 24.6266 51.1169 24.7115 50.9282 24.8281C50.6525 25.002 50.5358 25.002 50.4213 24.8281C50.3768 24.756 50.3768 24.6118 50.4213 24.5376C50.4786 24.4506 50.3492 24.1898 50.1308 23.9416C49.9293 23.6808 49.7978 23.4496 49.8402 23.3924V23.3945ZM50.2029 24.7136C50.2029 24.8875 50.1583 24.8727 49.6239 24.4676C49.3482 24.2661 49.0449 24.1049 48.9431 24.1049C48.7396 24.1049 48.6971 23.931 48.8413 23.772C48.9559 23.6702 50.2029 24.5249 50.2029 24.7136ZM49.0428 22.6395C49.0428 23.0318 48.6653 23.5239 48.3748 23.5239C48.3027 23.5239 48.1161 23.4369 47.9549 23.35C47.7937 23.263 47.6495 23.1761 47.6198 23.1612C47.6071 23.1464 47.6919 22.8558 47.8085 22.508C48.027 21.8718 48.1139 20.4212 47.8955 20.9853C47.7937 21.2186 47.764 21.1741 47.6792 20.7117C47.5477 20.0586 47.6071 19.9716 47.9973 20.1731C48.3303 20.3491 49.0407 22.0287 49.0407 22.6374L49.0428 22.6395ZM46.8691 23.8292C46.9857 23.8292 47.2466 23.9162 47.448 24.0328C47.6495 24.1495 47.7237 24.2343 47.5922 24.2343C47.4756 24.2343 47.2147 24.1474 47.0133 24.0328C46.8118 23.9162 46.7376 23.8292 46.8691 23.8292ZM46.5213 22.6692C46.2307 22.349 46.3028 21.9291 46.7376 21.3649C46.8966 21.1762 47.0133 20.9302 47.0133 20.8263C47.0133 20.7117 47.0854 20.6248 47.1575 20.6248C47.2593 20.6248 47.3017 21.0447 47.2741 21.7403C47.2296 22.9725 47.0281 23.2185 46.5213 22.6692ZM47.3483 23.7423C47.2169 23.3797 47.378 23.35 47.6665 23.6702C47.9125 23.931 47.9125 23.9607 47.6813 23.9607C47.5498 23.9607 47.4056 23.8589 47.3462 23.7444L47.3483 23.7423ZM48.6802 18.7395C48.7374 18.8412 48.6356 18.8561 48.3621 18.7967C48.092 18.7289 48.0772 18.7967 48.3175 19.0003C48.6081 19.2463 48.6505 19.3481 48.519 19.5517C48.3451 19.8422 48.186 19.9143 47.9103 19.7977C47.5922 19.6662 47.4183 19.2018 47.5922 18.8837C47.7661 18.5656 48.519 18.4765 48.6802 18.7395ZM46.8542 15.2593C46.8987 15.2593 47.0705 15.3611 47.2169 15.4756C47.4926 15.6792 47.4926 15.6941 47.2317 15.9825C46.9581 16.2879 46.4343 16.3897 46.4343 16.1267C46.4343 15.9252 46.7524 15.2572 46.8542 15.2572V15.2593ZM47.1299 17.6812C47.3908 17.8699 47.5647 18.1032 47.5201 18.1753C47.3759 18.3938 47.2593 18.3195 46.7227 17.6812C46.1989 17.0725 46.3028 17.0725 47.1299 17.6812ZM47.1151 19.2187C47.1596 19.276 47.1744 19.3205 47.1426 19.3057C47.1151 19.293 46.8818 19.2484 46.6358 19.1912C46.0992 19.0597 45.8532 18.9155 45.8532 18.7416C45.8532 18.6122 46.9115 19.0321 47.1151 19.2209V19.2187ZM45.8256 20.1752C46.042 19.7829 46.2604 19.4647 46.3049 19.4647C46.3622 19.4647 46.4491 19.6386 46.4916 19.8422C46.5637 20.1328 46.5064 20.2918 46.2328 20.5527C45.8702 20.8857 45.7535 21.1889 45.6814 22.0033C45.6539 22.3511 45.6221 22.3808 45.5372 22.1772C45.3188 21.6406 45.4206 20.8729 45.8278 20.1752H45.8256ZM45.709 24.1049C45.9211 23.3994 46.1141 23.1966 46.288 23.4963C46.6209 24.0477 47.9273 24.7412 48.3896 24.6266C48.7968 24.5249 49.1446 24.8578 48.8689 25.0762C48.6653 25.2205 46.956 25.7443 45.8681 25.9754C45.4524 26.0631 45.2686 25.9521 45.3167 25.6425C45.3612 25.3816 45.5351 24.6839 45.709 24.1049ZM45.1576 22.0733C45.4036 22.0733 45.2743 23.6978 44.9986 24.1601C44.8543 24.4082 44.6508 24.8557 44.549 25.1611C44.462 25.4516 44.3157 25.6976 44.2436 25.6976C44.1715 25.6976 44.1142 25.4516 44.1142 25.1611C44.1142 24.2046 44.8395 22.0733 45.1576 22.0733ZM44.1142 19.9143C44.1142 19.7701 44.5638 19.4647 44.7674 19.4647C44.9265 19.4647 44.6953 19.7553 44.3899 19.8995C44.216 20.0013 44.1142 20.0013 44.1142 19.9143ZM42.6785 18.7395C42.8375 18.7395 42.9245 18.8116 42.8799 18.8837C42.8354 18.9706 42.6912 19.0279 42.5745 19.0279C42.4579 19.0279 42.3731 18.9706 42.3731 18.8837C42.3731 18.8116 42.5024 18.7395 42.6785 18.7395ZM40.6489 23.3075C40.967 23.0743 41.3297 22.6119 41.5926 22.103C41.809 21.6555 42.1143 21.1889 42.2586 21.0871C42.4028 20.9853 42.5194 20.8114 42.5194 20.7245C42.5194 20.4064 43.5501 19.4775 44.2881 19.1C45.0855 18.6928 45.13 18.6801 45.13 18.854C45.13 18.9112 44.7377 19.2442 44.2605 19.592C43.0284 20.4912 42.9987 20.5506 43.0729 22.5504C43.1302 24.001 43.1578 24.2173 43.3189 24.001C43.6243 23.579 43.724 23.8844 43.5352 24.6669C43.4186 25.1611 43.2892 25.4071 43.1429 25.4071C42.9542 25.4071 42.9393 25.5661 43.0263 26.3508C43.0941 27.0379 42.7894 27.3186 42.1122 27.1928C41.8365 27.1334 41.7793 27.0613 41.8514 26.8153C42.0846 26.0454 42.1122 25.5386 41.9532 25.3519C41.8217 25.1929 41.8217 25.0169 42.0104 24.6118C42.1271 24.3064 42.2289 23.685 42.214 23.1761C42.214 22.6968 42.1716 22.3914 42.1271 22.508C42.0825 22.6247 41.8217 23 41.5608 23.3351C41.0964 23.8865 41.0688 24.0159 41.0243 25.0911C40.9967 26.0624 41.0391 26.2957 41.2703 26.5544C41.6202 26.9467 41.5311 26.9319 40.721 26.5417C40.2714 26.3232 40.1102 26.179 40.1972 26.0624C40.2693 25.9754 40.2841 25.4241 40.212 24.7857C40.1442 24.042 40.2891 23.5493 40.6468 23.3075H40.6489ZM39.228 24.7284C39.2577 25.0635 39.3446 25.4537 39.4019 25.598C39.5185 25.8736 39.4019 25.9012 38.9375 25.6701C38.6915 25.5534 38.6045 25.3795 38.6045 25.0317C38.6045 23.9756 39.0965 23.7275 39.228 24.7284ZM38.7211 25.844C38.9375 25.844 40.3456 26.7283 40.3456 26.8598C40.3456 27.0931 40.0403 27.0189 39.3022 26.6265C38.9099 26.4399 38.6066 26.179 38.6066 26.0624C38.6066 25.9458 38.6512 25.844 38.7233 25.844H38.7211ZM38.7487 27.7293C39.8791 28.2934 40.7359 28.9466 40.8504 29.3241C40.967 29.7164 41.213 29.6868 41.213 29.2965C41.213 29.1226 40.967 28.76 40.6616 28.4694C40.3435 28.1789 39.9809 27.7738 39.8367 27.5554C39.6182 27.1928 39.6034 27.1482 39.8218 27.1482C39.9533 27.1482 40.1993 27.3942 40.3881 27.6996C40.8355 28.3952 42.0401 29.5129 42.2437 29.3962C42.3307 29.339 42.2713 29.1226 42.0847 28.8321C41.6351 28.0771 41.7665 27.4685 42.3603 27.6572C42.723 27.7738 42.7527 27.9626 42.4473 28.2659C42.1716 28.5267 42.2734 28.9466 42.7527 29.5129C43.0856 29.9052 43.0856 30.3399 42.7654 30.3399C42.6636 30.3399 42.7803 30.499 42.9987 30.7026C43.2171 30.9041 43.391 31.1373 43.391 31.2095C43.391 31.3834 43.4186 31.3982 42.8545 31.0207C42.5936 30.8468 42.39 30.6284 42.3752 30.5287C42.3752 30.4269 42.1292 30.2954 41.8386 30.2106C40.8377 29.9625 39.8367 29.7313 39.474 29.6443C39.1411 29.5722 39.1262 29.5871 39.3298 29.8331C39.5313 30.0664 39.5185 30.0791 39.228 29.9921C39.0541 29.9328 38.8802 29.9625 38.8208 30.0494C38.719 30.2085 38.4582 30.1067 38.4582 29.8903C38.4582 29.8182 38.5875 29.761 38.7487 29.761C39.1559 29.761 39.1114 29.5001 38.6915 29.3835C38.1676 29.2541 37.6332 28.6455 37.8495 28.427C38.1252 28.1513 38.051 27.759 37.6608 27.4981C37.4593 27.3688 37.2981 27.1652 37.2981 27.0337C37.2981 26.8322 37.3257 26.8322 37.559 27.0337C37.6883 27.1652 38.2249 27.4685 38.7466 27.7293H38.7487ZM37.0245 22.9004C36.5898 22.7413 36.2993 22.5822 36.3862 22.5526C36.4583 22.525 36.9376 22.6692 37.4593 22.8558C37.9662 23.0594 38.2567 23.2185 38.0976 23.2185C37.9386 23.2185 37.4593 23.0743 37.0245 22.9004ZM37.7626 25.6107C37.6777 25.6552 37.4296 25.5386 37.1984 25.335C36.9376 25.1017 36.8655 24.9872 37.0097 24.9872C37.3278 24.9723 37.9513 25.494 37.7626 25.6086V25.6107ZM36.0957 23.9586C36.1975 23.9586 36.4583 24.1177 36.6746 24.3213C37.1963 24.7857 36.9206 24.7857 36.3565 24.3213C36.1232 24.1177 35.9939 23.9586 36.0957 23.9586ZM36.0236 29.7313C36.0681 29.6295 36.2123 29.5129 36.3417 29.498C36.5177 29.4535 36.5898 29.5129 36.5453 29.6422C36.5007 29.744 36.3565 29.8607 36.2271 29.8755C36.0511 29.92 35.979 29.8607 36.0236 29.7313ZM36.1105 30.1936C36.2696 30.2085 36.7467 30.9189 36.5898 30.9189C36.5177 30.9189 36.3417 30.8171 36.2271 30.6856C35.979 30.4545 35.9218 30.1936 36.1105 30.1936ZM35.2262 28.7876C35.6906 28.4101 35.8497 28.3655 35.8497 28.6433C35.8497 28.9615 35.6482 29.1226 35.2262 29.1078C34.9547 29.1078 34.9547 29.0018 35.2262 28.7897V28.7876ZM35.6164 32.3843C35.5146 32.5582 35.2834 32.5434 34.7045 32.2825C34.4288 32.168 34.2548 32.0365 34.2973 31.9793C34.4266 31.8478 35.7182 32.2401 35.6164 32.3865V32.3843ZM34.5878 29.7164C34.5157 30.2106 33.9643 31.0652 33.9643 30.6877C33.9643 30.6156 34.0364 30.4714 34.1382 30.3696C34.2697 30.2403 34.2549 30.1533 34.081 30.0218C33.8774 29.8479 33.8922 29.8034 34.2549 29.5001C34.5348 29.2782 34.6458 29.351 34.5878 29.7186V29.7164ZM34.2379 24.2492C34.6005 24.264 34.5857 24.2767 33.977 24.8281C33.1648 25.5683 33.0036 25.5683 33.4829 24.8281C33.7734 24.3934 33.9622 24.2492 34.2358 24.2492H34.2379ZM34.3418 18.362C34.3842 18.4934 34.327 19.0448 34.1976 19.5814C34.0809 20.1179 33.907 21.1317 33.8201 21.857C33.7331 22.5674 33.6186 23.2206 33.5592 23.3075C33.4871 23.4369 33.2835 23.4242 32.8064 23.3075C32.3709 23.1916 32.3518 22.9449 32.7491 22.5674C33.5317 21.8294 33.765 21.1762 33.9219 19.2484C33.994 18.3344 34.1827 17.9442 34.3439 18.3641L34.3418 18.362ZM34.7469 13.5776C34.573 14.0272 34.3991 13.796 34.3991 13.1428C34.3991 12.5638 34.4266 12.4896 34.6175 12.6508C34.8508 12.8395 34.8911 13.2022 34.7469 13.5776ZM35.4149 12.5766C35.3279 12.6338 35.2707 12.3878 35.2707 11.9234C35.2707 11.4589 35.3279 11.2129 35.4149 11.2702C35.5018 11.3147 35.5591 11.618 35.5591 11.9234C35.5591 12.2288 35.5018 12.532 35.4149 12.5766ZM35.8497 11.6349C35.7775 11.6349 35.7054 11.4759 35.7054 11.2723C35.7054 11.0687 35.7775 10.9097 35.8497 10.9097C35.9366 10.9097 35.9939 11.0687 35.9939 11.2723C35.9939 11.4759 35.9366 11.6349 35.8497 11.6349ZM36.8358 8.6765C37.3151 8.79102 37.5887 9.11126 37.5887 9.56086C37.5887 10.0105 37.5611 9.98289 37.2557 9.47391C37.1115 9.22578 36.8803 8.99462 36.7192 8.9522C36.2696 8.80587 36.3714 8.57471 36.8358 8.6765ZM35.0947 9.15367C35.5591 8.73376 35.574 8.73377 36.1105 8.9522C36.7192 9.19821 37.1094 9.62024 37.2409 10.1398C37.3851 10.7188 37.0076 10.8503 35.9048 10.634C35.6461 10.5894 35.2834 10.3434 35.0353 10.055C34.7652 9.72557 34.785 9.42584 35.0947 9.15579V9.15367ZM34.8338 10.2565C35.2262 10.6764 35.1816 10.7782 34.5433 10.793C34.2336 10.8029 34.1128 11.0206 34.1806 11.4462C34.2676 12.0124 34.2103 12.2436 34.064 11.9679C34.0364 11.8958 33.9198 11.5459 33.818 11.1557C33.6165 10.4176 33.3832 10.1271 33.3832 10.6043C33.3832 10.7803 33.326 10.9097 33.239 10.9097C33.1669 10.9097 33.0948 10.7506 33.0948 10.547C33.0948 9.83655 34.2548 9.64781 34.8338 10.2565ZM32.6749 7.28529C32.9061 7.28529 33.4871 7.82184 33.3705 7.93848C33.3281 7.96817 33.1096 7.83669 32.8785 7.64794C32.5731 7.40194 32.5158 7.30014 32.6749 7.28529ZM32.325 6.29703C32.571 6.55788 32.4416 6.67452 31.9772 6.58757C31.7884 6.56 31.6442 6.47093 31.6442 6.39882C31.6442 6.13797 32.0938 6.08071 32.325 6.29703ZM31.0059 5.47205C31.0631 5.35541 31.1501 5.25362 31.2073 5.25362C31.2646 5.25362 31.3515 5.35541 31.4088 5.47205C31.4682 5.61627 31.3961 5.68837 31.2073 5.68837C31.0186 5.68837 30.9465 5.61627 31.0059 5.47205ZM31.1374 5.92165C31.254 5.97891 31.3537 6.06586 31.3537 6.13797C31.3537 6.21008 31.2519 6.26734 31.1374 6.26734C31.0228 6.26734 30.9189 6.16554 30.9189 6.05102C30.9189 5.92165 31.0059 5.87712 31.1374 5.92165ZM30.2954 5.31088C30.1364 5.15182 30.1788 4.60043 30.3675 4.41168C30.6284 4.15083 30.7747 4.21021 30.7747 4.57074C30.7747 4.96308 30.4566 5.45509 30.2954 5.30876V5.31088ZM30.5117 7.47404C30.7726 7.19834 30.8023 7.09655 30.6432 7.0096C30.5414 6.93749 30.499 6.806 30.5563 6.70421C30.6729 6.51546 31.5551 6.61726 31.9326 6.87811C32.1065 6.97991 32.0768 6.99475 31.8308 6.95022C31.3091 6.83357 31.4406 7.0817 32.1214 7.48677C33.0206 8.02544 33.7162 8.66166 33.6568 8.86525C33.6144 8.98189 33.4829 8.92463 33.2645 8.69135C32.6707 8.053 31.553 7.54615 31.0165 7.64794C30.7705 7.7052 30.4651 7.82184 30.3781 7.89395C30.0727 8.13996 30.1745 7.83669 30.5075 7.47404H30.5117ZM30.0346 10.1398C30.1215 10.0529 30.1936 10.038 30.1936 10.1123C30.1936 10.1695 30.323 10.1123 30.4842 9.96592C30.9189 9.5757 31.0356 9.83655 30.6856 10.4452C30.2954 11.1111 30.0918 11.1832 29.9603 10.6912C29.9031 10.4728 29.9328 10.2416 30.0324 10.1398H30.0346ZM29.5998 12.7505C29.7165 12.6338 29.7589 12.6635 29.7589 12.8523C29.7589 12.9837 29.9476 13.2743 30.1788 13.4906C30.4545 13.7366 30.6432 14.0993 30.7174 14.4619C30.7599 14.78 30.8765 15.1151 30.9486 15.2148C31.1225 15.4311 31.0504 15.7216 30.8468 15.5774C30.6008 15.4035 30.0494 14.5489 30.0494 14.3453C30.0494 14.2435 29.9773 14.0844 29.8755 13.9826C29.744 13.8533 29.744 13.8087 29.8755 13.8087C29.9773 13.8087 30.0494 13.7515 30.0494 13.6645C30.0494 13.5924 29.9625 13.5203 29.8479 13.5203C29.5722 13.5203 29.3983 12.9562 29.5998 12.7526V12.7505ZM28.8894 12.8671C28.9763 12.8098 29.0336 12.9392 29.0336 13.1428C29.0336 13.3464 28.9763 13.5203 28.8894 13.5203C28.8173 13.5203 28.7451 13.3909 28.7451 13.2446C28.7451 13.0855 28.8173 12.9116 28.8894 12.8671ZM28.6858 14.3898C28.7282 14.3898 28.8872 14.4619 29.0484 14.534C29.4535 14.7673 29.3814 14.5192 28.9318 14.1417C28.6709 13.9381 28.5988 13.8236 28.743 13.8236C29.1354 13.8236 29.7589 14.5489 29.7589 14.9963C29.7589 15.0833 29.8458 15.272 29.9476 15.3887C30.1788 15.6644 30.8171 16.7078 30.745 16.7078C30.7174 16.7078 30.6008 16.6208 30.4693 16.519C30.3548 16.4172 30.0494 16.0397 29.7886 15.6771C29.3538 15.0409 28.9466 14.7206 28.7727 14.8945C28.7282 14.9391 28.9169 15.1554 29.1947 15.3866C29.8161 15.9083 29.7016 16.0694 28.9615 15.6919C28.6561 15.5477 28.3528 15.3866 28.2807 15.3738C28.1492 15.3293 28.5416 14.3877 28.6879 14.3877L28.6858 14.3898ZM12.8226 15.8107C12.8671 15.7089 13.041 15.5923 13.2149 15.5774C13.4482 15.5329 13.5352 15.5923 13.4906 15.7216C13.4461 15.8234 13.2722 15.9401 13.0983 15.9549C12.865 15.9994 12.778 15.9401 12.8226 15.8107ZM12.7505 16.9114C12.6932 16.8541 12.6487 16.6802 12.6487 16.536C12.6487 16.3027 12.7356 16.2603 13.128 16.3027C13.4758 16.3303 13.5924 16.4194 13.5924 16.6357C13.5924 16.8393 13.4758 16.9411 13.2298 16.9708C13.0283 16.9983 12.8099 16.9707 12.7505 16.9114ZM12.9392 17.4352C12.9392 17.2168 13.3316 17.1022 13.62 17.2019C13.8363 17.2889 13.8363 17.3186 13.6645 17.4352C13.374 17.6239 12.9392 17.6091 12.9392 17.4352ZM14.1714 18.029C14.0547 18.2029 13.5627 18.2029 13.4461 18.029C13.3443 17.853 13.8957 17.6664 14.0993 17.7957C14.1862 17.853 14.2159 17.9569 14.1714 18.029ZM14.4619 17.5942C14.4174 17.5073 14.4174 17.3461 14.4916 17.2613C14.6082 17.0725 14.5934 16.7968 14.4471 16.1458C14.3898 15.8552 14.3453 15.8255 14.2456 15.9867C14.1735 16.1034 14.1438 16.3494 14.2011 16.5233C14.3029 16.9729 14.042 16.9453 13.8384 16.4957C13.5924 15.974 13.6221 15.9167 14.0272 15.7259C14.5637 15.4799 14.6231 15.5096 14.8097 15.9719C15.13 16.7396 14.8246 18.1775 14.4619 17.5964V17.5942ZM14.9688 15.6665C14.7652 15.4049 14.8472 15.2261 15.2148 15.1299C15.5202 15.043 16.8817 14.7524 18.2305 14.4768C19.5941 14.1862 21.6237 13.7663 22.7689 13.5182C23.8992 13.2849 24.9151 13.0834 25.002 13.0834C25.3074 13.0834 23.3945 14.2286 22.8431 14.3728C22.5377 14.4449 21.5813 14.621 20.6969 14.7503C19.8104 14.8945 18.767 15.1554 18.3323 15.3463C17.9124 15.5329 17.5222 15.6941 17.4479 15.6941C17.3737 15.6941 17.1722 15.8107 16.9835 15.9549C16.7226 16.1437 16.4618 16.1861 15.9549 16.1288C15.4481 16.0716 15.2021 15.9549 14.9688 15.6644V15.6665ZM17.7682 17.2613C17.6367 17.537 17.3779 17.8127 17.1892 17.8848C16.7396 18.0438 15.9698 18.0438 15.711 17.8848C15.6092 17.8127 15.5668 17.6812 15.6241 17.5942C15.6813 17.4925 15.6389 17.3334 15.552 17.2168C15.465 17.1001 15.4078 16.8986 15.4353 16.7523C15.4799 16.5487 15.5668 16.6081 15.8277 17.0429C16.0313 17.3779 16.2773 17.5794 16.4512 17.5794C16.6972 17.5794 16.6696 17.5073 16.22 17.0429C15.8609 16.6753 16.0058 16.4766 16.6548 16.4469C17.8869 16.3897 18.1054 16.5636 17.7703 17.2592L17.7682 17.2613ZM20.8857 17.45C20.856 17.8742 20.5414 18.1011 19.9419 18.1308C19.0576 18.1753 19.0279 18.1584 18.9409 17.7682C18.7819 17.0004 18.5507 16.5487 18.1881 16.2751C17.9166 16.0631 17.9555 15.8701 18.3047 15.6962C18.6101 15.552 18.6377 15.552 18.4935 15.711C18.2771 15.9422 18.2475 16.2751 18.4489 16.2751C18.5359 16.2751 18.5931 16.1733 18.5931 16.0567C18.5931 15.7513 18.7373 15.7831 19.1297 16.1585C19.3184 16.3324 19.4626 16.4045 19.4626 16.3176C19.4626 16.2455 19.3333 16.0567 19.1721 15.9125C18.8094 15.5774 18.8094 15.4056 19.1721 15.4056C19.3312 15.4056 19.7956 15.7237 20.2028 16.1161C20.8835 16.7841 20.9281 16.8562 20.8835 17.4522L20.8857 17.45ZM21.4646 17.0725C21.4371 17.0874 21.1465 16.7544 20.7966 16.3324C20.1434 15.5223 20.1434 15.2593 20.7966 15.957C21.1741 16.3472 21.5495 16.9856 21.4646 17.0725ZM22.2196 17.7236C22.1475 17.7236 22.0181 17.5943 21.9291 17.4479C21.6831 16.9686 21.7552 16.7799 22.0733 17.0704C22.3787 17.344 22.4656 17.7236 22.2175 17.7236H22.2196ZM26.1197 16.0419C25.8885 16.4194 25.4389 16.8541 25.265 16.8541C25.0042 16.8541 25.1059 16.5784 25.5704 16.0567C25.8885 15.7089 25.9458 15.5498 25.8016 15.5498C25.5831 15.5498 24.9893 16.1733 24.7009 16.6654C24.5418 16.9707 22.9449 17.1871 22.9449 16.9114C22.9449 16.8096 23.017 16.6802 23.0891 16.6357C23.1761 16.5911 23.2333 16.4342 23.2333 16.3027C23.2185 16.114 23.1315 16.1733 22.8707 16.4915C22.6819 16.7247 22.508 16.8817 22.4805 16.8541C22.4529 16.8096 22.3066 16.5212 22.1475 16.2179C21.8124 15.5498 21.4074 15.3038 21.5685 15.8552C21.8145 16.7099 21.8018 16.799 21.5388 16.4194C21.3946 16.2179 21.0744 15.8552 20.8284 15.5923C20.5301 15.2826 20.651 15.0748 21.191 14.9688C21.6406 14.8818 22.4677 14.7228 23.0191 14.6061C23.5833 14.4895 24.194 14.3728 24.3955 14.3601C24.6712 14.3325 24.7581 14.2286 24.7581 13.9529C24.7581 13.62 24.8154 13.5903 25.5259 13.5457C26.2512 13.5012 26.6138 13.2276 25.9606 13.2276C25.6425 13.2128 25.6277 13.2128 25.9012 13.0113C26.0603 12.8947 26.4675 12.7929 26.8153 12.7929C27.1631 12.7929 27.4388 12.7356 27.4388 12.6635C27.4388 12.4875 28.251 12.3009 28.4546 12.4302C28.6561 12.5596 27.6275 14.5043 27.25 14.6931C27.0464 14.8076 26.9892 14.9539 27.0464 15.2423C27.1037 15.4905 27.0464 15.781 26.9022 15.9676C26.6986 16.273 26.6689 16.273 26.4802 16.027C26.2936 15.781 26.2787 15.781 26.1175 16.0397L26.1197 16.0419ZM26.5693 21.857C26.4675 21.7276 26.4251 21.5834 26.4823 21.5388C26.599 21.4074 27.0337 21.6682 27.1207 21.9015C27.1928 22.1475 26.7877 22.1178 26.5693 21.857ZM26.6986 23.8865C26.8577 23.7996 27.0761 24.7136 26.9595 25.002C26.9149 25.1187 26.8301 25.0296 26.7283 24.7857C26.5396 24.2788 26.5247 24.0032 26.6986 23.8865ZM26.1345 23.9586C26.2066 23.9586 26.2363 24.0604 26.1918 24.1749C26.1345 24.2916 26.179 24.493 26.2639 24.5948C26.3657 24.7115 26.3805 24.8281 26.3233 24.8705C26.2512 24.9151 26.1197 24.7836 26.0327 24.58C25.844 24.2025 25.9012 23.9565 26.1345 23.9565V23.9586ZM26.2512 28.5988C26.4972 28.7876 26.7156 28.9912 26.7156 29.0633C26.7156 29.252 26.6435 29.2075 26.1918 28.7154C25.9118 28.4157 25.9316 28.3768 26.2512 28.5988ZM25.8737 29.7589C26.1345 30.0918 26.1918 30.8171 26.0051 31.483C25.8016 32.2507 25.6277 31.9051 25.6128 30.6856C25.6128 29.4535 25.6128 29.4407 25.8737 29.7589ZM25.4092 31.6442C25.3074 32.0514 25.1908 32.3971 25.1335 32.4268C25.089 32.4564 25.0466 31.7608 25.0466 30.8765C25.0466 29.269 25.0466 29.252 24.5546 28.5267C24.2789 28.1365 24.1622 27.8905 24.3064 28.005C25.1335 28.6879 25.6849 30.4842 25.4092 31.6442ZM25.3371 26.3084C25.3816 26.3529 25.3816 26.4971 25.3223 26.6265C25.2205 26.8874 24.7581 26.9467 24.6118 26.7135C24.5249 26.5693 25.2077 26.1769 25.3371 26.3063V26.3084ZM24.0477 27.25C24.4103 27.3942 25.1929 28.0029 25.1038 28.075C25.0763 28.1195 24.7857 27.9456 24.4824 27.7272C23.7572 27.1758 23.685 27.1037 24.0477 27.2479V27.25ZM18.6228 30.166C18.6504 30.0791 18.767 29.9625 18.8561 29.9328C18.9579 29.9052 19.0003 29.9603 18.9409 30.1067C18.8391 30.3675 18.5359 30.4269 18.6228 30.166ZM15.376 37.4296C15.0706 37.2557 14.4471 35.4 14.5786 35.0671C14.7228 34.6896 14.9264 34.9059 15.0133 35.5315C15.0706 35.8793 15.2742 36.242 15.5499 36.5028C15.7831 36.7361 15.9846 36.9949 15.9846 37.0988C15.9846 37.3893 15.6368 37.5759 15.376 37.4317V37.4296ZM18.2602 33.8201C18.0417 33.8201 18.029 33.7331 18.1011 33.2411C18.1584 32.8636 18.1435 32.6622 18.0417 32.6622C17.6664 32.6622 17.5624 33.661 17.8975 34.0682C18.029 34.2273 17.9421 34.4012 17.5073 34.8359C16.869 35.4891 16.9283 35.4722 16.3918 35.154C15.7959 34.7914 15.8849 34.6896 16.782 34.6896C17.5518 34.6896 17.5794 34.6748 17.5794 34.3121C17.5794 34.0534 17.5222 33.9495 17.3779 34.0088C17.2761 34.0534 16.8838 34.1255 16.536 34.1827C16.1005 34.2506 15.8927 34.0378 15.9125 33.5444C15.957 32.7025 15.7683 32.5858 15.4778 33.2835C15.2021 33.9219 15.2021 33.3705 15.4778 32.5879C15.7831 31.763 15.7513 31.7036 15.2742 32.2104C15.0409 32.4586 14.78 32.66 14.7079 32.66C14.4768 32.66 14.3601 32.3992 14.5489 32.2825C14.6634 32.2253 14.6507 32.1532 14.5192 32.0662C14.3601 31.9644 14.375 31.9369 14.5637 31.9369C14.7079 31.9369 15.0706 31.7036 15.3908 31.43C15.6962 31.1564 16.0291 30.9231 16.1161 30.9231C16.2179 30.9231 16.5657 31.184 16.8838 31.5021C17.2189 31.8202 17.5518 32.0811 17.624 32.0811C17.6961 32.0811 17.7109 31.8054 17.6685 31.4724C17.6105 31.0568 17.7986 30.839 18.2326 30.8192C18.8413 30.8044 18.9579 30.8468 19.4223 31.3706C20.0458 32.0514 20.3215 31.9347 19.9886 31.1373C19.7277 30.5287 19.6832 29.9052 19.9016 29.9052C19.9886 29.9052 20.0458 30.007 20.0458 30.1236C20.0458 30.4417 20.3936 30.5435 20.786 30.3399C20.9981 30.224 20.9931 30.0791 20.7711 29.9052C20.5492 29.7412 20.564 29.6253 20.8157 29.5574C21.0193 29.5129 21.2229 29.3538 21.2632 29.2075C21.3353 28.9911 21.4964 28.9318 21.9588 28.9466C22.7434 28.9615 22.8876 28.584 22.2641 28.0771C21.7276 27.6296 21.8867 27.6296 22.4953 28.0771C22.7562 28.2807 23.0615 28.3973 23.1633 28.3528C23.28 28.3252 23.5981 28.4694 23.8738 28.7006C24.7306 29.3686 24.5418 30.2954 23.3966 31.0483C22.6565 31.5424 21.2059 32.8912 21.2059 33.0927C21.2059 33.4405 21.6852 33.3832 22.438 32.9485C22.9696 32.6487 23.2354 32.6247 23.2354 32.8764C23.2354 33.0948 23.0764 33.4129 22.8431 33.6313C22.6268 33.8646 22.5377 34.0534 22.6268 34.0809C22.7286 34.1085 22.8007 34.2103 22.8007 34.3121C22.8007 34.5157 21.8294 35.5018 21.7276 35.4C21.6831 35.3576 21.7276 35.0522 21.8124 34.7193C21.9439 34.1827 21.9291 34.0661 21.7106 33.8201C21.5664 33.661 21.2907 33.5296 21.0871 33.5296C20.8411 33.5296 20.769 33.4723 20.8114 33.3281C20.8835 33.1521 20.8114 33.1521 20.4339 33.2687C19.3608 33.6038 18.5041 33.8201 18.2581 33.8201H18.2602ZM19.7256 44.8671C19.5941 44.7653 19.4648 44.4323 19.4075 44.129C19.363 43.8237 19.2315 43.4907 19.117 43.3889C18.7246 43.0835 18.6228 44.1418 18.9409 44.9837C19.013 45.1576 18.8837 45.2021 18.275 45.217C17.853 45.2297 17.4182 45.217 17.3313 45.1725C17.2295 45.1279 17.1425 44.9264 17.1425 44.7229C17.1524 44.4627 17.2542 44.4677 17.4479 44.7377C17.607 44.9561 17.8106 45.13 17.8678 45.13C17.9399 45.13 17.8954 44.9561 17.7809 44.7377C17.6791 44.5044 17.5794 44.2436 17.5794 44.1418C17.5794 43.9106 18.4489 42.1843 18.521 42.2564C18.5656 42.284 18.4765 42.6488 18.3471 43.0538C18.1584 43.6625 18.1435 43.8958 18.275 44.286C18.3768 44.5468 18.4192 44.6041 18.3768 44.4026C18.275 43.8809 18.6101 42.5173 18.8264 42.5173C19.117 42.5173 19.7256 43.6625 19.8423 44.4026C19.9271 44.9816 19.9144 45.0388 19.7256 44.8671ZM19.855 37.1688C19.8274 37.0245 19.609 36.8061 19.3757 36.7043C19.013 36.5304 18.9409 36.401 18.8688 35.7054C18.8264 35.2707 18.7395 34.7914 18.6822 34.662C18.5953 34.4584 18.6377 34.4012 18.8688 34.4012C19.0279 34.4012 19.5072 34.2718 19.9271 34.1106C20.3343 33.9516 20.7118 33.8498 20.7393 33.8943C20.7669 33.9219 20.6524 34.1552 20.4636 34.416C20.1731 34.8359 20.1307 35.0374 20.1731 36.0829C20.2028 37.1836 20.0289 37.8071 19.855 37.1709V37.1688ZM21.3501 44.5193C21.3501 44.9116 20.8581 44.954 20.364 44.6041C19.785 44.199 19.944 43.6052 20.9726 42.3137C21.2059 42.0231 21.3946 41.5884 21.4074 41.37C21.4222 41.0222 21.4667 40.9776 21.6682 41.0794C22.3363 41.4421 22.3638 42.1525 21.7849 43.3126C21.5516 43.7918 21.3501 44.3284 21.3501 44.5171V44.5193ZM22.6098 47.465C22.5801 48.1033 22.4656 48.1754 22.1623 47.711C21.6682 46.9433 21.4371 46.2901 21.5961 46.1289C21.7128 46.0144 21.7849 46.042 21.8421 46.2456C21.9015 46.4046 22.0902 46.623 22.2917 46.7248C22.5823 46.8839 22.6395 47.0154 22.6098 47.465ZM23.0319 46.1586C22.7986 45.9366 22.6296 45.9267 22.525 46.1289C22.2917 46.5361 22.0309 46.5212 22.1623 46.1162C22.4953 45.0282 22.4656 45.0431 23.017 45.709C23.5811 46.3898 23.5811 46.6803 23.0319 46.1586ZM23.35 42.1568C23.2779 42.2289 23.2333 42.0125 23.2333 41.6647C23.2333 41.054 23.2185 41.0412 22.7986 41.0985C22.5653 41.143 22.3638 41.1133 22.3638 41.054C22.3638 40.8801 22.8707 40.6341 23.2058 40.6341C23.3648 40.6341 23.6405 40.5047 23.8293 40.3287C24.105 40.0975 24.1198 40.053 23.9162 40.1102C22.7434 40.4877 22.7116 40.4008 23.685 39.5016C24.129 39.0958 24.3849 39.1488 24.4528 39.6606C24.5397 40.4135 24.4528 40.6044 23.9035 40.8334C23.8017 40.8779 23.8165 40.95 23.9607 41.0518C24.1346 41.1685 24.1198 41.2554 23.8165 41.6032C23.6151 41.8196 23.4093 42.0677 23.3521 42.1546L23.35 42.1568ZM26.6562 41.9107C26.5693 42.0401 26.4802 42.0401 26.249 41.8832C25.9882 41.6944 25.9161 41.6944 25.7422 41.8683C25.5683 42.0571 25.5831 42.1292 25.8291 42.4049C26.1197 42.7103 26.2215 42.9563 26.0454 42.9563C26.003 42.9563 25.7994 42.7548 25.598 42.5215C25.1484 41.9701 24.9596 42.0571 25.3944 42.6085C25.8164 43.145 25.6425 43.2447 25.1187 42.7378C24.843 42.477 24.6118 42.3752 24.4506 42.4324C24.2343 42.5194 24.2492 42.5767 24.6097 42.9393C25.1166 43.4907 24.9575 43.8682 24.3637 43.5183C24.0731 43.3592 23.8844 42.5342 24.0138 41.9956C24.0731 41.7793 24.4061 41.3297 24.7687 40.9797C25.3626 40.4008 25.405 40.299 25.405 39.6182C25.405 39.0096 25.4495 38.8929 25.6658 38.8929C26.0412 38.8929 26.4484 39.3722 26.3317 39.6755C26.2745 39.807 26.073 40.0106 25.8546 40.1251C25.564 40.2714 25.4622 40.4305 25.4771 40.7337C25.4771 41.1112 25.7676 41.3424 26.6223 41.6902C26.6944 41.7199 26.7092 41.8196 26.652 41.9086L26.6562 41.9107ZM26.8598 38.6045C26.7729 38.6045 26.7156 38.5027 26.7156 38.3861C26.7156 38.2694 26.7877 38.1697 26.8747 38.1697C26.9764 38.1697 27.004 38.0404 26.9616 37.8644C26.9043 37.6332 26.9171 37.5887 27.0337 37.7053C27.2076 37.8792 27.0782 38.6045 26.8598 38.6045ZM27.3518 40.2714C27.1355 39.9809 26.9892 39.72 27.0337 39.6924C27.0782 39.6479 27.2797 39.8812 27.4981 40.1993C27.9774 40.9098 27.8905 40.9522 27.3539 40.2714H27.3518ZM28.8003 40.6786C28.6264 41.143 28.3528 40.9246 27.9456 40.0402C27.7272 39.5631 27.5978 39.1283 27.6402 39.0838C27.6848 39.0393 27.7569 39.1135 27.8163 39.2428C27.9308 39.5482 28.1641 39.5482 28.1641 39.2428C28.1641 38.8081 28.5267 39.141 28.743 39.7815C28.8724 40.1442 29.076 40.4347 29.2223 40.4623C29.3517 40.4898 29.4683 40.5789 29.4683 40.651C29.4683 40.8376 29.2669 40.8101 29.0611 40.6065C28.9318 40.475 28.8724 40.5047 28.8003 40.6786Z" fill="white"></path>
<path d="M29.5129 32.9486C29.4408 32.9486 29.252 33.078 29.1078 33.2391C28.9615 33.3982 28.9042 33.5297 28.9912 33.5297C29.0633 33.5297 29.252 33.4003 29.3984 33.2391C29.5426 33.0801 29.5998 32.9486 29.515 32.9486H29.5129Z" fill="white"></path>
</g>
<defs>
<clipPath id="SvgjsClipPath1122">
<rect width="60" height="60" fill="white"></rect>
</clipPath>
</defs>
</svg><style>@media (prefers-color-scheme: light) { :root { filter: none; } }
@media (prefers-color-scheme: dark) { :root { filter: none; } }
</style></svg>