<svg width="371" height="497" viewBox="0 0 371 497" fill="none" xmlns="http://www.w3.org/2000/svg">
<path opacity="0.2" d="M0.0913221 427.982L11.0408 459.296C32.8482 472.533 54.2903 482.119 75.1853 488.053C96.0802 493.987 118.892 497 143.528 497C172.452 497 199.369 492.618 224.188 483.854C249.006 475.09 270.722 462.582 289.336 446.332C307.95 430.082 323.096 411.915 334.867 391.739C346.638 371.563 355.58 349.653 361.784 326.008C367.989 302.363 371 276.436 371 248.135C371 176.652 350.196 117.403 308.68 70.4783C267.164 23.5536 210.41 0 138.6 0C121.629 0 105.844 1.18681 91.427 3.56043C76.9192 5.93405 59.3091 10.4074 38.5054 16.9805C17.7017 23.5536 4.92745 27.4792 0.273989 28.5747C4.37999 40.8993 7.48239 53.0413 9.48976 64.9094C12.5008 83.9897 14.508 106.083 15.603 131.188H33.2131L33.4871 91.4757C35.312 69.4741 45.4397 53.1326 63.8711 42.36C82.3024 31.5874 109.22 26.2011 144.623 26.2011C171.175 26.6576 193.621 30.7658 212.143 38.4344C230.666 46.1943 246.908 58.4276 260.959 75.0429C275.102 91.7496 286.599 112.93 295.541 138.583C304.483 164.236 309.045 196.463 309.227 235.262C309.227 303.185 291.982 357.778 257.401 399.134C222.819 440.49 177.197 461.213 120.443 461.213C94.8943 461.213 71.1708 456.922 49.2722 448.432C34.3081 442.589 19.5265 433.46 4.74488 420.862L-1.13486e-05 427.891L0.0913221 427.982Z" fill="#BEC8D4"/>
</svg>
