<svg width="256" height="497" viewBox="0 0 256 497" fill="none" xmlns="http://www.w3.org/2000/svg">
<g clip-path="url(#clip0_76_6012)">
<path opacity="0.2" d="M-114.909 427.982L-103.959 459.296C-82.1518 472.533 -60.7097 482.119 -39.8147 488.053C-18.9198 493.987 3.89181 497 28.5278 497C57.4523 497 84.3691 492.618 109.188 483.854C134.006 475.09 155.722 462.582 174.336 446.332C192.95 430.082 208.096 411.915 219.867 391.739C231.638 371.563 240.58 349.653 246.784 326.008C252.989 302.363 256 276.436 256 248.135C256 176.652 235.196 117.403 193.68 70.4783C152.164 23.5536 95.4096 0 23.6002 0C6.62879 0 -9.15634 1.18681 -23.573 3.56043C-38.0808 5.93405 -55.6909 10.4074 -76.4946 16.9805C-97.2983 23.5536 -110.073 27.4792 -114.726 28.5747C-110.62 40.8993 -107.518 53.0413 -105.51 64.9094C-102.499 83.9897 -100.492 106.083 -99.397 131.188H-81.7869L-81.5129 91.4757C-79.688 69.4741 -69.5603 53.1326 -51.1289 42.36C-32.6976 31.5874 -5.78014 26.2011 29.6227 26.2011C56.1748 26.6576 78.6206 30.7658 97.1432 38.4344C115.666 46.1943 131.908 58.4276 145.959 75.0429C160.102 91.7496 171.599 112.93 180.541 138.583C189.483 164.236 194.045 196.463 194.227 235.262C194.227 303.185 176.982 357.778 142.401 399.134C107.819 440.49 62.1967 461.213 5.4427 461.213C-20.1057 461.213 -43.8292 456.922 -65.7278 448.432C-80.6919 442.589 -95.4735 433.46 -110.255 420.862L-115 427.891L-114.909 427.982Z" fill="#BEC8D4"/>
</g>
<defs>
<clipPath id="clip0_76_6012">
<rect width="256" height="497" fill="white"/>
</clipPath>
</defs>
</svg>
