<svg width="222" height="51" viewBox="0 0 222 51" fill="none" xmlns="http://www.w3.org/2000/svg">
<path d="M14.8707 11.1301C14.754 11.2446 14.9428 11.6942 15.104 11.6942C15.1761 11.6942 15.2333 11.6497 15.2333 11.5924C15.2333 11.3888 14.9576 11.041 14.8707 11.1279V11.1301Z" fill="white"/>
<path d="M12.1901 13.1301C12.1901 12.8693 11.7829 13.0156 11.5538 13.3634C11.2633 13.7982 11.2485 13.9594 11.539 13.7261C11.6556 13.6243 11.872 13.5967 12.0607 13.654C12.3216 13.7409 12.364 13.7112 12.2919 13.5076C12.2346 13.3783 12.1901 13.2023 12.1901 13.1301Z" fill="white"/>
<path d="M17.9735 10.3896C17.8292 10.3896 17.6978 10.4618 17.6978 10.5339C17.6978 10.6208 17.8717 10.6781 18.0752 10.6781C18.2788 10.6781 18.4082 10.6208 18.3488 10.5339C18.3043 10.4618 18.1325 10.3896 17.9713 10.3896H17.9735Z" fill="white"/>
<path d="M21.9922 37.054C22.3824 36.8801 22.8468 36.6192 23.0207 36.4602C23.3982 36.0975 24.414 35.8515 24.4989 36.0827C24.5286 36.1845 24.7322 36.4156 24.9336 36.6065C25.2539 36.897 25.2666 36.9394 25.0354 36.897C24.8912 36.8822 24.73 36.9246 24.7003 36.9988C24.6728 37.1006 24.8742 37.1282 25.222 37.1006C25.8752 37.0285 25.8901 36.7825 25.2517 36.405C24.8446 36.1739 24.8742 36.1739 26.1064 36.4771C27.7457 36.8695 27.6864 36.8398 26.8465 36.8991C26.4118 36.9267 25.9898 37.0285 25.9049 37.1303C25.818 37.247 25.5698 37.3636 25.3535 37.4209C24.4543 37.6244 25.2666 38.3497 26.1785 38.1758C26.4118 38.1165 26.7299 37.9574 26.9038 37.8132C27.0925 37.6244 27.4828 37.5226 28.1084 37.4802C28.6004 37.4527 29.0076 37.4654 29.0076 37.5248C29.0076 37.5841 29.1815 37.8429 29.3999 38.0889C29.7774 38.5533 29.7901 38.5533 29.9068 38.2331C30.0086 37.9722 30.0658 37.9426 30.2397 38.0889C30.3564 38.1907 30.6172 38.2183 30.8632 38.161C31.2386 38.0889 31.3553 38.1461 31.7476 38.6254C32.0855 39.0312 32.1823 39.3359 32.0381 39.5395C31.9088 39.7134 31.8642 39.7282 31.807 39.5543C31.7624 39.4525 31.6034 39.2638 31.4592 39.1323C31.2577 38.9584 31.228 38.8566 31.3574 38.7124C31.474 38.5682 31.4167 38.5236 31.0541 38.5236C30.7784 38.5236 30.5027 38.6403 30.3585 38.7993C30.227 38.9584 30.0531 39.0475 29.981 39.0029C29.9089 38.9584 29.8792 39.2638 29.8941 39.6837C29.9365 40.4238 29.9068 40.4662 29.2706 41.077C28.7043 41.5987 28.4859 41.7132 28.0384 41.7132C27.733 41.7132 27.328 41.815 27.154 41.9465C26.8635 42.148 26.8359 42.148 26.8359 41.902C26.8359 41.5393 26.5602 41.2785 26.2994 41.3803C26.1976 41.4248 25.9813 41.3506 25.8201 41.2064C25.3853 40.814 24.8615 40.901 23.9793 41.5118C22.8044 42.3092 22.7917 42.5679 23.8775 42.9475C24.2974 43.0917 24.4861 43.0917 24.6452 42.9751C24.747 42.8881 25.0227 42.8309 25.2411 42.8457C25.5465 42.8903 25.7204 42.7736 26.0237 42.3664C26.4584 41.8023 26.6769 41.7705 26.4012 42.3219C26.0682 42.9454 25.6335 43.308 25.2136 43.308C24.9676 43.308 24.8212 43.3653 24.8806 43.4523C24.9251 43.5392 25.3726 43.5965 25.8795 43.5965C26.6048 43.5965 26.8529 43.6537 27.0544 43.887C27.2155 44.0609 27.504 44.1776 27.8094 44.1776C28.2441 44.1776 28.4625 44.0037 29.6226 42.7991C30.333 42.0462 31.0287 41.4227 31.1453 41.4227C31.5079 41.4227 32.0593 40.7419 32.0593 40.2775C32.0593 40.0442 32.1314 39.7982 32.2035 39.7558C32.422 39.6264 32.3775 39.0602 32.1314 38.7124C31.667 38.0592 31.0732 36.6956 31.0159 36.2035C30.9862 35.8656 31.5369 35.6628 32.668 35.5949C34.1907 35.4931 34.4812 35.4358 35.2786 35.0286C35.7855 34.7678 36.3941 34.5218 36.6274 34.4645C36.8734 34.4073 37.3082 34.2482 37.6136 34.1167C38.1056 33.8983 38.165 33.8983 38.2519 34.1167C38.3686 34.4348 37.4397 37.2194 37.2085 37.2194C37.1067 37.2194 36.8756 37.3933 36.7165 37.6266C36.4832 37.9298 36.3835 37.9744 36.2817 37.8153C36.1057 37.5396 34.2649 37.7284 33.8895 38.0613C33.5545 38.3646 33.0773 39.2935 33.0773 39.6413C33.0872 39.8053 33.1402 39.8053 33.2364 39.6413C33.3806 39.3804 33.4103 39.3804 33.6711 39.6286C33.8302 39.7579 33.9892 39.83 34.0465 39.7728C34.1059 39.7134 34.0613 39.6116 33.9595 39.5543C33.8005 39.4525 33.8153 39.3062 34.0316 38.7421C34.3052 37.9892 34.5088 38.0889 34.2479 38.8439C34.0147 39.5119 34.0592 39.6561 34.3625 39.2659C34.5067 39.0623 34.6106 38.8311 34.5661 38.7272C34.4791 38.4812 34.7972 38.3073 35.0008 38.5109C35.1175 38.6276 35.1026 38.7145 34.9414 38.8439C34.8269 38.9457 34.5491 39.3083 34.3201 39.6413C34.1016 39.9594 33.7814 40.2796 33.6096 40.322C33.001 40.4811 33.493 40.5829 34.1886 40.4387C34.5661 40.3666 35.0878 40.322 35.3359 40.3666C35.6985 40.426 35.8852 40.3538 36.2478 39.9912C36.655 39.584 36.7992 39.5416 37.5669 39.5416C38.6252 39.5416 38.8139 39.3232 38.9433 37.9468C39.1045 36.3372 39.3208 35.4528 39.8298 34.3649C40.466 33.0457 40.4511 32.7828 39.8149 32.4795C39.5413 32.348 39.2784 32.1169 39.219 31.9726C39.0748 31.5082 38.5085 31.3343 38.0886 31.6227C37.6221 31.9281 36.0866 32.2908 35.2617 32.2908C34.723 32.2908 34.6509 32.2632 34.74 32.0448C34.8121 31.9005 34.8842 31.5655 34.9287 31.3046C34.9563 31.0438 35.0453 30.7978 35.1175 30.7532C35.1896 30.7108 35.2468 30.4627 35.2468 30.2039C35.2468 29.9282 35.3486 29.6377 35.4631 29.5359C35.5798 29.4341 35.6816 29.2602 35.6816 29.1584C35.6816 28.8552 36.1736 28.9124 36.479 29.2454C36.7526 29.5508 37.1322 29.6377 37.1322 29.4044C37.1322 29.3175 37.0749 29.2157 36.988 29.1711C36.7547 29.0269 36.8141 28.8085 37.1046 28.8085C37.234 28.8085 37.4376 28.7512 37.5521 28.6791C37.7111 28.5773 37.639 28.4904 37.2764 28.3016C37.0155 28.1723 36.6804 28.0853 36.5362 28.1277C36.3178 28.185 36.2605 28.1277 36.2605 27.7948C36.2605 27.5042 36.1163 27.2307 35.7961 26.9401C35.4865 26.6588 35.5833 26.0204 36.0866 25.0251C36.59 24.0297 37.4793 23.3582 38.7545 23.0104C39.8128 22.7198 40.8286 22.4314 41.0174 22.3741C41.2485 22.302 41.3355 22.3296 41.3355 22.459C41.3355 22.5756 41.4373 22.7919 41.5518 22.9531C41.7405 23.1991 41.7554 23.1843 41.6684 22.6923C41.5815 22.1133 41.8275 21.9076 41.9866 22.4314C42.2601 23.3158 43.8146 23.636 44.3639 22.9234C44.5399 22.7071 44.6693 22.4166 44.6693 22.2702C44.6693 22.1409 44.7266 21.9945 44.8135 21.967C45.0298 21.8949 45.0023 20.9957 44.7414 19.9501C44.5527 19.1973 44.3936 18.877 43.9292 18.4274C43.4944 17.9927 43.3205 17.9057 43.2336 18.0648C43.1466 18.1814 43.0003 18.2238 42.784 18.1517C42.4934 18.0648 42.4658 18.0796 42.5676 18.4995C42.6843 19.0064 42.451 19.1103 42.205 18.6586C42.0884 18.4571 42.0884 18.2811 42.205 18.0627C42.3344 17.8442 42.3216 17.7149 42.1901 17.5558C41.9441 17.2525 41.7702 17.3098 41.8148 17.6873C41.8275 17.9185 41.7702 18.0054 41.5539 18.0054C41.2931 18.0054 41.2634 17.9036 41.2634 17.1359C41.2634 16.6566 41.2061 16.1201 41.1467 15.9462C41.0746 15.7298 41.0895 15.6132 41.1743 15.6132C41.3631 15.6132 41.6239 16.0925 41.6239 16.4551C41.6239 16.629 41.7533 16.7733 41.9569 16.8305C42.1308 16.875 42.4043 17.1062 42.5655 17.3522C42.9282 17.8888 43.0724 17.9036 43.0724 17.4095C43.0724 17.1635 42.9854 17.0044 42.7818 16.962C42.4489 16.875 42.4192 16.7584 42.6525 16.5272C42.7818 16.3958 42.767 16.2664 42.5804 15.9907C42.4489 15.7871 42.3471 15.469 42.3471 15.2802C42.3471 14.9897 42.2898 14.9452 41.9844 15.0045C41.7808 15.0321 41.6218 15.1636 41.6218 15.2802C41.6218 15.4245 41.7236 15.469 41.9547 15.4117C42.1286 15.3672 42.1859 15.3672 42.099 15.4117C41.9675 15.469 41.9675 15.5856 42.1562 15.8465C42.4616 16.3237 42.2432 16.5124 41.9102 16.048C41.7512 15.8465 41.503 15.5114 41.3312 15.2951C40.9389 14.7882 40.9686 14.6567 41.4755 14.5549C41.7653 14.497 41.8134 14.2941 41.6197 13.9463C41.426 13.5971 41.4352 13.3843 41.6472 13.3079C41.9526 13.1913 41.9526 13.1637 41.7193 13.0747C41.5751 13.0174 41.4882 12.8711 41.5306 12.7566C41.59 12.6123 41.5454 12.5678 41.344 12.6399C41.1107 12.712 41.0683 12.6251 41.011 11.8722C40.9516 11.0472 40.4745 9.97413 40.343 10.3644C40.3154 10.4492 40.3875 10.64 40.5169 10.7567C40.8074 11.0472 40.9516 11.5689 40.7777 11.6835C40.7056 11.728 40.4151 12.1627 40.1542 12.6399C39.8262 13.2196 39.6474 13.2924 39.6177 12.8583C39.5731 12.307 39.6177 12.1627 39.9358 11.9167C40.1394 11.7428 40.3133 11.482 40.3133 11.3378C40.3133 11.1193 40.2857 11.0918 40.1839 11.236C40.097 11.3802 40.0397 11.3526 39.9676 11.0769C39.8637 10.6697 39.1108 10.0484 38.5467 9.90415C37.9805 9.77266 38.0101 10.1798 38.5743 10.3813C39.0536 10.5404 39.1108 10.7015 38.8076 10.9603C38.6909 11.0472 38.4725 11.4396 38.3007 11.8298C37.938 12.6717 37.4015 13.1065 37.1258 12.7884C37.024 12.6717 36.6762 12.4978 36.3432 12.396C36.023 12.3091 35.6901 12.1776 35.6031 12.1055C35.3847 11.9019 35.2405 11.974 35.2405 12.2794C35.2405 12.4384 35.3423 12.6123 35.4568 12.642C36.1969 12.8753 36.1821 12.8605 35.8491 13.0916C35.5734 13.2783 35.4568 13.2783 34.7484 13.0768C34.3137 12.9474 33.9214 12.7587 33.8789 12.642C33.7623 12.3366 33.5014 12.3685 33.5014 12.6866C33.5014 13.0492 33.792 13.2952 34.197 13.2952C34.7336 13.2952 35.5458 13.73 35.5013 14.0057C35.4292 14.3832 35.0369 14.3386 34.4579 13.8763C33.862 13.4119 33.3106 13.397 32.9649 13.8487C32.704 14.1817 32.7316 14.3556 33.037 14.2411C33.6011 13.9951 33.8641 14.0078 34.0359 14.2983C34.2098 14.5592 34.1801 14.6037 33.7326 14.6907C33.0497 14.8052 32.6595 14.661 32.3244 14.1244C32.1406 13.8148 32.0487 13.8388 32.0487 14.1965C32.0487 14.574 32.1357 14.7925 32.3541 14.9494C32.6722 15.1678 32.6574 15.1678 32.1781 15.3842C31.8501 15.5397 31.855 15.5984 32.1929 15.5602C32.4686 15.5305 32.7889 15.5453 32.8885 15.5729C33.2215 15.6895 32.9013 15.9059 32.3944 15.9059C32.1208 15.9059 31.9024 15.9631 31.9024 16.0501C31.9024 16.1943 31.0032 16.6863 30.1782 16.9917C29.829 17.1274 29.8969 17.2002 30.3818 17.2101C30.8654 17.22 30.9184 17.3169 30.5409 17.5007C29.7859 17.8782 29.5399 17.8633 28.8591 17.4137C28.483 17.1635 28.0624 17.1253 27.5973 17.2992C26.872 17.5579 26.3651 17.893 26.9017 17.7467C27.9006 17.471 28.1487 17.4858 28.6704 17.7912C28.9758 17.9651 29.4678 18.1687 29.8007 18.2408C30.3224 18.3426 30.2928 18.3553 29.5823 18.2832C28.4223 18.1814 28.2484 18.1984 28.1317 18.385C28.0596 18.4868 27.856 18.5144 27.5803 18.4423C27.3492 18.3977 27.101 18.4147 27.0586 18.4868C26.9992 18.5886 28.1466 19.0382 29.2748 19.3415C29.4339 19.386 29.4508 19.4284 29.3045 19.5748C29.173 19.7041 28.927 19.6766 28.2314 19.4157C27.3046 19.0827 26.4627 18.9958 26.3333 19.227C26.2739 19.2991 26.3333 19.386 26.4181 19.4305C26.5624 19.4751 26.5624 19.5323 26.4054 19.7211C26.1 20.0965 25.8095 20.0244 25.8095 19.5769C25.8095 19.0403 25.9537 18.8516 26.3885 18.7922C26.5899 18.7646 26.7511 18.6628 26.7511 18.561C26.7511 18.4741 26.7956 18.3447 26.8677 18.2853C27.0416 18.1114 26.9844 17.9821 26.679 17.8951C26.4606 17.8379 26.4033 17.8951 26.433 18.1114C26.4457 18.2853 26.3736 18.4444 26.2888 18.4741C25.9982 18.5759 26.0555 17.0235 26.3906 15.7786C26.7384 14.4744 26.7532 14.1838 26.4478 12.9071C26.1149 11.5138 26.2464 10.7312 26.942 9.78963C27.2452 9.3676 27.6079 8.83105 27.7521 8.58504C27.8963 8.35176 28.3904 7.83218 28.8549 7.43984C29.6226 6.78665 29.7096 6.65516 29.7986 6.00409C29.8856 5.42513 29.8559 5.22154 29.6247 4.90342C29.3639 4.57047 29.2345 4.52593 28.2484 4.4814C27.2898 4.45383 27.118 4.4814 26.6387 4.81435C26.3354 5.01795 26.0597 5.177 26.0301 5.177C25.9855 5.177 25.9579 4.98825 25.9579 4.76982C25.9579 4.55138 25.7416 4.04452 25.4935 3.6543C25.2327 3.26409 24.957 2.84206 24.87 2.72754C24.7979 2.59605 24.4056 2.14857 24.0153 1.69685C23.623 1.2621 23.2455 0.725552 23.1734 0.509235C22.9847 -0.0421592 22.4926 -0.171525 22.1576 0.248383C21.8225 0.668291 21.8225 1.13273 22.1851 1.59718C22.5626 2.06162 22.5478 2.30763 22.1703 2.65543C21.5913 3.16229 21.2711 4.27992 21.1269 6.19284C21.1142 6.46854 21.0251 6.78877 20.9678 6.90329C20.8957 7.01993 20.7918 7.31047 20.7494 7.55648C20.6624 7.97851 20.6052 8.00608 19.5024 8.22452C17.7634 8.58716 8.77353 10.5149 7.61348 10.7779C7.06209 10.9073 6.54038 11.0239 6.45343 11.0366C6.38133 11.0366 6.33679 10.8627 6.35164 10.6316C6.39617 10.3113 6.29226 10.1374 5.94445 9.83416C5.55212 9.51393 5.46517 9.31246 5.40791 8.70381C5.20431 6.64456 6.50857 5.48451 9.39491 5.16428C11.4817 4.93312 12.2664 4.75921 12.54 4.45383C12.6863 4.29477 12.9026 4.16328 13.0193 4.16328C13.1932 4.16328 13.1932 4.10602 12.9747 3.87274C12.7909 3.66915 12.6361 3.68399 12.5103 3.91728C12.2643 4.39657 11.6259 4.59804 10.3789 4.59804C6.68035 4.59804 4.6508 5.94683 4.63595 8.41114C4.63595 9.31034 4.86924 10.0505 5.25945 10.3813C5.53515 10.5976 5.57757 11.0494 5.36125 11.1936C5.28914 11.2381 4.94134 11.2954 4.60838 11.3229C4.25846 11.3526 3.79614 11.4544 3.55013 11.5711C3.27019 11.7054 3.31897 11.7973 3.69646 11.8468C4.08244 11.8948 4.30936 12.1797 4.37722 12.7014C4.44933 13.2973 4.56597 13.5709 4.92862 13.9484C5.36337 14.398 5.39306 14.485 5.30611 15.0936C5.05798 16.6757 5.9593 18.0669 7.5541 18.5886C8.6272 18.9513 10.6122 18.9216 11.961 18.5313C13.3247 18.1242 13.963 18.139 14.2514 18.5589C14.455 18.8495 14.4826 18.8622 14.5695 18.6162C14.6268 18.472 14.6141 18.2811 14.525 18.1963C14.2345 17.9057 12.9302 17.8909 11.5814 18.1517C9.27615 18.6013 7.52229 18.2535 6.56583 17.1529C6.17562 16.7181 6.08654 16.4997 6.08654 15.9483C6.08654 15.5856 6.15865 15.0342 6.26045 14.7161C6.37638 14.3301 7.08683 14.1654 8.3918 14.222C9.47974 14.2517 10.6101 14.3386 10.9155 14.398C11.206 14.4404 11.8295 14.4404 12.2643 14.3832C12.9005 14.3111 13.0893 14.2241 13.1635 13.993C13.2115 13.7993 13.5445 13.7901 14.1623 13.9654C14.4232 14.0375 14.525 13.9781 14.6268 13.7045C14.7583 13.3716 14.8749 13.327 15.9035 13.2401C16.527 13.1807 17.1802 13.0959 17.3541 13.0513C17.6149 12.992 17.7167 13.0641 17.8482 13.3864C18.2957 14.5592 18.4272 15.416 18.3254 16.7224C18.2681 17.6343 18.283 18.069 18.3975 18.1411C18.775 18.3744 18.5735 19.1273 17.9627 19.7232C17.441 20.2449 17.3986 20.3616 17.5428 20.5927C17.7888 20.9851 17.3265 21.8546 16.8621 21.8546C16.6882 21.8546 16.4994 21.9267 16.457 21.9988C16.4125 22.0857 16.211 22.1006 16.0222 22.056C15.7762 21.9988 15.6448 22.056 15.5154 22.2745C15.4284 22.4505 15.21 22.5799 15.0361 22.5799C14.3702 22.5799 11.2654 23.4642 10.6419 23.8269C10.2941 24.0283 9.38007 24.7536 8.61235 25.4217C7.84464 26.1024 7.01755 26.7556 6.77155 26.8723C6.22015 27.1628 5.01769 27.1628 4.1906 26.8723C2.95844 26.4375 1.84293 26.639 0.899196 27.4512C-0.201471 28.3928 -0.246007 29.5529 0.797401 31.0035C1.62237 32.1635 1.60965 32.3501 0.623499 32.8591C0.275697 33.0351 0 33.2812 0 33.3978C0 33.5717 0.0445356 33.5993 0.188746 33.4826C0.449598 33.2663 1.45059 33.0182 1.45059 33.1794C1.45059 33.2515 1.33395 33.3087 1.18974 33.3087C0.638344 33.3087 0.290542 33.7286 0.290542 34.3967C0.290542 34.7445 0.335078 35.122 0.377493 35.2513C0.536549 35.6734 0.725295 35.4995 0.725295 34.9481C0.725295 34.6427 0.827091 34.2673 0.958577 34.1061C1.1452 33.8453 1.16005 33.8601 1.06037 34.3246C0.973423 34.8039 0.973423 34.8166 1.21943 34.5706C1.36364 34.4412 1.61177 34.2949 1.78567 34.2673C2.58307 34.1061 3.3529 34.0786 3.42501 34.2079C3.50984 34.3394 3.94671 33.6862 4.22241 32.9906C4.30936 32.787 4.46841 32.5686 4.58506 32.5262C4.97527 32.382 4.78653 31.9748 3.84491 31.0162C3.32321 30.4945 2.9033 30.0173 2.9033 29.9431C2.9033 29.784 3.7007 29.3917 4.01882 29.3917C4.16303 29.3917 4.67201 29.2623 5.13433 29.1012C5.60089 28.9273 6.00384 28.8106 6.0208 28.8403C6.04837 28.8679 6.1226 29.5804 6.20955 30.4224C6.42586 32.7701 6.77367 33.3066 9.02166 34.9459C9.63031 35.3934 10.2093 35.9024 10.3132 36.0763C10.5147 36.4686 10.3853 37.7284 10.0799 38.4833C9.96327 38.759 9.67273 39.2235 9.45641 39.514C8.93471 40.1799 8.7905 40.7186 9.0365 41.0495C9.1383 41.1937 9.64516 41.3994 10.152 41.5287C11.6175 41.8617 13.1677 42.6315 13.3565 43.1235C13.4434 43.3399 13.647 43.7195 13.8336 43.9655C14.4444 44.7777 14.9216 45.749 15.5324 47.3163C16.1855 48.998 16.7794 49.8103 17.229 49.6215C17.7655 49.4031 17.8949 49.4752 17.9967 50.0414C18.126 50.8388 18.4166 51 19.706 51C20.7791 50.9852 20.7939 50.9852 20.4016 50.7667C20.1556 50.6374 19.8375 50.5801 19.6318 50.6225C19.4451 50.6819 19.284 50.6522 19.284 50.5801C19.284 50.4041 19.6466 50.2747 20.198 50.2599C20.6455 50.2599 20.6455 50.2471 20.3274 50.1008C19.8926 49.8824 19.9796 49.4773 20.4588 49.4773C20.7091 49.4872 20.7381 49.3571 20.5458 49.0871C20.1832 48.593 19.9223 48.5633 19.8078 49.015C19.7498 49.2271 19.648 49.2271 19.5024 49.015C19.3136 48.7393 19.2118 48.7096 18.9065 48.8262C18.4717 49.0001 18.213 48.8835 18.3275 48.5802C18.459 48.2621 18.1112 47.3926 17.8355 47.3035C17.5301 47.2017 16.8048 46.099 16.7475 45.6642C16.7179 45.3737 16.7624 45.3461 17.1102 45.4182C17.3435 45.4755 17.5598 45.433 17.617 45.3461C17.6892 45.2294 17.8185 45.2591 18.0666 45.4182C18.2985 45.5638 18.4144 45.4139 18.4144 44.9686C18.4144 44.432 18.3423 44.2306 17.9945 43.8955C17.7613 43.6622 17.5153 43.2275 17.4431 42.9242C17.3414 42.4449 17.2396 42.358 16.7475 42.2137C16.3616 42.1077 16.1537 41.6631 16.124 40.8798C16.0944 40.0979 16.2301 39.7841 16.5312 39.9382C16.9087 40.1121 17.055 40.1269 17.4156 39.9827C17.8631 39.794 18.4144 39.2002 18.4144 38.8948C18.4144 38.8078 18.705 38.4303 19.0676 38.0528C19.5321 37.5608 19.8205 37.3721 20.1259 37.3721C20.3422 37.3721 20.6052 37.3 20.7049 37.1982C20.8215 37.0815 20.9212 37.0815 21.0675 37.1982C21.2266 37.3424 21.4302 37.3 21.9815 37.0667L21.9922 37.054ZM25.8922 37.7941C25.502 37.968 25.4129 37.968 25.3132 37.7941C25.256 37.7072 25.415 37.6499 25.7056 37.6647C26.0979 37.6647 26.1403 37.6923 25.8943 37.7941H25.8922ZM25.0503 42.1162C24.6876 42.464 24.4416 42.5806 24.0344 42.5806C23.7439 42.5806 23.4979 42.5234 23.4979 42.4513C23.4979 42.3792 23.7163 42.2752 23.9772 42.218C24.2232 42.1607 24.6876 41.9571 24.993 41.7684C25.6589 41.3336 25.6886 41.4948 25.0503 42.1183V42.1162ZM28.1381 43.8849C28.066 43.8849 27.9939 43.8276 27.9939 43.7407C27.9939 43.6686 27.8348 43.5519 27.6164 43.5074C27.2983 43.4226 27.2686 43.3632 27.3576 42.9581C27.4425 42.5085 27.5315 42.3346 27.6036 42.4513C27.6164 42.4788 27.7775 42.7121 27.9663 42.973C28.2993 43.4671 28.3862 43.887 28.1402 43.887L28.1381 43.8849ZM30.1528 41.709C29.8919 42.0271 29.5887 42.288 29.472 42.288C29.3554 42.288 29.0373 42.4173 28.7764 42.5934C28.5007 42.7524 28.2844 42.8245 28.2844 42.7376C28.2844 42.5488 28.8634 42.1416 29.1539 42.1416C29.2833 42.1416 29.6035 41.9084 29.8792 41.6348C30.5472 40.9392 30.7211 40.9986 30.1549 41.7069L30.1528 41.709ZM31.0096 40.9689C30.6596 40.7822 30.6766 40.4047 31.0223 40.4047C31.1665 40.4047 31.3998 40.2605 31.5164 40.0866C31.6705 39.8647 31.7476 39.8795 31.7476 40.1312C31.7624 40.6804 31.3277 41.1597 31.0096 40.971V40.9689ZM36.2881 39.1556C36.2308 39.1853 36.1715 38.969 36.1863 38.6636C36.1863 38.3582 36.2308 38.1398 36.303 38.1843C36.4472 38.2713 36.4323 39.0687 36.2881 39.1556ZM37.9995 38.8099C37.9274 38.8099 37.8553 38.7527 37.8553 38.6657C37.8553 38.5936 37.7535 38.5215 37.639 38.5215C37.4651 38.5215 37.4354 38.4197 37.5097 38.1292C37.639 37.5778 37.6963 37.5333 37.9444 37.8535C38.1756 38.1886 38.2201 38.8121 38.0017 38.8121L37.9995 38.8099ZM39.7958 32.9524C40.0439 33.1984 40.1012 33.4444 39.9125 33.4444C39.8404 33.4444 39.6813 33.3278 39.5498 33.1836C39.1299 32.7192 39.3611 32.5028 39.7958 32.9524ZM38.6358 31.7479C38.78 31.8051 38.9263 31.8496 38.956 31.8496C38.9836 31.8496 39.0133 31.9218 39.0133 31.9939C39.0133 32.2123 38.8245 32.1678 38.5785 31.8921C38.3898 31.6757 38.4046 31.6588 38.6358 31.7479ZM38.797 32.3714C39.1596 32.6025 39.2762 32.8634 39.043 32.8634C38.9709 32.8634 38.8118 32.7467 38.6803 32.6025C38.3177 32.2123 38.377 32.0957 38.797 32.3714ZM1.95109 33.5887C1.34243 33.8219 1.21307 33.7477 1.64782 33.4148C1.87898 33.2557 2.12711 32.98 2.18437 32.8061C2.30101 32.5453 2.31374 32.5728 2.31374 32.98C2.32858 33.3554 2.25647 33.472 1.95109 33.5887ZM3.02631 32.5898C2.99662 32.8217 2.91461 32.8167 2.7803 32.5749C2.66366 32.3735 2.2586 31.8348 1.86626 31.3704C1.45907 30.8635 1.17065 30.3842 1.17065 30.1658C1.17065 29.6738 1.27245 29.731 1.5333 30.3694C1.66267 30.6599 2.05712 31.2113 2.41977 31.574C2.91179 32.066 3.07296 32.3417 3.02843 32.5898H3.02631ZM3.77917 32.8061C3.77917 32.9079 3.72191 33.0373 3.63496 33.0818C3.54801 33.1263 3.49075 33.0245 3.49075 32.8485C3.49075 32.6619 3.31685 32.2696 3.11326 31.9642C2.89694 31.6588 2.75061 31.3682 2.79514 31.3258C2.89694 31.241 3.78129 32.558 3.78129 32.8061H3.77917ZM4.43236 28.571C3.73676 28.8912 2.53217 29.0057 2.76545 28.7321C3.04115 28.414 3.72403 28.2104 4.3751 28.2529C4.79925 28.2825 4.81834 28.3886 4.43236 28.571ZM5.70693 28.1086C5.32944 28.2401 5.17038 28.2104 4.75047 27.9496C4.47478 27.7905 4.15666 27.6442 4.02518 27.6442C3.89369 27.6442 3.29988 27.9051 2.69123 28.2232C1.50361 28.8467 1.15369 28.9485 1.47392 28.571C1.70508 28.2804 2.51733 27.8775 3.31473 27.6442C4.08244 27.4109 4.09728 27.2095 3.35926 27.2095C2.90967 27.2095 2.54702 27.3685 1.71993 27.9199C1.14096 28.3122 0.631982 28.6155 0.604413 28.5731C0.487772 28.4586 0.96706 28.0365 1.60328 27.7184C1.96593 27.5297 2.35615 27.2688 2.45795 27.1543C2.67426 26.8935 3.45894 26.8489 4.22877 27.0674C4.62111 27.184 4.79289 27.3134 4.85015 27.5742C4.92225 27.8796 5.02617 27.9369 5.5606 27.9517C5.96637 27.9602 6.01444 28.0132 5.70481 28.1108L5.70693 28.1086ZM18.1048 44.29C18.1494 44.4193 18.0454 44.449 17.7422 44.3918C17.4721 44.3239 17.4481 44.3819 17.6701 44.5657C17.9882 44.8265 17.9733 45.0449 17.6425 45.0449C17.5555 45.0449 17.2077 44.9156 16.8578 44.7544C16.4824 44.5805 16.264 44.4066 16.3213 44.3048C16.3785 44.2327 16.51 44.1903 16.6118 44.2327C16.7285 44.2772 16.8727 44.22 16.9596 44.1182C17.1632 43.8849 18.0051 44.0143 18.1069 44.2921L18.1048 44.29ZM16.7709 42.4619C17.1462 42.534 17.1462 42.7673 16.756 43.0408C16.4209 43.2868 16.4082 43.2868 16.3213 42.9963C16.2046 42.6337 16.4082 42.3876 16.7709 42.4598V42.4619ZM21.744 36.4008C21.7165 36.4305 21.5574 36.3732 21.4111 36.2566C21.2499 36.1548 21.1502 36.0254 21.1926 35.9978C21.2202 35.9681 21.3793 36.0254 21.5256 36.142C21.6868 36.2438 21.7864 36.3732 21.744 36.4008ZM21.9031 35.8367C21.7143 35.6352 21.6274 35.474 21.7016 35.474C21.8607 35.4889 22.4842 35.9978 22.4842 36.1102C22.4842 36.299 22.2233 36.1823 21.9052 35.8345L21.9031 35.8367ZM23.9623 35.7645C23.7609 35.7645 23.746 35.737 23.9348 35.6203C24.1956 35.4613 24.1087 35.4316 22.7174 35.2132C22.1215 35.1283 21.5426 34.9226 21.2965 34.7487C20.8745 34.4433 20.7727 34.56 21.0505 35.0668C21.1375 35.2259 21.1651 35.3849 21.1226 35.4295C20.9912 35.5737 20.3104 33.9068 20.3252 33.472C20.3252 33.1391 20.3677 33.1815 20.5712 33.7329C20.7254 34.1683 20.8314 34.2164 20.8894 33.8771C20.9473 33.5392 21.0583 33.53 21.2223 33.8495C21.4832 34.3415 22.2382 34.8929 22.6284 34.8929C22.7577 34.8929 22.6284 34.7042 22.3103 34.4136C22.0197 34.1676 21.7143 33.805 21.6295 33.6311C21.4259 33.2409 21.4259 32.4265 21.6147 32.1381C21.7165 31.979 21.7589 32.1232 21.7589 32.6619C21.7589 33.2006 21.831 33.4593 22.0494 33.6608C22.2085 33.805 22.3675 34.0383 22.4121 34.1825C22.4693 34.3691 22.6453 34.4582 22.9338 34.4582C23.2222 34.4582 23.5276 34.6172 23.8775 34.9502C24.3992 35.457 24.4268 35.7624 23.9623 35.7624V35.7645ZM19.7293 31.1965C19.6127 31.0522 19.4388 31.0077 19.25 31.0671C18.9892 31.1519 18.9743 31.1392 19.1631 30.9653C19.4663 30.6748 20.2786 30.1106 20.3804 30.1106C20.4249 30.1106 20.4249 30.1827 20.3804 30.2697C20.3231 30.3418 20.2362 30.7172 20.1916 31.0968C20.1068 31.6482 20.0326 31.7924 19.7845 31.8221C19.6106 31.8496 19.4366 31.7627 19.3942 31.6482C19.3221 31.487 19.3942 31.4149 19.6106 31.4149C19.8566 31.4149 19.8714 31.3873 19.7272 31.1965H19.7293ZM18.3805 32.2123C18.0772 32.0829 17.5534 32.5028 17.5534 32.8655C17.5534 33.0542 17.4665 33.0988 17.1908 33.0394C16.9299 32.9948 16.756 33.0542 16.6267 33.2281C16.51 33.402 16.4082 33.4317 16.3361 33.3299C16.2916 33.2451 16.4209 33.0394 16.6394 32.8655C17.7422 32.0235 18.7559 31.2707 18.7856 31.2983C18.8004 31.3258 18.7856 31.6482 18.741 32.0384C18.6965 32.5028 18.6117 32.7192 18.4802 32.7192C18.2342 32.7192 18.2215 32.4731 18.4675 32.3862C18.5841 32.3417 18.5544 32.2844 18.3805 32.2123ZM18.512 30.8062C17.9458 31.2261 17.2205 31.7924 16.9024 32.0511C16.1919 32.6301 15.526 33.067 15.526 32.9652C15.526 32.9206 16.4252 32.1826 17.528 31.3131C18.6159 30.4563 20.6158 28.8912 21.9646 27.833C23.3134 26.7599 24.4607 25.9328 24.5031 25.9921C24.5476 26.0346 24.4904 26.1512 24.3737 26.2381C24.2444 26.3399 23.1119 27.2243 21.8522 28.2253C20.5903 29.2242 19.0825 30.3842 18.5162 30.8062H18.512ZM13.0596 32.3268C13.2928 32.0808 13.4371 32.0214 13.5388 32.1232C13.77 32.3565 12.8708 33.0373 12.523 32.9079C12.4212 32.8634 12.3343 32.7764 12.3343 32.6916C12.3343 32.6068 12.4212 32.5749 12.523 32.6195C12.6248 32.664 12.8708 32.5325 13.0596 32.3289V32.3268ZM12.9302 31.4573C12.9154 31.1965 13.2059 30.486 13.2928 30.573C13.3353 30.6175 13.2632 30.8783 13.1486 31.1392C13.032 31.4149 12.9302 31.5591 12.9302 31.4573ZM13.9439 32.4286C14.0457 32.4286 13.9439 32.6301 13.7106 32.8634C13.2759 33.3278 13.1317 33.3872 12.9853 33.1688C12.8984 33.0097 13.6534 32.4286 13.9418 32.4286H13.9439ZM13.7849 31.8645C13.7849 31.7924 14.5102 31.0798 15.3945 30.2973C18.1494 27.8754 19.2225 26.9041 20.9339 25.2944C22.4269 23.8884 22.8913 23.5109 22.7471 23.8438C22.7026 23.9287 18.9764 27.4682 17.1929 29.1075C16.8027 29.4702 15.9311 30.2676 15.28 30.8762C14.1645 31.9196 13.787 32.1805 13.787 31.8624L13.7849 31.8645ZM16.1622 28.1362C15.8441 28.2529 15.6978 28.2529 15.5981 28.079C15.3648 27.7015 15.9459 27.483 16.2343 27.8457C16.3658 28.0047 16.351 28.0641 16.1622 28.1362ZM16.2492 28.8764C16.2492 29.08 15.9438 29.5296 15.7996 29.5296C15.7126 29.5296 15.7126 29.4278 15.8144 29.2539C15.9586 28.9485 16.2492 28.7152 16.2492 28.8764ZM18.4972 22.8598C18.2215 22.5989 18.0179 22.3529 18.0476 22.3232C18.0772 22.2957 18.3381 22.4102 18.6265 22.5693C18.9892 22.7856 19.1928 23.0485 19.2946 23.4112C19.4833 24.1068 19.4833 24.6158 19.3094 24.3252C19.2076 24.1662 19.1652 24.181 19.1207 24.4122C19.1058 24.5712 18.9892 24.673 18.9022 24.6455C18.8004 24.6009 18.7135 24.4419 18.7135 24.268C18.6986 24.0941 18.512 23.7314 18.2787 23.4557C17.7146 22.7877 17.8588 22.688 18.4972 23.2967C18.8301 23.6148 19.004 23.7166 19.004 23.5724C19.004 23.4578 18.7707 23.1376 18.4972 22.8619V22.8598ZM19.9902 13.45C19.4239 13.1022 19.5257 13.0577 20.2659 13.3631C20.8745 13.6239 20.8894 13.6239 20.8894 13.45C20.8894 13.3779 20.4695 13.1447 19.9477 12.9114C18.8598 12.4639 18.7877 12.2179 19.5851 11.781C19.923 11.6071 20.6236 11.8248 21.6868 12.4342C22.5711 12.9411 23.3537 13.4182 23.4258 13.5073C23.6421 13.7109 24.2232 14.5507 24.2232 14.6525C24.2232 14.7395 21.9031 13.3334 21.6868 13.1022C21.6147 13.0301 21.8161 13.1171 22.1512 13.291C23.0207 13.7703 23.0801 13.5667 22.2233 13.0301C21.4556 12.5381 20.3825 12.1034 20.2531 12.2327C20.1216 12.3769 20.1513 12.5657 20.3104 12.5657C20.3825 12.5657 20.8342 12.8265 21.2817 13.1447C21.7461 13.4776 22.6008 14.029 23.1819 14.3917C23.746 14.7543 24.2253 15.1445 24.2253 15.2612C24.2253 15.5793 24.0514 15.5072 22.832 14.7225C21.5871 13.9102 21.3241 13.7788 21.3241 13.9696C21.3241 14.029 21.8755 14.4341 22.5563 14.8688C23.3777 15.3806 23.7884 15.8981 23.7884 16.4212C23.7884 16.856 23.7736 17.2038 23.7609 17.1889C23.7333 17.1762 23.1649 16.6248 22.4842 15.9568C21.5256 15.0152 21.0336 14.6525 20.3083 14.3323C19.2352 13.8848 18.6117 13.4903 18.758 13.3461C18.8153 13.2889 19.1928 13.3907 19.5851 13.5794C20.427 13.9717 20.6879 13.8975 19.9923 13.45H19.9902ZM19.2946 11.202C19.2946 10.9688 19.846 10.4471 19.9626 10.5785C20.0771 10.6952 19.7738 11.2169 19.513 11.3166C19.3836 11.3611 19.2967 11.3166 19.2967 11.202H19.2946ZM25.2835 8.6211C25.239 8.19907 25.2835 8.2436 25.5868 8.95405C26.2824 10.5043 26.2549 10.7079 25.3557 10.3453C25.0206 10.2159 24.9485 10.0993 24.9485 9.72176C24.9485 9.47576 25.0354 9.22975 25.1372 9.18521C25.2666 9.14068 25.3111 8.93921 25.2814 8.6211H25.2835ZM25.3832 7.3444C25.5571 7.3444 25.6886 7.75159 25.5423 7.85127C25.4702 7.87883 25.3832 7.794 25.3387 7.63283C25.2942 7.47377 25.309 7.34229 25.3832 7.34229V7.3444ZM25.3981 13.4352C25.4702 13.4352 25.5274 13.537 25.5274 13.6536C25.5274 13.8699 25.3535 13.9442 25.1945 13.783C25.0778 13.6685 25.2093 13.4352 25.3981 13.4352ZM24.9485 11.4332C24.9485 11.2593 25.0354 11.1151 25.1499 11.1151C25.2645 11.1151 25.3832 11.0281 25.4256 10.9412C25.4553 10.8394 25.5423 10.797 25.5995 10.8542C25.6568 10.9136 25.5274 11.1299 25.326 11.3611C24.9633 11.7513 24.9485 11.7513 24.9485 11.4332ZM25.5296 15.2463C25.6314 14.8561 25.6462 14.8837 25.6589 15.4923C25.6589 15.8698 25.6165 16.2176 25.5296 16.2622C25.4426 16.3067 25.4002 16.2049 25.4002 16.0161C25.4129 15.8274 25.4723 15.4923 25.5296 15.2463ZM25.6292 11.9994C25.6886 11.6071 25.7607 11.4481 25.818 11.5647C25.9622 11.8255 26.1658 14.0142 26.0513 14.0142C26.0067 14.0142 25.9643 13.8551 25.9643 13.6515C25.9643 13.4479 25.8774 13.1277 25.7628 12.9559C25.6186 12.7375 25.5741 12.4342 25.6313 11.9994H25.6292ZM24.5286 5.22578C24.1808 4.96705 23.9326 4.73376 23.9623 4.73376C24.1511 4.73376 25.3832 5.50148 25.3832 5.61812C25.3832 5.83655 25.1945 5.74748 24.5286 5.22578ZM24.6579 26.4842C24.6579 26.5711 24.7746 26.6284 24.9188 26.6008C25.0778 26.5732 25.1796 26.6729 25.2093 26.8913C25.2539 27.1819 25.222 27.2095 24.9909 27.1077C24.6007 26.9189 23.9602 26.991 23.6718 27.2667C23.5276 27.3982 23.3388 27.5 23.2646 27.5C23.1904 27.5 23.2943 27.3706 23.4979 27.1946C24.3398 26.5287 24.6579 26.3251 24.6579 26.4842ZM24.7152 20.9448C24.8467 20.7709 24.9485 20.4952 24.9485 20.3488C24.9485 20.2025 25.0206 20.1304 25.0927 20.1749C25.326 20.3213 25.2666 20.7539 24.976 21.0169C24.6007 21.3647 24.4543 21.3201 24.7152 20.9448ZM25.4575 29.8625C25.8053 30.7044 25.7628 30.8911 25.3408 30.4266C25.1966 30.2824 25.0948 30.0513 25.0948 29.9346C25.0948 29.5571 24.9357 29.239 24.7894 29.326C24.7173 29.3684 24.66 29.2963 24.66 29.1648C24.66 28.6431 25.1393 29.063 25.4575 29.8604V29.8625ZM24.6579 27.6718C24.6579 27.5997 24.7873 27.4979 24.9633 27.4555C25.1499 27.4109 25.239 27.4427 25.1945 27.5424C25.1224 27.7608 24.6579 27.8605 24.6579 27.6718ZM24.1511 27.5424C24.0069 27.9899 23.8902 28.0938 23.6442 27.9347C23.4703 27.833 23.4852 27.7608 23.7015 27.5148C24.0641 27.1225 24.2677 27.1225 24.1511 27.5424ZM20.338 24.3252C20.0199 24.0771 19.7145 23.7463 19.6572 23.5575C19.6127 23.3688 19.496 23.0782 19.4112 22.9043C19.3242 22.7304 19.2946 22.4823 19.3518 22.3529C19.4833 21.9903 19.9477 22.1493 19.9753 22.5693C19.9937 22.811 19.9647 22.811 19.8884 22.5693C19.7866 22.2215 19.7717 22.2215 19.6721 22.512C19.5406 22.9467 19.846 23.5681 20.5267 24.1937C21.2223 24.8469 21.1502 24.9042 20.338 24.3252ZM20.7282 25.0908C20.6858 25.1354 20.4249 24.9763 20.1492 24.743C19.8735 24.5097 19.7293 24.3231 19.8014 24.3231C20.005 24.3231 20.8173 25.0039 20.7282 25.0908ZM19.6127 26.0494C19.5406 26.0494 19.4239 25.9476 19.3815 25.8161C19.3221 25.6719 19.3667 25.6146 19.4663 25.6422C19.6848 25.7143 19.7993 26.0494 19.6106 26.0494H19.6127ZM20.6285 23.9032C20.0495 23.3667 19.8608 23.004 20.1492 23.004C20.3252 23.004 21.3962 24.2934 21.2965 24.3825C21.252 24.427 20.9615 24.2086 20.6285 23.9032ZM19.337 19.1464C19.3942 19.0891 19.5681 19.1612 19.7442 19.3224C20.1068 19.6405 20.9466 20.6839 20.8448 20.6839C20.8003 20.6839 20.4249 20.3658 20.0029 19.9586C19.583 19.5663 19.2776 19.1909 19.337 19.1464ZM19.5406 20.9448C19.3667 20.9893 19.2946 20.8854 19.2946 20.6266C19.2946 20.2767 19.3221 20.264 19.5851 20.4231C19.9181 20.6415 19.8905 20.8727 19.5406 20.9469V20.9448ZM18.9468 14.2029C18.8301 13.9272 19.583 14.2899 20.092 14.7543C20.338 14.9855 20.8894 15.3184 21.339 15.522C21.9031 15.7701 22.3951 16.1455 22.9634 16.7839C23.4279 17.2759 23.7905 17.7403 23.7905 17.8124C23.7905 18.016 23.4427 17.9439 22.9634 17.6237C22.7026 17.4498 22.4842 17.261 22.4842 17.1889C22.4842 16.9281 21.5404 16.0161 20.9912 15.7383C20.2956 15.3757 19.0486 14.4489 18.9468 14.2029ZM20.2362 15.8847C20.1641 15.8995 19.8735 15.7553 19.6275 15.5941C19.1058 15.2612 19.0486 15.1742 19.337 15.1742C19.5406 15.1742 20.4376 15.8847 20.2362 15.8847ZM21.0484 16.1328C21.0908 16.0882 21.3093 16.2473 21.5404 16.4806C22.0473 17.0023 21.9328 17.0596 21.3665 16.5675C21.1502 16.3788 21.0039 16.1752 21.0484 16.1328ZM22.0197 17.8718C22.4842 18.2196 22.5711 18.349 22.3951 18.4211C22.0197 18.5653 21.6274 18.5229 21.5107 18.3066C21.4514 18.2048 21.1205 17.9439 20.7854 17.7276C20.2192 17.3777 19.9732 17.0596 20.2913 17.0596C20.6094 17.0596 21.4662 17.4519 22.0176 17.8718H22.0197ZM21.2944 18.5526C21.3517 18.8283 20.83 18.9152 20.6561 18.6395C20.6137 18.5526 20.3804 18.3638 20.1344 18.2196C19.7569 17.9863 19.742 17.9587 20.0029 17.8866C20.3804 17.7848 21.235 18.2196 21.2944 18.5547V18.5526ZM19.4833 17.4222C19.4388 17.2928 19.4388 17.1465 19.496 17.1041C19.5978 17.0023 20.0199 17.3352 20.0199 17.5113C20.0199 17.7297 19.5851 17.6555 19.4833 17.4243V17.4222ZM20.9912 23.0613C20.1938 22.4399 19.9477 22.0772 20.5564 22.3954C20.8173 22.5544 22.0218 23.7293 21.9052 23.7293C21.8607 23.7293 21.4556 23.4239 20.9912 23.0613ZM21.0336 21.0614C21.0336 21.0169 21.1057 20.9745 21.1778 20.9745C21.2647 20.9745 21.322 21.0614 21.322 21.1759C21.322 21.2904 21.4662 21.4092 21.6549 21.4665C21.9731 21.5534 23.3515 22.7856 23.3515 23.004C23.3515 23.0613 23.2498 23.1631 23.1183 23.2055C22.9741 23.2649 22.728 23.1334 22.4524 22.8301C21.7992 22.1345 21.0315 21.1759 21.0315 21.0614H21.0336ZM22.4842 21.5258C22.4842 21.3519 23.1946 21.4983 23.4279 21.7146C23.5573 21.844 23.413 21.8588 22.8192 21.7422C22.6305 21.7146 22.4863 21.6107 22.4863 21.5258H22.4842ZM23.8181 25.0484C23.9051 25.0187 23.9496 25.0611 23.9199 25.1502C23.8775 25.2796 22.7174 26.2657 18.1345 30.0937C17.6998 30.4563 17.4241 30.6599 17.5259 30.5157C17.7867 30.1976 23.6166 25.1226 23.8181 25.0505V25.0484ZM23.5997 22.7707C23.4109 22.5841 23.4979 22.4229 23.8033 22.4229C23.9623 22.4229 24.079 22.495 24.0493 22.5968C23.9772 22.8004 23.7312 22.9022 23.5997 22.7707ZM23.8457 21.1187C23.57 21.1187 23.3537 21.0614 23.3537 20.9745C23.3537 20.9023 23.4109 20.8302 23.483 20.8302C23.5551 20.8302 23.816 20.6563 24.062 20.4527C24.484 20.1049 24.5116 20.0901 24.5116 20.3679C24.5116 20.932 24.3525 21.1208 23.8436 21.1208L23.8457 21.1187ZM23.6442 19.8292C23.6442 19.7423 23.5148 19.6702 23.3388 19.6702C22.9465 19.6702 23.0631 20.018 23.4703 20.0774C24.0493 20.1622 23.8033 20.3955 23.1374 20.3955C22.6305 20.3955 22.5139 20.44 22.5732 20.6139C22.6878 20.9045 22.5584 20.8875 22.2678 20.5991C22.1067 20.4252 22.0791 20.3085 22.1809 20.2089C22.3845 20.0053 22.3845 19.5281 22.2106 19.5281C22.1236 19.5281 22.0346 19.5854 21.9943 19.6575C21.8776 19.8335 21.182 19.948 21.182 19.8017C21.182 19.7296 21.2838 19.6723 21.4005 19.6723C21.5171 19.6723 21.6168 19.6151 21.6168 19.5281C21.6168 19.369 22.9931 19.3542 23.8499 19.5005C24.1553 19.5578 24.4013 19.6744 24.4013 19.7465C24.3737 19.948 23.6485 20.0201 23.6485 19.8335L23.6442 19.8292ZM23.2095 18.9449C23.2095 18.8728 23.2964 18.8007 23.3982 18.8007C23.6887 18.8007 24.4861 17.9015 24.6028 17.4519C24.6452 17.2335 24.7173 17.0765 24.7618 17.1168C24.8636 17.2186 24.4861 18.4083 24.2401 18.7562C24.0069 19.0891 23.2095 19.2354 23.2095 18.9449ZM23.8457 6.98176C23.6294 6.82058 23.6145 6.77817 23.8033 6.76332C23.9178 6.76332 24.1511 6.86512 24.3101 6.98176C24.5264 7.14081 24.5413 7.18323 24.3525 7.19807C24.238 7.19807 24.0047 7.09628 23.8457 6.98176ZM23.9623 7.85127C23.9623 7.92337 23.8902 8.01032 23.8033 8.04001C23.7163 8.06758 23.6442 7.98063 23.6442 7.85127C23.6442 7.7219 23.7163 7.63283 23.8033 7.66252C23.8902 7.69009 23.9623 7.77916 23.9623 7.85127ZM24.3695 13.7957C24.2677 13.9124 24.168 14.0142 24.1511 14.0142C24.1341 14.0142 24.0344 13.9124 23.9348 13.7957C23.7757 13.607 23.8181 13.5794 24.1511 13.5794C24.484 13.5794 24.5286 13.607 24.3695 13.7957ZM23.9348 4.41565C23.2985 4.11026 23.0801 3.95121 23.254 3.90879C23.5 3.83669 24.7046 4.46019 24.8785 4.73589C24.9951 4.92463 25.0227 4.93736 23.9348 4.41777V4.41565ZM23.3537 5.53117C23.483 5.61812 23.483 5.67538 23.3388 5.76445C23.2095 5.83655 23.4555 5.89381 23.9772 5.89381C24.5286 5.89381 24.7746 6.02954 24.7152 6.301C24.6579 6.51731 24.6007 6.70818 24.5858 6.73575C24.571 6.74848 24.2953 6.67637 23.9772 6.56185C23.4406 6.3731 23.3982 6.3731 23.4109 6.58942C23.4109 6.71878 23.3261 6.85027 23.1946 6.87996C22.991 6.90753 22.9635 6.80786 22.991 6.25646C23.0356 5.51632 23.1077 5.38696 23.3537 5.53117ZM23.0631 7.90852C23.0631 8.09727 22.8298 8.22876 22.7153 8.11212C22.5563 7.95306 22.6284 7.77916 22.8447 7.77916C22.9613 7.77916 23.061 7.83642 23.061 7.90852H23.0631ZM22.9486 9.14068C23.2391 9.18521 23.6442 9.17037 23.8626 9.08342C24.0811 8.99647 24.2826 8.95405 24.3122 8.98162C24.3547 9.01131 24.325 9.59028 24.2677 10.2583C24.19 11.0699 23.963 11.2098 23.5869 10.6782C22.3103 8.88195 22.3824 9.02616 22.9486 9.14068ZM23.7609 12.1012C23.7884 12.1861 23.746 12.2751 23.6739 12.2751C23.6018 12.2751 23.5 12.4045 23.4576 12.5657C23.3558 12.9729 23.167 12.9283 22.8786 12.4363C22.7493 12.203 22.6326 11.9867 22.6326 11.9422C22.6326 11.798 23.7057 11.9295 23.763 12.1012H23.7609ZM19.1207 15.4923C19.337 15.7108 19.8014 16.0161 20.1641 16.1731C20.5267 16.3321 21.0187 16.6227 21.252 16.8263C21.6868 17.2038 21.7165 17.2928 21.3241 17.0744C21.2075 17.0023 20.8745 16.9153 20.584 16.8581C20.2934 16.8135 19.7569 16.5675 19.3815 16.3194C18.8747 15.9716 18.7135 15.7829 18.7135 15.4923C18.7135 15.2421 18.8492 15.2421 19.1207 15.4923ZM19.5109 21.4962C19.9456 21.3795 20.1068 21.4516 19.9456 21.6828C19.8438 21.8715 19.583 21.8864 19.3221 21.7125C19.1779 21.6255 19.2203 21.5683 19.5109 21.4962ZM14.3935 32.312C14.4211 32.2399 15.7423 31.0226 17.3371 29.6017C18.9319 28.1808 20.76 26.5563 21.3962 25.9921C22.0324 25.4259 22.7153 24.8321 22.9189 24.673C23.1607 24.4892 23.1607 24.5232 22.9189 24.7748C22.2827 25.428 14.525 32.4307 14.4359 32.4307C14.3787 32.4307 14.3638 32.3735 14.3914 32.3141L14.3935 32.312ZM22.3824 28.9336C22.1491 28.7025 21.6147 29.2963 21.6147 29.7607C21.6147 29.9622 21.5426 30.2527 21.4704 30.4139C21.3114 30.7044 20.8915 30.8062 20.8915 30.5433C20.8915 30.4712 20.9933 30.3991 21.1099 30.3991C21.2266 30.3991 21.3262 30.2697 21.3262 30.1085C21.3262 29.9473 21.2393 29.818 21.1248 29.818C21.0102 29.818 20.8915 29.731 20.8491 29.6165C20.7473 29.3684 21.3856 28.7321 21.6019 28.8764C21.6889 28.9209 21.9497 28.8318 22.1809 28.6749C22.4142 28.4989 22.6453 28.3695 22.6878 28.3695C22.8192 28.3695 22.6305 29.4278 22.4714 29.5868C22.27 29.8201 22.1385 29.5592 22.3421 29.3132C22.4714 29.1521 22.4863 29.0375 22.3866 28.9357L22.3824 28.9336ZM21.9773 28.5286C21.8161 28.6155 21.9476 28.4564 22.2678 28.1659C22.586 27.8902 22.921 27.659 22.9931 27.659C23.167 27.659 22.3972 28.3122 21.9794 28.5286H21.9773ZM24.2677 34.56C24.0217 34.4582 23.7609 34.3415 23.7015 34.2843C23.6442 34.2122 23.4109 34.1676 23.1798 34.1676C22.9613 34.1676 22.7726 34.0955 22.7726 34.0234C22.7726 33.9365 22.6135 33.718 22.4099 33.5441C22.077 33.2536 22.0621 33.1518 22.1491 32.3989C22.2509 31.3682 22.482 31.2961 22.482 32.2674C22.482 32.9503 22.5266 33.0224 23.1776 33.5717C24.062 34.3394 24.2656 34.3267 23.5679 33.5717C23.1904 33.1518 23.061 32.8909 23.1034 32.6598C23.148 32.5007 23.2201 32.1932 23.2773 31.9917C23.3643 31.6588 23.3494 31.6439 23.1607 31.8899C22.8256 32.2823 22.7683 32.1932 22.7853 31.311C22.798 30.5433 22.8129 30.5136 22.9295 30.9483C23.1034 31.5124 23.3219 31.5421 23.4364 31.0204C23.6527 30.0343 23.6675 30.0046 23.799 30.3672C23.8711 30.556 23.8563 31.1646 23.7693 31.7881C23.6824 32.3968 23.6548 32.9334 23.7121 32.9758C23.8414 33.1051 24.0747 32.7001 24.0747 32.3374C24.0747 32.1359 24.1914 31.9896 24.3801 31.9472C24.6113 31.8899 24.6707 31.803 24.5837 31.5994C24.3801 31.1498 23.9305 29.7713 23.9305 29.6419C23.9305 29.5826 23.9878 29.5253 24.0599 29.5253C24.3207 29.5253 24.9167 31.7585 24.8446 32.4986C24.7852 33.1348 24.817 33.2515 25.1203 33.4254C25.2942 33.542 25.6992 33.629 26.0046 33.6014C26.2951 33.5865 26.5412 33.629 26.5412 33.7159C26.5412 33.9195 26.0767 34.0489 25.9177 33.8919C25.8159 33.7901 25.6865 33.7901 25.5105 33.8771C25.1478 34.0786 24.8149 33.9047 24.7131 33.4847C24.5837 32.9779 24.3377 33.296 24.395 33.8919C24.4395 34.3394 24.4819 34.3839 24.9909 34.4285C25.2814 34.456 25.4977 34.5303 25.4553 34.6172C25.3387 34.7911 24.8467 34.7614 24.2656 34.5578L24.2677 34.56ZM25.239 35.9533C24.9633 35.8218 24.8043 35.7073 24.8912 35.6628C25.0503 35.6034 26.1085 36.0106 26.1085 36.1272C26.1085 36.2566 25.7607 36.1845 25.239 35.9533ZM26.5284 36.1993C26.2966 36.0155 26.2824 35.9187 26.486 35.9088C26.8041 35.9088 27.8475 36.3011 27.8475 36.4156C27.8475 36.6192 26.8169 36.4453 26.5284 36.1993ZM27.1668 35.474C27.3852 35.474 27.7903 35.72 27.7033 35.807C27.6588 35.8515 27.487 35.8197 27.311 35.7476C26.9483 35.6182 26.8762 35.4719 27.1668 35.4719V35.474ZM26.8062 35.2407C26.5157 35.2704 26.24 35.2704 26.1976 35.228C26.0534 35.0838 26.0958 34.4879 26.2549 34.3861C26.3418 34.3415 26.3991 34.4306 26.3991 34.5897C26.3991 34.8378 26.486 34.895 26.819 34.895C27.4425 34.895 27.7033 34.5621 27.7033 33.7201C27.7033 33.0097 27.6015 32.8803 27.3258 33.156C27.224 33.2578 26.9929 33.2281 26.6005 33.0691C25.8328 32.751 25.6017 32.5622 25.8328 32.4159C25.9622 32.3438 25.9198 32.1974 25.6886 31.9239C25.5296 31.7054 25.3832 31.417 25.3832 31.2855C25.3832 31.1413 25.2963 30.9526 25.2093 30.8359C25.0651 30.6769 25.0778 30.6769 25.2942 30.8359C25.6568 31.1116 26.1509 32.242 26.0194 32.4604C25.9473 32.5771 25.9919 32.5919 26.1637 32.5325C26.5136 32.3883 27.2092 32.5771 26.9611 32.7361C26.802 32.8231 26.8168 32.8655 27.0204 32.9376C27.1498 32.9949 27.3555 32.9376 27.4849 32.8082C27.9642 32.3289 28.1381 32.5177 28.1381 33.489C28.1381 35.0393 28.1105 35.0689 26.8041 35.2428L26.8062 35.2407ZM27.7182 27.1522C27.9048 27.2095 28.1826 27.254 28.312 27.237C28.4435 27.237 28.6301 27.324 28.734 27.4406C28.821 27.5551 28.8485 27.6272 28.7764 27.6272C28.7043 27.6145 28.3862 27.5551 28.0829 27.5127C27.7627 27.4682 27.487 27.3367 27.4446 27.2222C27.4001 27.078 27.4722 27.0631 27.7203 27.1501L27.7182 27.1522ZM27.1816 25.9031C27.0671 25.9031 26.9801 25.8458 26.9801 25.7589C26.9801 25.6868 27.1095 25.6146 27.2855 25.6146C27.4446 25.6146 27.5315 25.6868 27.4891 25.7589C27.4446 25.8458 27.3004 25.9031 27.1837 25.9031H27.1816ZM28.3417 27.7884C28.9079 27.7884 29.1836 28.1808 28.6767 28.2529C28.3862 28.2974 28.401 28.3398 28.8655 28.6304C29.4169 28.9782 29.1985 29.0375 28.5325 28.747C27.7203 28.3843 27.6058 27.7884 28.3438 27.7884H28.3417ZM29.0521 24.4694C29.3872 24.5416 29.9513 25.4132 29.7329 25.5425C29.6608 25.5871 29.5441 25.5129 29.4869 25.3686C29.4423 25.2244 29.2706 24.9466 29.0967 24.76C28.821 24.4546 28.821 24.427 29.0521 24.4694ZM28.4011 29.0651C29.0967 29.572 29.067 29.5868 27.8348 29.3832C27.2558 29.2814 26.2549 28.8912 26.2549 28.747C26.2549 28.7173 26.6323 28.7173 27.0968 28.7173C27.7203 28.7321 28.0532 28.8339 28.4011 29.0672V29.0651ZM26.5433 30.7469C26.5433 30.8783 26.1361 30.8487 26.064 30.7341C26.0364 30.662 25.9622 30.4287 25.9049 30.1976C25.8371 29.9162 25.9233 29.9254 26.1637 30.2252C26.3821 30.4563 26.5412 30.7044 26.5412 30.7469H26.5433ZM26.6175 31.1244C26.5454 30.995 26.5602 30.9653 26.6748 31.0374C26.7617 31.0968 26.8062 31.2134 26.7617 31.2855C26.7044 31.3576 26.7172 31.4149 26.7914 31.4149C26.8508 31.4149 27.0247 31.5888 27.1689 31.7775C27.5888 32.3565 27.1244 32.2271 26.5305 31.6185C26.0831 31.1413 26.0661 31.0968 26.3863 31.1986C26.6472 31.2707 26.7066 31.2558 26.6196 31.1265L26.6175 31.1244ZM28.5898 32.1381C28.5177 32.1381 28.3565 32.1656 28.2568 32.2102C28.1402 32.2547 27.9218 32.1381 27.7627 31.9642C26.8359 30.8911 26.1382 29.818 26.3715 29.818C26.5305 29.818 27.4297 30.8911 27.6906 31.3852C27.7924 31.574 28.0532 31.7479 28.3014 31.8051C28.6767 31.8772 28.91 32.1381 28.5919 32.1381H28.5898ZM27.1095 29.9643C27.3258 29.9643 28.3141 31.241 28.2568 31.4297C28.2293 31.5167 27.9218 31.2261 27.5888 30.7765C27.241 30.3269 27.0374 29.9643 27.1095 29.9643ZM28.5177 30.978C28.4159 30.978 28.2271 30.8614 28.1105 30.732C27.9939 30.5878 27.8497 30.3545 27.8051 30.2252C27.7606 30.0937 27.47 29.8477 27.1668 29.6886C26.6451 29.3981 26.6451 29.3832 27.0501 29.4723C27.4997 29.5571 28.4435 30.1382 28.7319 30.4881C28.9058 30.7044 28.7891 30.9801 28.5156 30.9801L28.5177 30.978ZM28.8485 30.24C28.6174 29.7925 28.9503 29.4871 29.2409 29.8774C29.3554 30.0364 29.4423 30.2548 29.4423 30.3566C29.4423 30.662 29.0351 30.573 28.8464 30.24H28.8485ZM29.3999 26.745C29.4593 26.4693 29.5738 26.3378 29.7477 26.3378C29.9068 26.3378 30.0234 26.3527 30.0234 26.3824C30.0234 26.3951 30.0807 26.6284 30.1528 26.8892C30.297 27.3812 30.1401 27.5254 29.8919 27.1055C29.7604 26.8723 29.7159 26.8723 29.6014 27.061C29.3978 27.3515 29.3108 27.2052 29.3978 26.7429L29.3999 26.745ZM33.4315 30.7044C33.4887 30.4563 33.5926 30.2824 33.6647 30.3418C34.0698 30.5878 33.4315 31.8496 32.897 31.8496C32.6065 31.8496 32.6065 31.8348 32.9543 31.5167C33.1579 31.3279 33.3763 30.9653 33.4336 30.7044H33.4315ZM32.3011 29.1669C32.0106 28.9654 31.7646 28.7321 31.7646 28.66C31.7646 28.4268 31.9978 28.501 32.2714 28.8043C32.562 29.1372 32.9246 29.1817 33.1855 28.9209C33.4166 28.6876 33.5036 28.8191 33.4018 29.2114C33.3 29.6313 32.967 29.6186 32.299 29.1669H32.3011ZM32.4729 27.2095C32.1696 27.2095 32.1696 27.237 32.6319 27.6887C32.9515 27.9984 32.8497 28.1772 32.3265 28.2253C31.1092 28.3419 31.211 28.7321 32.7337 29.9219C33.2851 30.3566 32.8652 30.3439 32.1548 29.9092C31.8367 29.7204 31.4592 29.3429 31.3001 29.0821C31.1064 28.764 31.1213 28.4013 31.3446 27.9941C31.5185 27.6612 31.6776 27.1246 31.6776 26.8214C31.6924 26.3145 31.7221 26.27 32.0551 26.3145C32.2566 26.3421 32.7952 26.5753 33.2724 26.8214C33.9404 27.184 34.1737 27.4152 34.3307 27.8372C34.636 28.5901 34.4324 28.6919 33.8959 28.0684C33.3742 27.4597 32.9522 27.2137 32.475 27.2137L32.4729 27.2095ZM32.2269 31.0798C32.0678 31.3258 30.9502 31.4849 30.8208 31.2834C30.6766 31.0353 31.0244 30.6875 31.4167 30.6875C31.6034 30.6875 31.8218 30.5581 31.9088 30.3969C31.9957 30.2358 32.1272 30.1064 32.1993 30.1064C32.3732 30.1064 32.3881 30.8317 32.2269 31.0777V31.0798ZM30.6194 29.0651C30.0531 28.2953 30.0086 28.1808 30.1973 27.9772C30.4009 27.7884 30.4306 27.8181 30.5154 28.2529C30.56 28.5137 30.7763 28.9782 30.9947 29.2687C31.6034 30.1679 31.3128 29.994 30.6194 29.0672V29.0651ZM36.5341 33.1391C36.7229 32.98 36.9116 32.8931 36.9561 32.9355C37.0728 33.0521 36.6656 33.4423 36.4196 33.4423C36.2436 33.4275 36.2605 33.3702 36.5341 33.1369V33.1391ZM35.461 33.0097C35.8809 33.0097 35.6646 33.226 34.8375 33.6332C33.9383 34.0679 33.7941 34.0976 33.7941 33.8792C33.7941 33.7201 35.1429 33.0097 35.461 33.0097ZM34.6212 32.9206C34.3179 33.1242 33.968 33.2981 33.8514 33.2981C33.7347 33.2981 33.6054 33.4869 33.5481 33.7329C33.4887 34.0234 33.3148 34.2567 33.054 34.4009C32.8228 34.5154 32.6341 34.7042 32.6341 34.8208C32.6341 35.1389 32.4453 35.1835 31.7794 35.0096C31.2725 34.8781 31.0689 34.8929 30.6618 35.0944C30.068 35.3701 30.0255 35.3701 30.0255 35.1813C30.0255 35.1092 30.1273 35.0371 30.2588 35.0371C30.3903 35.0371 30.736 34.8632 31.0562 34.6448C31.6055 34.2397 31.7667 34.0213 31.4761 34.0213C31.2874 34.0213 31.2874 33.3978 31.491 33.1942C31.7667 32.9185 31.4316 32.8888 30.7233 33.1221C29.9704 33.3533 29.8962 33.4847 30.2588 33.8898C30.5048 34.1655 30.4179 34.4539 30.0828 34.4539C29.9534 34.4539 29.8813 34.2949 29.8813 33.9746C29.8813 33.7138 29.8092 33.4232 29.7074 33.3214C29.5908 33.2048 29.5908 33.1051 29.7201 32.9461C29.8368 32.8019 29.8516 32.7128 29.735 32.6407C29.6629 32.5962 29.5908 32.4816 29.5908 32.3947C29.5908 32.3077 29.7202 32.3501 29.8813 32.4965C30.1146 32.7128 30.3161 32.7425 31.0414 32.6704C31.8685 32.5834 31.9109 32.5834 31.9109 32.9037C31.9109 33.5993 32.1442 33.6586 32.6362 33.0924C32.897 32.8019 33.2003 32.5686 33.3318 32.5686C33.5205 32.5686 33.5057 32.6258 33.2597 32.9015C32.738 33.4805 32.7231 33.6714 33.2597 33.1624C33.652 32.7997 33.9404 32.6683 34.477 32.611C34.9407 32.5629 34.9888 32.664 34.6212 32.9143V32.9206ZM38.5213 22.4971C37.955 22.7007 37.3739 22.8598 37.217 22.845C37.041 22.845 37.3018 22.7156 37.7811 22.5544C39.1299 22.1345 39.6368 22.09 38.5213 22.4971ZM44.0161 20.3934C44.3066 20.0753 44.4657 20.1028 44.3342 20.4655C44.277 20.5821 44.1306 20.6839 43.9991 20.6839C43.768 20.6839 43.768 20.6563 44.014 20.3934H44.0161ZM43.5093 19.8568C43.6683 19.6532 43.7998 19.5514 43.7998 19.6405C43.7998 19.8144 43.2357 20.51 43.2208 20.351C43.2208 20.2788 43.3502 20.0604 43.5114 19.8589L43.5093 19.8568ZM43.276 21.8885C43.4371 22.4823 43.6535 22.4675 43.6535 21.8885C43.6535 21.4834 43.8867 21.4537 43.9864 21.844C44.0882 22.2066 43.7977 23.004 43.5644 23.004C43.4626 23.004 43.2887 23.0485 43.1593 23.091C43.0151 23.1482 42.8985 23.091 42.8391 22.9467C42.7967 22.8153 42.7967 22.4972 42.8391 22.2363C42.926 21.8015 42.8985 21.7443 42.6079 21.757C42.4043 21.7719 42.275 21.6849 42.275 21.5555C42.275 21.4113 42.4192 21.3371 42.6949 21.3371C43.0575 21.3371 43.1445 21.4092 43.2738 21.8885H43.276ZM41.8402 19.3945C41.8975 19.35 42.0014 19.4369 42.0862 19.596C42.1732 19.7423 42.4489 20.0604 42.6949 20.2767C43.0724 20.6266 43.1169 20.7115 42.9282 20.8281C42.6525 21.002 42.5358 21.002 42.4213 20.8281C42.3768 20.756 42.3768 20.6118 42.4213 20.5376C42.4786 20.4506 42.3492 20.1898 42.1308 19.9416C41.9293 19.6808 41.7978 19.4496 41.8402 19.3924V19.3945ZM42.2029 20.7136C42.2029 20.8875 42.1583 20.8727 41.6239 20.4676C41.3482 20.2661 41.0449 20.1049 40.9431 20.1049C40.7396 20.1049 40.6971 19.931 40.8413 19.772C40.9559 19.6702 42.2029 20.5249 42.2029 20.7136ZM41.0428 18.6395C41.0428 19.0318 40.6653 19.5239 40.3748 19.5239C40.3027 19.5239 40.1161 19.4369 39.9549 19.35C39.7937 19.263 39.6495 19.1761 39.6198 19.1612C39.6071 19.1464 39.6919 18.8558 39.8085 18.508C40.027 17.8718 40.1139 16.4212 39.8955 16.9853C39.7937 17.2186 39.764 17.1741 39.6792 16.7117C39.5477 16.0586 39.6071 15.9716 39.9973 16.1731C40.3303 16.3491 41.0407 18.0287 41.0407 18.6374L41.0428 18.6395ZM38.8691 19.8292C38.9857 19.8292 39.2466 19.9162 39.448 20.0328C39.6495 20.1495 39.7237 20.2343 39.5922 20.2343C39.4756 20.2343 39.2147 20.1474 39.0133 20.0328C38.8118 19.9162 38.7376 19.8292 38.8691 19.8292ZM38.5213 18.6692C38.2307 18.349 38.3028 17.9291 38.7376 17.3649C38.8966 17.1762 39.0133 16.9302 39.0133 16.8263C39.0133 16.7117 39.0854 16.6248 39.1575 16.6248C39.2593 16.6248 39.3017 17.0447 39.2741 17.7403C39.2296 18.9725 39.0281 19.2185 38.5213 18.6692ZM39.3483 19.7423C39.2169 19.3797 39.378 19.35 39.6665 19.6702C39.9125 19.931 39.9125 19.9607 39.6813 19.9607C39.5498 19.9607 39.4056 19.8589 39.3462 19.7444L39.3483 19.7423ZM40.6802 14.7395C40.7374 14.8412 40.6356 14.8561 40.3621 14.7967C40.092 14.7289 40.0772 14.7967 40.3175 15.0003C40.6081 15.2463 40.6505 15.3481 40.519 15.5517C40.3451 15.8422 40.186 15.9143 39.9103 15.7977C39.5922 15.6662 39.4183 15.2018 39.5922 14.8837C39.7661 14.5656 40.519 14.4765 40.6802 14.7395ZM38.8542 11.2593C38.8987 11.2593 39.0705 11.3611 39.2169 11.4756C39.4926 11.6792 39.4926 11.6941 39.2317 11.9825C38.9581 12.2879 38.4343 12.3897 38.4343 12.1267C38.4343 11.9252 38.7524 11.2572 38.8542 11.2572V11.2593ZM39.1299 13.6812C39.3908 13.8699 39.5647 14.1032 39.5201 14.1753C39.3759 14.3938 39.2593 14.3195 38.7227 13.6812C38.1989 13.0725 38.3028 13.0725 39.1299 13.6812ZM39.1151 15.2187C39.1596 15.276 39.1744 15.3205 39.1426 15.3057C39.1151 15.293 38.8818 15.2484 38.6358 15.1912C38.0992 15.0597 37.8532 14.9155 37.8532 14.7416C37.8532 14.6122 38.9115 15.0321 39.1151 15.2209V15.2187ZM37.8256 16.1752C38.042 15.7829 38.2604 15.4647 38.3049 15.4647C38.3622 15.4647 38.4491 15.6386 38.4916 15.8422C38.5637 16.1328 38.5064 16.2918 38.2328 16.5527C37.8702 16.8857 37.7535 17.1889 37.6814 18.0033C37.6539 18.3511 37.6221 18.3808 37.5372 18.1772C37.3188 17.6406 37.4206 16.8729 37.8278 16.1752H37.8256ZM37.709 20.1049C37.9211 19.3994 38.1141 19.1966 38.288 19.4963C38.6209 20.0477 39.9273 20.7412 40.3896 20.6266C40.7968 20.5249 41.1446 20.8578 40.8689 21.0762C40.6653 21.2205 38.956 21.7443 37.8681 21.9754C37.4524 22.0631 37.2686 21.9521 37.3167 21.6425C37.3612 21.3816 37.5351 20.6839 37.709 20.1049ZM37.1576 18.0733C37.4036 18.0733 37.2743 19.6978 36.9986 20.1601C36.8543 20.4082 36.6508 20.8557 36.549 21.1611C36.462 21.4516 36.3157 21.6976 36.2436 21.6976C36.1715 21.6976 36.1142 21.4516 36.1142 21.1611C36.1142 20.2046 36.8395 18.0733 37.1576 18.0733ZM36.1142 15.9143C36.1142 15.7701 36.5638 15.4647 36.7674 15.4647C36.9265 15.4647 36.6953 15.7553 36.3899 15.8995C36.216 16.0013 36.1142 16.0013 36.1142 15.9143ZM34.6785 14.7395C34.8375 14.7395 34.9245 14.8116 34.8799 14.8837C34.8354 14.9706 34.6912 15.0279 34.5745 15.0279C34.4579 15.0279 34.3731 14.9706 34.3731 14.8837C34.3731 14.8116 34.5024 14.7395 34.6785 14.7395ZM32.6489 19.3075C32.967 19.0743 33.3297 18.6119 33.5926 18.103C33.809 17.6555 34.1143 17.1889 34.2586 17.0871C34.4028 16.9853 34.5194 16.8114 34.5194 16.7245C34.5194 16.4064 35.5501 15.4775 36.2881 15.1C37.0855 14.6928 37.13 14.6801 37.13 14.854C37.13 14.9112 36.7377 15.2442 36.2605 15.592C35.0284 16.4912 34.9987 16.5506 35.0729 18.5504C35.1302 20.001 35.1578 20.2173 35.3189 20.001C35.6243 19.579 35.724 19.8844 35.5352 20.6669C35.4186 21.1611 35.2892 21.4071 35.1429 21.4071C34.9542 21.4071 34.9393 21.5661 35.0263 22.3508C35.0941 23.0379 34.7894 23.3186 34.1122 23.1928C33.8365 23.1334 33.7793 23.0613 33.8514 22.8153C34.0846 22.0454 34.1122 21.5386 33.9532 21.3519C33.8217 21.1929 33.8217 21.0169 34.0104 20.6118C34.1271 20.3064 34.2289 19.685 34.214 19.1761C34.214 18.6968 34.1716 18.3914 34.1271 18.508C34.0825 18.6247 33.8217 19 33.5608 19.3351C33.0964 19.8865 33.0688 20.0159 33.0243 21.0911C32.9967 22.0624 33.0391 22.2957 33.2703 22.5544C33.6202 22.9467 33.5311 22.9319 32.721 22.5417C32.2714 22.3232 32.1102 22.179 32.1972 22.0624C32.2693 21.9754 32.2841 21.4241 32.212 20.7857C32.1442 20.042 32.2891 19.5493 32.6468 19.3075H32.6489ZM31.228 20.7284C31.2577 21.0635 31.3446 21.4537 31.4019 21.598C31.5185 21.8736 31.4019 21.9012 30.9375 21.6701C30.6915 21.5534 30.6045 21.3795 30.6045 21.0317C30.6045 19.9756 31.0965 19.7275 31.228 20.7284ZM30.7211 21.844C30.9375 21.844 32.3456 22.7283 32.3456 22.8598C32.3456 23.0931 32.0403 23.0189 31.3022 22.6265C30.9099 22.4399 30.6066 22.179 30.6066 22.0624C30.6066 21.9458 30.6512 21.844 30.7233 21.844H30.7211ZM30.7487 23.7293C31.8791 24.2934 32.7359 24.9466 32.8504 25.3241C32.967 25.7164 33.213 25.6868 33.213 25.2965C33.213 25.1226 32.967 24.76 32.6616 24.4694C32.3435 24.1789 31.9809 23.7738 31.8367 23.5554C31.6182 23.1928 31.6034 23.1482 31.8218 23.1482C31.9533 23.1482 32.1993 23.3942 32.3881 23.6996C32.8355 24.3952 34.0401 25.5129 34.2437 25.3962C34.3307 25.339 34.2713 25.1226 34.0847 24.8321C33.6351 24.0771 33.7665 23.4685 34.3603 23.6572C34.723 23.7738 34.7527 23.9626 34.4473 24.2659C34.1716 24.5267 34.2734 24.9466 34.7527 25.5129C35.0856 25.9052 35.0856 26.3399 34.7654 26.3399C34.6636 26.3399 34.7803 26.499 34.9987 26.7026C35.2171 26.9041 35.391 27.1373 35.391 27.2095C35.391 27.3834 35.4186 27.3982 34.8545 27.0207C34.5936 26.8468 34.39 26.6284 34.3752 26.5287C34.3752 26.4269 34.1292 26.2954 33.8386 26.2106C32.8377 25.9625 31.8367 25.7313 31.474 25.6443C31.1411 25.5722 31.1262 25.5871 31.3298 25.8331C31.5313 26.0664 31.5185 26.0791 31.228 25.9921C31.0541 25.9328 30.8802 25.9625 30.8208 26.0494C30.719 26.2085 30.4582 26.1067 30.4582 25.8903C30.4582 25.8182 30.5875 25.761 30.7487 25.761C31.1559 25.761 31.1114 25.5001 30.6915 25.3835C30.1676 25.2541 29.6332 24.6455 29.8495 24.427C30.1252 24.1513 30.051 23.759 29.6608 23.4981C29.4593 23.3688 29.2981 23.1652 29.2981 23.0337C29.2981 22.8322 29.3257 22.8322 29.559 23.0337C29.6883 23.1652 30.2249 23.4685 30.7466 23.7293H30.7487ZM29.0245 18.9004C28.5898 18.7413 28.2993 18.5822 28.3862 18.5526C28.4583 18.525 28.9376 18.6692 29.4593 18.8558C29.9662 19.0594 30.2567 19.2185 30.0976 19.2185C29.9386 19.2185 29.4593 19.0743 29.0245 18.9004ZM29.7626 21.6107C29.6777 21.6552 29.4296 21.5386 29.1984 21.335C28.9376 21.1017 28.8655 20.9872 29.0097 20.9872C29.3278 20.9723 29.9513 21.494 29.7626 21.6086V21.6107ZM28.0957 19.9586C28.1975 19.9586 28.4583 20.1177 28.6746 20.3213C29.1963 20.7857 28.9206 20.7857 28.3565 20.3213C28.1232 20.1177 27.9939 19.9586 28.0957 19.9586ZM28.0236 25.7313C28.0681 25.6295 28.2123 25.5129 28.3417 25.498C28.5177 25.4535 28.5898 25.5129 28.5453 25.6422C28.5007 25.744 28.3565 25.8607 28.2271 25.8755C28.0511 25.92 27.979 25.8607 28.0236 25.7313ZM28.1105 26.1936C28.2696 26.2085 28.7467 26.9189 28.5898 26.9189C28.5177 26.9189 28.3417 26.8171 28.2271 26.6856C27.979 26.4545 27.9218 26.1936 28.1105 26.1936ZM27.2262 24.7876C27.6906 24.4101 27.8497 24.3655 27.8497 24.6433C27.8497 24.9615 27.6482 25.1226 27.2262 25.1078C26.9547 25.1078 26.9547 25.0018 27.2262 24.7897V24.7876ZM27.6164 28.3843C27.5146 28.5582 27.2834 28.5434 26.7045 28.2825C26.4288 28.168 26.2548 28.0365 26.2973 27.9793C26.4266 27.8478 27.7182 28.2401 27.6164 28.3865V28.3843ZM26.5878 25.7164C26.5157 26.2106 25.9643 27.0652 25.9643 26.6877C25.9643 26.6156 26.0364 26.4714 26.1382 26.3696C26.2697 26.2403 26.2549 26.1533 26.081 26.0218C25.8774 25.8479 25.8922 25.8034 26.2549 25.5001C26.5348 25.2782 26.6458 25.351 26.5878 25.7186V25.7164ZM26.2379 20.2492C26.6005 20.264 26.5857 20.2767 25.977 20.8281C25.1648 21.5683 25.0036 21.5683 25.4829 20.8281C25.7734 20.3934 25.9622 20.2492 26.2358 20.2492H26.2379ZM26.3418 14.362C26.3842 14.4934 26.327 15.0448 26.1976 15.5814C26.0809 16.1179 25.907 17.1317 25.8201 17.857C25.7331 18.5674 25.6186 19.2206 25.5592 19.3075C25.4871 19.4369 25.2835 19.4242 24.8064 19.3075C24.3709 19.1916 24.3518 18.9449 24.7491 18.5674C25.5317 17.8294 25.765 17.1762 25.9219 15.2484C25.994 14.3344 26.1827 13.9442 26.3439 14.3641L26.3418 14.362ZM26.7469 9.57755C26.573 10.0272 26.3991 9.79599 26.3991 9.1428C26.3991 8.56384 26.4266 8.48961 26.6175 8.65079C26.8508 8.83953 26.8911 9.20218 26.7469 9.57755ZM27.4149 8.57656C27.3279 8.63382 27.2707 8.38781 27.2707 7.92337C27.2707 7.45893 27.3279 7.21292 27.4149 7.27018C27.5018 7.31471 27.5591 7.61798 27.5591 7.92337C27.5591 8.22876 27.5018 8.53202 27.4149 8.57656ZM27.8497 7.63495C27.7775 7.63495 27.7054 7.47589 27.7054 7.2723C27.7054 7.06871 27.7775 6.90965 27.8497 6.90965C27.9366 6.90965 27.9939 7.06871 27.9939 7.2723C27.9939 7.47589 27.9366 7.63495 27.8497 7.63495ZM28.8358 4.6765C29.3151 4.79102 29.5887 5.11126 29.5887 5.56086C29.5887 6.01046 29.5611 5.98289 29.2557 5.47391C29.1115 5.22578 28.8803 4.99462 28.7192 4.9522C28.2696 4.80587 28.3714 4.57471 28.8358 4.6765ZM27.0947 5.15367C27.5591 4.73376 27.574 4.73377 28.1105 4.9522C28.7192 5.19821 29.1094 5.62024 29.2409 6.13982C29.3851 6.71879 29.0076 6.85027 27.9048 6.63395C27.6461 6.58942 27.2834 6.34341 27.0353 6.05499C26.7652 5.72557 26.785 5.42584 27.0947 5.15579V5.15367ZM26.8338 6.25646C27.2262 6.67637 27.1816 6.77817 26.5433 6.79301C26.2336 6.80291 26.1128 7.02064 26.1806 7.4462C26.2676 8.01244 26.2103 8.2436 26.064 7.96791C26.0364 7.8958 25.9198 7.54588 25.818 7.15566C25.6165 6.41764 25.3832 6.1271 25.3832 6.60426C25.3832 6.78029 25.326 6.90965 25.239 6.90965C25.1669 6.90965 25.0948 6.7506 25.0948 6.547C25.0948 5.83655 26.2548 5.64781 26.8338 6.25646ZM24.6749 3.28529C24.9061 3.28529 25.4871 3.82184 25.3705 3.93848C25.3281 3.96817 25.1096 3.83669 24.8785 3.64794C24.5731 3.40194 24.5158 3.30014 24.6749 3.28529ZM24.325 2.29703C24.571 2.55788 24.4416 2.67452 23.9772 2.58757C23.7884 2.56 23.6442 2.47093 23.6442 2.39882C23.6442 2.13797 24.0938 2.08071 24.325 2.29703ZM23.0059 1.47205C23.0631 1.35541 23.1501 1.25362 23.2073 1.25362C23.2646 1.25362 23.3515 1.35541 23.4088 1.47205C23.4682 1.61627 23.3961 1.68837 23.2073 1.68837C23.0186 1.68837 22.9465 1.61627 23.0059 1.47205ZM23.1374 1.92165C23.254 1.97891 23.3537 2.06586 23.3537 2.13797C23.3537 2.21008 23.2519 2.26734 23.1374 2.26734C23.0228 2.26734 22.9189 2.16554 22.9189 2.05102C22.9189 1.92165 23.0059 1.87712 23.1374 1.92165ZM22.2954 1.31088C22.1364 1.15182 22.1788 0.600427 22.3675 0.411681C22.6284 0.150829 22.7747 0.21021 22.7747 0.570737C22.7747 0.963075 22.4566 1.45509 22.2954 1.30876V1.31088ZM22.5117 3.47404C22.7726 3.19834 22.8023 3.09655 22.6432 3.0096C22.5414 2.93749 22.499 2.806 22.5563 2.70421C22.6729 2.51546 23.5551 2.61726 23.9326 2.87811C24.1065 2.97991 24.0768 2.99475 23.8308 2.95022C23.3091 2.83357 23.4406 3.0817 24.1214 3.48677C25.0206 4.02544 25.7162 4.66166 25.6568 4.86525C25.6144 4.98189 25.4829 4.92463 25.2645 4.69135C24.6707 4.053 23.553 3.54615 23.0165 3.64794C22.7705 3.7052 22.4651 3.82184 22.3781 3.89395C22.0727 4.13996 22.1745 3.83669 22.5075 3.47404H22.5117ZM22.0346 6.13982C22.1215 6.05287 22.1936 6.03802 22.1936 6.11225C22.1936 6.16951 22.323 6.11225 22.4842 5.96592C22.9189 5.5757 23.0356 5.83655 22.6856 6.44521C22.2954 7.11112 22.0918 7.18323 21.9603 6.69121C21.9031 6.47278 21.9328 6.24162 22.0324 6.13982H22.0346ZM21.5998 8.75046C21.7165 8.63382 21.7589 8.66351 21.7589 8.85226C21.7589 8.98374 21.9476 9.27429 22.1788 9.4906C22.4545 9.73661 22.6432 10.0993 22.7174 10.4619C22.7599 10.78 22.8765 11.1151 22.9486 11.2148C23.1225 11.4311 23.0504 11.7216 22.8468 11.5774C22.6008 11.4035 22.0494 10.5489 22.0494 10.3453C22.0494 10.2435 21.9773 10.0844 21.8755 9.98262C21.744 9.85325 21.744 9.80871 21.8755 9.80871C21.9773 9.80871 22.0494 9.75145 22.0494 9.6645C22.0494 9.5924 21.9625 9.52029 21.8479 9.52029C21.5722 9.52029 21.3983 8.95617 21.5998 8.75258V8.75046ZM20.8894 8.8671C20.9763 8.80984 21.0336 8.93921 21.0336 9.1428C21.0336 9.34639 20.9763 9.52029 20.8894 9.52029C20.8173 9.52029 20.7451 9.39093 20.7451 9.2446C20.7451 9.08554 20.8173 8.91164 20.8894 8.8671ZM20.6858 10.3898C20.7282 10.3898 20.8872 10.4619 21.0484 10.534C21.4535 10.7673 21.3814 10.5192 20.9318 10.1417C20.6709 9.93808 20.5988 9.82356 20.743 9.82356C21.1354 9.82356 21.7589 10.5489 21.7589 10.9963C21.7589 11.0833 21.8458 11.272 21.9476 11.3887C22.1788 11.6644 22.8171 12.7078 22.745 12.7078C22.7174 12.7078 22.6008 12.6208 22.4693 12.519C22.3548 12.4172 22.0494 12.0397 21.7886 11.6771C21.3538 11.0409 20.9466 10.7206 20.7727 10.8945C20.7282 10.9391 20.9169 11.1554 21.1947 11.3866C21.8161 11.9083 21.7016 12.0694 20.9615 11.6919C20.6561 11.5477 20.3528 11.3866 20.2807 11.3738C20.1492 11.3293 20.5416 10.3877 20.6879 10.3877L20.6858 10.3898ZM4.82258 11.8107C4.86711 11.7089 5.04102 11.5923 5.21492 11.5774C5.4482 11.5329 5.53515 11.5923 5.49061 11.7216C5.44608 11.8234 5.27218 11.9401 5.09828 11.9549C4.86499 11.9994 4.77804 11.9401 4.82258 11.8107ZM4.75047 12.9114C4.69321 12.8541 4.64868 12.6802 4.64868 12.536C4.64868 12.3027 4.73563 12.2603 5.12797 12.3027C5.47577 12.3303 5.59241 12.4194 5.59241 12.6357C5.59241 12.8393 5.47577 12.9411 5.22976 12.9708C5.02829 12.9983 4.80985 12.9707 4.75047 12.9114ZM4.93922 13.4352C4.93922 13.2168 5.33156 13.1022 5.61998 13.2019C5.8363 13.2889 5.8363 13.3186 5.66452 13.4352C5.37397 13.6239 4.93922 13.6091 4.93922 13.4352ZM6.17137 14.029C6.05473 14.2029 5.56272 14.2029 5.44608 14.029C5.34428 13.853 5.89568 13.6664 6.09927 13.7957C6.18622 13.853 6.21591 13.9569 6.17137 14.029ZM6.46192 13.5942C6.41738 13.5073 6.41738 13.3461 6.49161 13.2613C6.60825 13.0725 6.5934 12.7968 6.44707 12.1458C6.38981 11.8552 6.34528 11.8255 6.2456 11.9867C6.17349 12.1034 6.1438 12.3494 6.20106 12.5233C6.30286 12.9729 6.04201 12.9453 5.83842 12.4957C5.59241 11.974 5.6221 11.9167 6.02716 11.7259C6.56371 11.4799 6.62309 11.5096 6.80972 11.9719C7.12995 12.7396 6.82456 14.1775 6.46192 13.5964V13.5942ZM6.96878 11.6665C6.76518 11.4049 6.84719 11.2261 7.21478 11.1299C7.52017 11.043 8.88169 10.7524 10.2305 10.4768C11.5941 10.1862 13.6237 9.7663 14.7689 9.51817C15.8992 9.28489 16.9151 9.08342 17.002 9.08342C17.3074 9.08342 15.3945 10.2286 14.8431 10.3728C14.5377 10.4449 13.5813 10.621 12.6969 10.7503C11.8104 10.8945 10.767 11.1554 10.3323 11.3463C9.91237 11.5329 9.52215 11.6941 9.44793 11.6941C9.3737 11.6941 9.17223 11.8107 8.98349 11.9549C8.72263 12.1437 8.46178 12.1861 7.95492 12.1288C7.44806 12.0716 7.20206 11.9549 6.96878 11.6644V11.6665ZM9.76816 13.2613C9.63668 13.537 9.37794 13.8127 9.1892 13.8848C8.7396 14.0438 7.96977 14.0438 7.71104 13.8848C7.60924 13.8127 7.56683 13.6812 7.62409 13.5942C7.68135 13.4925 7.63893 13.3334 7.55198 13.2168C7.46503 13.1001 7.40777 12.8986 7.43534 12.7523C7.47988 12.5487 7.56683 12.6081 7.82768 13.0429C8.03127 13.3779 8.27728 13.5794 8.45118 13.5794C8.69718 13.5794 8.66962 13.5073 8.22002 13.0429C7.8609 12.6753 8.00582 12.4766 8.65477 12.4469C9.88692 12.3897 10.1054 12.5636 9.77028 13.2592L9.76816 13.2613ZM12.8857 13.45C12.856 13.8742 12.5414 14.1011 11.9419 14.1308C11.0576 14.1753 11.0279 14.1584 10.9409 13.7682C10.7819 13.0004 10.5507 12.5487 10.1881 12.2751C9.91661 12.0631 9.95549 11.8701 10.3047 11.6962C10.6101 11.552 10.6377 11.552 10.4935 11.711C10.2771 11.9422 10.2475 12.2751 10.4489 12.2751C10.5359 12.2751 10.5931 12.1733 10.5931 12.0567C10.5931 11.7513 10.7373 11.7831 11.1297 12.1585C11.3184 12.3324 11.4626 12.4045 11.4626 12.3176C11.4626 12.2455 11.3333 12.0567 11.1721 11.9125C10.8094 11.5774 10.8094 11.4056 11.1721 11.4056C11.3312 11.4056 11.7956 11.7237 12.2028 12.1161C12.8835 12.7841 12.9281 12.8562 12.8835 13.4522L12.8857 13.45ZM13.4646 13.0725C13.4371 13.0874 13.1465 12.7544 12.7966 12.3324C12.1434 11.5223 12.1434 11.2593 12.7966 11.957C13.1741 12.3472 13.5495 12.9856 13.4646 13.0725ZM14.2196 13.7236C14.1475 13.7236 14.0181 13.5943 13.9291 13.4479C13.6831 12.9686 13.7552 12.7799 14.0733 13.0704C14.3787 13.344 14.4656 13.7236 14.2175 13.7236H14.2196ZM18.1197 12.0419C17.8885 12.4194 17.4389 12.8541 17.265 12.8541C17.0042 12.8541 17.1059 12.5784 17.5704 12.0567C17.8885 11.7089 17.9458 11.5498 17.8016 11.5498C17.5831 11.5498 16.9893 12.1733 16.7009 12.6654C16.5418 12.9707 14.9449 13.1871 14.9449 12.9114C14.9449 12.8096 15.017 12.6802 15.0891 12.6357C15.1761 12.5911 15.2333 12.4342 15.2333 12.3027C15.2185 12.114 15.1315 12.1733 14.8707 12.4915C14.6819 12.7247 14.508 12.8817 14.4805 12.8541C14.4529 12.8096 14.3066 12.5212 14.1475 12.2179C13.8124 11.5498 13.4074 11.3038 13.5685 11.8552C13.8145 12.7099 13.8018 12.799 13.5388 12.4194C13.3946 12.2179 13.0744 11.8552 12.8284 11.5923C12.5301 11.2826 12.651 11.0748 13.191 10.9688C13.6406 10.8818 14.4677 10.7228 15.0191 10.6061C15.5833 10.4895 16.194 10.3728 16.3955 10.3601C16.6712 10.3325 16.7581 10.2286 16.7581 9.95293C16.7581 9.61997 16.8154 9.59028 17.5259 9.54574C18.2512 9.50121 18.6138 9.22763 17.9606 9.22763C17.6425 9.21278 17.6277 9.21278 17.9012 9.01131C18.0603 8.89467 18.4675 8.79288 18.8153 8.79288C19.1631 8.79288 19.4388 8.73562 19.4388 8.66351C19.4388 8.48749 20.251 8.30086 20.4546 8.43023C20.6561 8.55959 19.6275 10.5043 19.25 10.6931C19.0464 10.8076 18.9892 10.9539 19.0464 11.2423C19.1037 11.4905 19.0464 11.781 18.9022 11.9676C18.6986 12.273 18.6689 12.273 18.4802 12.027C18.2936 11.781 18.2787 11.781 18.1175 12.0397L18.1197 12.0419ZM18.5693 17.857C18.4675 17.7276 18.4251 17.5834 18.4823 17.5388C18.599 17.4074 19.0337 17.6682 19.1207 17.9015C19.1928 18.1475 18.7877 18.1178 18.5693 17.857ZM18.6986 19.8865C18.8577 19.7996 19.0761 20.7136 18.9595 21.002C18.9149 21.1187 18.8301 21.0296 18.7283 20.7857C18.5396 20.2788 18.5247 20.0032 18.6986 19.8865ZM18.1345 19.9586C18.2066 19.9586 18.2363 20.0604 18.1918 20.1749C18.1345 20.2916 18.179 20.493 18.2639 20.5948C18.3657 20.7115 18.3805 20.8281 18.3233 20.8705C18.2512 20.9151 18.1197 20.7836 18.0327 20.58C17.844 20.2025 17.9012 19.9565 18.1345 19.9565V19.9586ZM18.2512 24.5988C18.4972 24.7876 18.7156 24.9912 18.7156 25.0633C18.7156 25.252 18.6435 25.2075 18.1918 24.7154C17.9118 24.4157 17.9316 24.3768 18.2512 24.5988ZM17.8737 25.7589C18.1345 26.0918 18.1918 26.8171 18.0051 27.483C17.8016 28.2507 17.6277 27.9051 17.6128 26.6856C17.6128 25.4535 17.6128 25.4407 17.8737 25.7589ZM17.4092 27.6442C17.3074 28.0514 17.1908 28.3971 17.1335 28.4268C17.089 28.4564 17.0466 27.7608 17.0466 26.8765C17.0466 25.269 17.0466 25.252 16.5546 24.5267C16.2789 24.1365 16.1622 23.8905 16.3064 24.005C17.1335 24.6879 17.6849 26.4842 17.4092 27.6442ZM17.3371 22.3084C17.3816 22.3529 17.3816 22.4971 17.3223 22.6265C17.2205 22.8874 16.7581 22.9467 16.6118 22.7135C16.5249 22.5693 17.2077 22.1769 17.3371 22.3063V22.3084ZM16.0477 23.25C16.4103 23.3942 17.1929 24.0029 17.1038 24.075C17.0763 24.1195 16.7857 23.9456 16.4824 23.7272C15.7572 23.1758 15.685 23.1037 16.0477 23.2479V23.25ZM10.6228 26.166C10.6504 26.0791 10.767 25.9625 10.8561 25.9328C10.9579 25.9052 11.0003 25.9603 10.9409 26.1067C10.8391 26.3675 10.5359 26.4269 10.6228 26.166ZM7.37596 33.4296C7.07057 33.2557 6.44707 31.4 6.57856 31.0671C6.72277 30.6896 6.92636 30.9059 7.01331 31.5315C7.07057 31.8793 7.27416 32.242 7.54986 32.5028C7.78314 32.7361 7.98461 32.9949 7.98461 33.0988C7.98461 33.3893 7.63681 33.5759 7.37596 33.4317V33.4296ZM10.2602 29.8201C10.0417 29.8201 10.029 29.7331 10.1011 29.2411C10.1584 28.8636 10.1435 28.6622 10.0417 28.6622C9.66637 28.6622 9.56245 29.661 9.89753 30.0682C10.029 30.2273 9.94206 30.4012 9.50731 30.8359C8.86897 31.4891 8.92835 31.4722 8.3918 31.154C7.79587 30.7914 7.88494 30.6896 8.78201 30.6896C9.55184 30.6896 9.57942 30.6748 9.57942 30.3121C9.57942 30.0534 9.52216 29.9495 9.37794 30.0088C9.27615 30.0534 8.88381 30.1255 8.53601 30.1827C8.10055 30.2506 7.89271 30.0378 7.91251 29.5444C7.95704 28.7025 7.7683 28.5858 7.47776 29.2835C7.20206 29.9219 7.20206 29.3705 7.47776 28.5879C7.78314 27.763 7.75133 27.7036 7.27416 28.2104C7.04088 28.4586 6.78003 28.66 6.70792 28.66C6.47676 28.66 6.36012 28.3992 6.54887 28.2825C6.66339 28.2253 6.65066 28.1532 6.51918 28.0662C6.36012 27.9644 6.37497 27.9369 6.56371 27.9369C6.70792 27.9369 7.07057 27.7036 7.3908 27.43C7.69619 27.1564 8.02915 26.9231 8.1161 26.9231C8.21789 26.9231 8.5657 27.184 8.88381 27.5021C9.21889 27.8202 9.55185 28.0811 9.62395 28.0811C9.69606 28.0811 9.7109 27.8054 9.66849 27.4724C9.61052 27.0568 9.79856 26.839 10.2326 26.8192C10.8413 26.8044 10.9579 26.8468 11.4223 27.3706C12.0458 28.0514 12.3215 27.9347 11.9886 27.1373C11.7277 26.5287 11.6832 25.9052 11.9016 25.9052C11.9886 25.9052 12.0458 26.007 12.0458 26.1236C12.0458 26.4417 12.3936 26.5435 12.786 26.3399C12.9981 26.224 12.9931 26.0791 12.7711 25.9052C12.5492 25.7412 12.564 25.6253 12.8157 25.5574C13.0193 25.5129 13.2229 25.3538 13.2632 25.2075C13.3353 24.9911 13.4964 24.9318 13.9588 24.9466C14.7434 24.9615 14.8876 24.584 14.2641 24.0771C13.7276 23.6296 13.8867 23.6296 14.4953 24.0771C14.7562 24.2807 15.0615 24.3973 15.1633 24.3528C15.28 24.3252 15.5981 24.4694 15.8738 24.7006C16.7306 25.3686 16.5418 26.2954 15.3966 27.0483C14.6565 27.5424 13.2059 28.8912 13.2059 29.0927C13.2059 29.4405 13.6852 29.3832 14.438 28.9485C14.9696 28.6487 15.2354 28.6247 15.2354 28.8764C15.2354 29.0948 15.0764 29.4129 14.8431 29.6313C14.6268 29.8646 14.5377 30.0534 14.6268 30.0809C14.7286 30.1085 14.8007 30.2103 14.8007 30.3121C14.8007 30.5157 13.8294 31.5018 13.7276 31.4C13.6831 31.3576 13.7276 31.0522 13.8124 30.7193C13.9439 30.1827 13.9291 30.0661 13.7106 29.8201C13.5664 29.661 13.2907 29.5296 13.0871 29.5296C12.8411 29.5296 12.769 29.4723 12.8114 29.3281C12.8835 29.1521 12.8114 29.1521 12.4339 29.2687C11.3608 29.6038 10.5041 29.8201 10.2581 29.8201H10.2602ZM11.7256 40.8671C11.5941 40.7653 11.4648 40.4323 11.4075 40.129C11.363 39.8237 11.2315 39.4907 11.117 39.3889C10.7246 39.0835 10.6228 40.1418 10.9409 40.9837C11.013 41.1576 10.8837 41.2021 10.275 41.217C9.85299 41.2297 9.41824 41.217 9.33129 41.1725C9.22949 41.1279 9.14254 40.9264 9.14254 40.7229C9.15244 40.4627 9.25423 40.4677 9.44793 40.7377C9.60698 40.9561 9.81058 41.13 9.86784 41.13C9.93994 41.13 9.89541 40.9561 9.78089 40.7377C9.67909 40.5044 9.57942 40.2436 9.57942 40.1418C9.57942 39.9106 10.4489 38.1843 10.521 38.2564C10.5656 38.284 10.4765 38.6488 10.3471 39.0538C10.1584 39.6625 10.1435 39.8958 10.275 40.286C10.3768 40.5468 10.4192 40.6041 10.3768 40.4026C10.275 39.8809 10.6101 38.5173 10.8264 38.5173C11.117 38.5173 11.7256 39.6625 11.8423 40.4026C11.9271 40.9816 11.9144 41.0388 11.7256 40.8671ZM11.855 33.1688C11.8274 33.0245 11.609 32.8061 11.3757 32.7043C11.013 32.5304 10.9409 32.401 10.8688 31.7054C10.8264 31.2707 10.7395 30.7914 10.6822 30.662C10.5953 30.4584 10.6377 30.4012 10.8688 30.4012C11.0279 30.4012 11.5072 30.2718 11.9271 30.1106C12.3343 29.9516 12.7118 29.8498 12.7393 29.8943C12.7669 29.9219 12.6524 30.1552 12.4636 30.416C12.1731 30.8359 12.1307 31.0374 12.1731 32.0829C12.2028 33.1836 12.0289 33.8071 11.855 33.1709V33.1688ZM13.3501 40.5193C13.3501 40.9116 12.8581 40.954 12.364 40.6041C11.785 40.199 11.944 39.6052 12.9726 38.3137C13.2059 38.0231 13.3946 37.5884 13.4074 37.37C13.4222 37.0222 13.4667 36.9776 13.6682 37.0794C14.3363 37.4421 14.3638 38.1525 13.7849 39.3126C13.5516 39.7918 13.3501 40.3284 13.3501 40.5171V40.5193ZM14.6098 43.465C14.5801 44.1033 14.4656 44.1754 14.1623 43.711C13.6682 42.9433 13.4371 42.2901 13.5961 42.1289C13.7128 42.0144 13.7849 42.042 13.8421 42.2456C13.9015 42.4046 14.0902 42.623 14.2917 42.7248C14.5823 42.8839 14.6395 43.0154 14.6098 43.465ZM15.0319 42.1586C14.7986 41.9366 14.6296 41.9267 14.525 42.1289C14.2917 42.5361 14.0309 42.5212 14.1623 42.1162C14.4953 41.0282 14.4656 41.0431 15.017 41.709C15.5811 42.3898 15.5811 42.6803 15.0319 42.1586ZM15.35 38.1568C15.2779 38.2289 15.2333 38.0125 15.2333 37.6647C15.2333 37.054 15.2185 37.0412 14.7986 37.0985C14.5653 37.143 14.3638 37.1133 14.3638 37.054C14.3638 36.8801 14.8707 36.6341 15.2058 36.6341C15.3648 36.6341 15.6405 36.5047 15.8293 36.3287C16.105 36.0975 16.1198 36.053 15.9162 36.1102C14.7434 36.4877 14.7116 36.4008 15.685 35.5016C16.129 35.0958 16.3849 35.1488 16.4528 35.6606C16.5397 36.4135 16.4528 36.6044 15.9035 36.8334C15.8017 36.8779 15.8165 36.95 15.9607 37.0518C16.1346 37.1685 16.1198 37.2554 15.8165 37.6032C15.6151 37.8196 15.4093 38.0677 15.3521 38.1546L15.35 38.1568ZM18.6562 37.9107C18.5693 38.0401 18.4802 38.0401 18.249 37.8832C17.9882 37.6944 17.9161 37.6944 17.7422 37.8683C17.5683 38.0571 17.5831 38.1292 17.8291 38.4049C18.1197 38.7103 18.2215 38.9563 18.0454 38.9563C18.003 38.9563 17.7994 38.7548 17.598 38.5215C17.1484 37.9701 16.9596 38.0571 17.3944 38.6085C17.8164 39.145 17.6425 39.2447 17.1187 38.7378C16.843 38.477 16.6118 38.3752 16.4506 38.4324C16.2343 38.5194 16.2492 38.5767 16.6097 38.9393C17.1166 39.4907 16.9575 39.8682 16.3637 39.5183C16.0731 39.3592 15.8844 38.5342 16.0138 37.9956C16.0731 37.7793 16.4061 37.3297 16.7687 36.9797C17.3626 36.4008 17.405 36.299 17.405 35.6182C17.405 35.0096 17.4495 34.8929 17.6658 34.8929C18.0412 34.8929 18.4484 35.3722 18.3317 35.6755C18.2745 35.807 18.073 36.0106 17.8546 36.1251C17.564 36.2714 17.4622 36.4305 17.4771 36.7337C17.4771 37.1112 17.7676 37.3424 18.6223 37.6902C18.6944 37.7199 18.7092 37.8196 18.652 37.9086L18.6562 37.9107ZM18.8598 34.6045C18.7729 34.6045 18.7156 34.5027 18.7156 34.3861C18.7156 34.2694 18.7877 34.1697 18.8747 34.1697C18.9764 34.1697 19.004 34.0404 18.9616 33.8644C18.9043 33.6332 18.9171 33.5887 19.0337 33.7053C19.2076 33.8792 19.0782 34.6045 18.8598 34.6045ZM19.3518 36.2714C19.1355 35.9809 18.9892 35.72 19.0337 35.6924C19.0782 35.6479 19.2797 35.8812 19.4981 36.1993C19.9774 36.9098 19.8905 36.9522 19.3539 36.2714H19.3518ZM20.8003 36.6786C20.6264 37.143 20.3528 36.9246 19.9456 36.0402C19.7272 35.5631 19.5978 35.1283 19.6402 35.0838C19.6848 35.0393 19.7569 35.1135 19.8163 35.2428C19.9308 35.5482 20.1641 35.5482 20.1641 35.2428C20.1641 34.8081 20.5267 35.141 20.743 35.7815C20.8724 36.1442 21.076 36.4347 21.2223 36.4623C21.3517 36.4898 21.4683 36.5789 21.4683 36.651C21.4683 36.8376 21.2669 36.8101 21.0611 36.6065C20.9318 36.475 20.8724 36.5047 20.8003 36.6786Z" fill="white"/>
<path d="M21.5129 28.9487C21.4408 28.9487 21.252 29.0781 21.1078 29.2393C20.9615 29.3983 20.9042 29.5298 20.9912 29.5298C21.0633 29.5298 21.252 29.4004 21.3984 29.2393C21.5426 29.0802 21.5998 28.9487 21.515 28.9487H21.5129Z" fill="white"/>
<path d="M65.0178 29.6608L64.7633 30.3882C64.2565 30.6957 63.7581 30.9184 63.2724 31.0563C62.7868 31.1941 62.2566 31.2641 61.684 31.2641C61.0117 31.2641 60.3861 31.1623 59.8093 30.9587C59.2324 30.7551 58.7277 30.4646 58.295 30.0871C57.8624 29.7096 57.5104 29.2876 57.2368 28.8189C56.9632 28.3502 56.7554 27.8412 56.6112 27.2919C56.467 26.7427 56.397 26.1404 56.397 25.4829C56.397 23.8224 56.8805 22.446 57.8454 21.356C58.8104 20.2659 60.1295 19.7188 61.7985 19.7188C62.193 19.7188 62.5599 19.7463 62.8949 19.8015C63.2321 19.8566 63.6414 19.9605 64.125 20.1132C64.6085 20.2659 64.9054 20.3571 65.0136 20.3825C64.9181 20.6688 64.846 20.9509 64.7994 21.2266C64.7294 21.6698 64.6827 22.1831 64.6573 22.7663H64.248L64.2416 21.8437C64.1992 21.3326 63.9638 20.953 63.5354 20.7028C63.107 20.4525 62.4814 20.3274 61.6586 20.3274C61.0414 20.338 60.5197 20.4334 60.0892 20.6116C59.6587 20.7897 59.2812 21.076 58.9525 21.462C58.6238 21.8501 58.3565 22.3421 58.1487 22.938C57.9409 23.534 57.8348 24.2826 57.8306 25.1839C57.8306 26.7618 58.2314 28.03 59.0352 28.9907C59.8389 29.9514 60.8993 30.4328 62.2184 30.4328C62.8122 30.4328 63.3636 30.3331 63.8726 30.1359C64.2204 30.0001 64.564 29.7881 64.9075 29.4954L65.0178 29.6587V29.6608Z" fill="white"/>
<path d="M68.2817 31.0436V30.5134C68.6253 30.5092 68.8374 30.4922 68.9222 30.4625C69.007 30.4349 69.0855 30.3798 69.1576 30.2992C69.2297 30.2186 69.3315 30.0087 69.4672 29.6694C69.5457 29.4764 69.8278 28.7447 70.3134 27.4744L71.94 23.0696C72.1182 22.5861 72.4978 21.5066 73.0789 19.8354H73.5009L76.2791 27.6695C76.7308 28.9398 77.0298 29.7372 77.1783 30.0596C77.261 30.242 77.3501 30.3607 77.4476 30.418C77.5452 30.4752 77.7657 30.5071 78.1093 30.5113V31.0415C77.4328 30.9885 76.9598 30.963 76.6905 30.963L74.5952 31.0415V30.5113C75.0809 30.5007 75.3756 30.4837 75.4796 30.4562C75.5835 30.4286 75.6535 30.3925 75.6916 30.3438C75.7298 30.295 75.7468 30.2335 75.7468 30.1593C75.7468 30.0447 75.7171 29.8963 75.6556 29.7139L74.8561 27.3238H71.0875L70.377 29.3322C70.2519 29.6906 70.1883 29.9535 70.1883 30.1211C70.1883 30.1932 70.2053 30.2547 70.2413 30.3013C70.288 30.3692 70.3622 30.4159 70.4619 30.4413C70.623 30.4837 70.9051 30.5071 71.308 30.5113V31.0415C70.5743 30.9948 70.025 30.9715 69.6623 30.9715C69.2424 30.9715 68.7822 30.9948 68.2817 31.0415V31.0436ZM71.308 26.6621H74.5952L72.9686 21.952L71.308 26.6621Z" fill="white"/>
<path d="M81.3814 20.4442V19.9437C81.5511 19.948 81.8098 19.9564 82.1555 19.9671L83.4046 20.0052C83.6528 20.0052 84.0366 19.9946 84.5562 19.9734C85.2327 19.9416 85.6251 19.9268 85.7353 19.9268C86.5646 19.9268 87.169 20.0158 87.5486 20.1919C87.9282 20.3679 88.223 20.6563 88.4308 21.055C88.6386 21.4537 88.7426 21.8863 88.7426 22.355C88.7426 22.7919 88.645 23.2266 88.4499 23.6593C88.2548 24.0919 87.9706 24.4503 87.5995 24.7366C87.2283 25.0229 86.7448 25.2435 86.151 25.4004C86.2592 25.5828 86.5158 25.9879 86.9187 26.6198L88.5581 29.2135C89.0267 29.9367 89.3003 30.3417 89.3788 30.4245C89.417 30.4605 89.4572 30.4881 89.4954 30.5029C89.5612 30.5284 89.7033 30.5411 89.9259 30.5411V31.0416C89.5972 31.0098 89.3067 30.9949 89.0607 30.9949C88.8147 30.9949 88.4902 31.0098 88.1169 31.0416C87.8349 30.6514 87.3619 29.8879 86.6982 28.7533C86.3291 28.1234 86.0047 27.5975 85.7226 27.1755C85.2666 26.4777 84.834 25.8458 84.4205 25.2774L84.4862 25.0441C84.711 25.059 84.8828 25.0674 84.9994 25.0674C85.7884 25.0674 86.3885 24.8427 86.7957 24.3952C87.2029 23.9477 87.4086 23.356 87.4086 22.6222C87.4086 21.9818 87.2326 21.4728 86.8805 21.0953C86.5285 20.7178 85.9983 20.5291 85.2857 20.5291C84.8383 20.5291 84.4014 20.6096 83.9709 20.7708C83.9539 21.0529 83.9412 21.3158 83.9327 21.5597C83.9285 21.6318 83.9136 22.3911 83.886 23.8332V27.3006C83.886 28.0089 83.8945 28.6982 83.9115 29.3704C83.92 29.8646 83.9497 30.1594 83.9984 30.2527C84.0472 30.346 84.1299 30.416 84.2423 30.4605C84.3547 30.505 84.6665 30.5326 85.1797 30.5432V31.0437C84.5626 31.0013 83.9963 30.9822 83.481 30.9822C83.0653 30.9822 82.3633 31.0034 81.3793 31.0437V30.5432C81.8904 30.5326 82.2043 30.505 82.3167 30.4605C82.4291 30.416 82.5076 30.3545 82.5521 30.2781C82.6051 30.1742 82.6369 29.9218 82.6496 29.521C82.6539 29.4107 82.6624 28.6727 82.6751 27.3027V23.6868C82.6751 22.9785 82.6687 22.2871 82.656 21.6085C82.6433 21.1144 82.6115 20.8217 82.5606 20.7305C82.5097 20.6393 82.4312 20.5715 82.3188 20.5269C82.2085 20.4824 81.8947 20.4548 81.3772 20.4442H81.3814Z" fill="white"/>
<path d="M92.9522 20.4442V19.9437C93.1219 19.948 93.3806 19.9564 93.7263 19.9671L94.9754 20.0052C95.2236 20.0052 95.6074 19.9946 96.127 19.9734C96.8035 19.9416 97.1959 19.9268 97.3061 19.9268C98.1354 19.9268 98.7398 20.0158 99.1194 20.1919C99.499 20.3679 99.7938 20.6563 100.002 21.055C100.209 21.4537 100.313 21.8863 100.313 22.355C100.313 22.7919 100.216 23.2266 100.021 23.6593C99.8256 24.0919 99.5414 24.4503 99.1703 24.7366C98.7991 25.0229 98.3156 25.2435 97.7218 25.4004C97.83 25.5828 98.0866 25.9879 98.4895 26.6198L100.129 29.2135C100.598 29.9367 100.871 30.3417 100.95 30.4245C100.988 30.4605 101.028 30.4881 101.066 30.5029C101.132 30.5284 101.274 30.5411 101.497 30.5411V31.0416C101.168 31.0098 100.877 30.9949 100.631 30.9949C100.385 30.9949 100.061 31.0098 99.6877 31.0416C99.4057 30.6514 98.9327 29.8879 98.269 28.7533C97.8999 28.1234 97.5755 27.5975 97.2934 27.1755C96.8375 26.4777 96.4048 25.8458 95.9913 25.2774L96.057 25.0441C96.2818 25.059 96.4536 25.0674 96.5702 25.0674C97.3592 25.0674 97.9593 24.8427 98.3665 24.3952C98.7737 23.9477 98.9794 23.356 98.9794 22.6222C98.9794 21.9818 98.8034 21.4728 98.4513 21.0953C98.0993 20.7178 97.5691 20.5291 96.8565 20.5291C96.4091 20.5291 95.9722 20.6096 95.5417 20.7708C95.5247 21.0529 95.512 21.3158 95.5035 21.5597C95.4993 21.6318 95.4844 22.3911 95.4568 23.8332V27.3006C95.4568 28.0089 95.4653 28.6982 95.4823 29.3704C95.4908 29.8646 95.5205 30.1594 95.5692 30.2527C95.618 30.346 95.7007 30.416 95.8131 30.4605C95.9255 30.505 96.2373 30.5326 96.7505 30.5432V31.0437C96.1334 31.0013 95.5671 30.9822 95.0518 30.9822C94.6361 30.9822 93.9341 31.0034 92.9501 31.0437V30.5432C93.4612 30.5326 93.7751 30.505 93.8875 30.4605C93.9999 30.416 94.0784 30.3545 94.1229 30.2781C94.1759 30.1742 94.2077 29.9218 94.2204 29.521C94.2247 29.4107 94.2332 28.6727 94.2459 27.3027V23.6868C94.2459 22.9785 94.2395 22.2871 94.2268 21.6085C94.2141 21.1144 94.1823 20.8217 94.1314 20.7305C94.0805 20.6393 94.002 20.5715 93.8896 20.5269C93.7793 20.4824 93.4655 20.4548 92.948 20.4442H92.9522Z" fill="white"/>
<path d="M104.549 20.4443V19.9438L106.54 19.9905L108.375 19.9438V20.4443C107.859 20.4549 107.545 20.4825 107.435 20.5271C107.325 20.5716 107.246 20.6331 107.204 20.7116C107.151 20.8155 107.119 21.0678 107.106 21.4687C107.102 21.5726 107.094 22.3127 107.081 23.687V24.7728C107.936 24.8088 108.977 24.8279 110.205 24.8279C111.146 24.8279 111.899 24.8088 112.463 24.7728V23.687C112.463 22.9786 112.455 22.2873 112.438 21.6086C112.425 21.1145 112.393 20.8218 112.342 20.7306C112.292 20.6395 112.213 20.5716 112.101 20.5271C111.99 20.4825 111.677 20.4549 111.159 20.4443V19.9438C112.092 19.9757 112.733 19.9905 113.078 19.9905C113.208 19.9905 113.842 19.9757 114.979 19.9438V20.4443C114.467 20.4549 114.154 20.4825 114.041 20.5271C113.929 20.5716 113.852 20.6331 113.814 20.7094C113.757 20.8134 113.723 21.0657 113.71 21.4665C113.706 21.5705 113.698 22.3085 113.685 23.6827V27.2965C113.685 28.0048 113.693 28.6941 113.71 29.3642C113.719 29.8583 113.748 30.1531 113.797 30.2464C113.846 30.3398 113.929 30.4097 114.041 30.4543C114.154 30.4988 114.467 30.5264 114.979 30.537V31.0438C114.141 31.0014 113.456 30.9823 112.921 30.9823C112.353 30.9823 111.766 31.0035 111.157 31.0438V30.537C111.672 30.5264 111.986 30.4988 112.099 30.4543C112.211 30.4097 112.285 30.3482 112.33 30.2719C112.387 30.168 112.419 29.9156 112.427 29.5148C112.432 29.4066 112.442 28.6665 112.459 27.3007V25.5235C111.244 25.4917 110.321 25.4769 109.694 25.4769C109.009 25.4769 108.135 25.4917 107.077 25.5235V27.3007C107.077 28.0069 107.083 28.6962 107.096 29.3663C107.108 29.8605 107.14 30.1531 107.191 30.2486C107.24 30.3419 107.32 30.4119 107.433 30.4543C107.545 30.4967 107.857 30.5264 108.372 30.537V31.0438C107.787 30.9972 107.183 30.9739 106.563 30.9739C105.887 30.9739 105.215 30.9972 104.547 31.0438V30.537C105.058 30.5264 105.372 30.4988 105.484 30.4543C105.596 30.4097 105.675 30.3482 105.719 30.2719C105.772 30.168 105.804 29.9156 105.817 29.5148C105.821 29.4066 105.83 28.6665 105.842 27.2986V23.6848C105.842 22.9765 105.836 22.2852 105.823 21.6086C105.811 21.1145 105.779 20.8218 105.728 20.7306C105.677 20.6395 105.598 20.5716 105.486 20.5271C105.376 20.4825 105.062 20.4549 104.544 20.4443H104.549Z" fill="white"/>
<path d="M118.212 31.0436V30.5134C118.556 30.5092 118.768 30.4922 118.853 30.4625C118.938 30.4349 119.016 30.3798 119.088 30.2992C119.16 30.2186 119.262 30.0087 119.398 29.6694C119.476 29.4764 119.758 28.7447 120.244 27.4744L121.871 23.0696C122.049 22.5861 122.428 21.5066 123.01 19.8354H123.432L126.21 27.6695C126.661 28.9398 126.96 29.7372 127.109 30.0596C127.192 30.242 127.281 30.3607 127.378 30.418C127.476 30.4752 127.696 30.5071 128.04 30.5113V31.0415C127.363 30.9885 126.891 30.963 126.621 30.963L124.526 31.0415V30.5113C125.012 30.5007 125.306 30.4837 125.41 30.4562C125.514 30.4286 125.584 30.3925 125.622 30.3438C125.66 30.295 125.677 30.2335 125.677 30.1593C125.677 30.0447 125.648 29.8963 125.586 29.7139L124.787 27.3238H121.018L120.308 29.3322C120.183 29.6906 120.119 29.9535 120.119 30.1211C120.119 30.1932 120.136 30.2547 120.172 30.3013C120.219 30.3692 120.293 30.4159 120.393 30.4413C120.554 30.4837 120.836 30.5071 121.239 30.5113V31.0415C120.505 30.9948 119.956 30.9715 119.593 30.9715C119.173 30.9715 118.713 30.9948 118.212 31.0415V31.0436ZM121.241 26.6621H124.528L122.901 21.952L121.241 26.6621Z" fill="white"/>
<path d="M131.482 31.0437V30.5517C131.938 30.5475 132.237 30.505 132.381 30.4266C132.443 30.3948 132.485 30.346 132.511 30.2781C132.553 30.1742 132.585 29.9006 132.602 29.4574C132.627 28.7703 132.64 28.1765 132.64 27.676V23.6847C132.64 22.9764 132.634 22.285 132.621 21.6064C132.608 21.1123 132.576 20.8196 132.525 20.7284C132.475 20.6372 132.396 20.5693 132.284 20.5248C132.173 20.4803 131.86 20.4527 131.342 20.4421V19.9416L133.198 19.9883L135.164 19.9501C136.105 19.9352 136.788 19.9268 137.214 19.9268C137.641 19.9268 138.05 19.9564 138.432 20.0137C138.362 20.3106 138.315 20.5672 138.29 20.7878C138.281 20.8344 138.241 21.3752 138.173 22.4123H137.764C137.768 21.8821 137.74 21.3964 137.679 20.9596C137.439 20.8408 137.178 20.7602 136.892 20.7178C136.406 20.6457 135.921 20.6075 135.435 20.6075C135.331 20.6075 135.098 20.6181 134.739 20.6393C134.379 20.6605 134.12 20.6775 133.965 20.6945C133.948 21.2734 133.936 21.8142 133.927 22.319L133.902 24.9593C134.409 24.9911 134.875 25.0059 135.301 25.0059C135.817 25.0059 136.258 24.9784 136.623 24.9211C136.761 24.8999 136.85 24.8575 136.89 24.796C136.928 24.7324 136.964 24.5203 136.994 24.1555L137.032 23.6084H137.422V23.7568L137.39 25.3813L137.422 27.2009H136.966L136.947 26.6707C136.939 26.2848 136.909 26.0451 136.86 25.9518C136.809 25.8585 136.716 25.7927 136.576 25.7567C136.328 25.6931 135.849 25.6634 135.138 25.6634C134.848 25.6634 134.436 25.6761 133.902 25.7016C133.881 26.2233 133.87 26.9952 133.87 28.0217C133.87 28.9845 133.881 29.7161 133.902 30.2166C134.527 30.2739 135.227 30.3036 136.003 30.3036C136.555 30.3036 136.947 30.2824 137.183 30.24C137.416 30.1975 137.634 30.1276 137.834 30.03C137.887 29.8688 137.938 29.6504 137.991 29.3747C138.086 28.9102 138.15 28.5624 138.179 28.327H138.61C138.497 29.3789 138.44 30.2506 138.44 30.944C138.067 31.0119 137.613 31.0458 137.081 31.0458L133.196 30.9843C133.138 30.9843 132.57 31.0055 131.49 31.0458L131.482 31.0437Z" fill="white"/>
<path d="M156.906 29.6608L156.651 30.3882C156.144 30.6957 155.646 30.9184 155.16 31.0563C154.674 31.1941 154.144 31.2641 153.572 31.2641C152.899 31.2641 152.274 31.1623 151.697 30.9587C151.12 30.7551 150.615 30.4646 150.183 30.0871C149.75 29.7096 149.398 29.2876 149.124 28.8189C148.851 28.3502 148.643 27.8412 148.499 27.2919C148.355 26.7427 148.285 26.1404 148.285 25.4829C148.285 23.8224 148.768 22.446 149.733 21.356C150.698 20.2659 152.017 19.7188 153.686 19.7188C154.081 19.7188 154.448 19.7463 154.783 19.8015C155.12 19.8566 155.529 19.9605 156.013 20.1132C156.496 20.2659 156.793 20.3571 156.901 20.3825C156.806 20.6688 156.734 20.9509 156.687 21.2266C156.617 21.6698 156.57 22.1831 156.545 22.7663H156.136L156.129 21.8437C156.087 21.3326 155.852 20.953 155.423 20.7028C154.995 20.4525 154.369 20.3274 153.546 20.3274C152.929 20.338 152.407 20.4334 151.977 20.6116C151.546 20.7918 151.169 21.076 150.842 21.462C150.514 21.8501 150.246 22.3421 150.039 22.938C149.831 23.534 149.725 24.2826 149.72 25.1839C149.72 26.7618 150.121 28.03 150.925 28.9907C151.729 29.9514 152.789 30.4328 154.108 30.4328C154.702 30.4328 155.253 30.3331 155.762 30.1359C156.11 30.0001 156.454 29.7881 156.797 29.4954L156.908 29.6587L156.906 29.6608Z" fill="white"/>
<path d="M160.172 31.0436V30.5134C160.513 30.5092 160.727 30.4922 160.812 30.4625C160.897 30.4349 160.975 30.3798 161.048 30.2992C161.12 30.2186 161.221 30.0087 161.357 29.6694C161.436 29.4764 161.718 28.7447 162.203 27.4744L163.83 23.0696C164.008 22.5861 164.388 21.5066 164.969 19.8354H165.393L168.171 27.6695C168.623 28.9398 168.922 29.7372 169.068 30.0596C169.151 30.242 169.24 30.3607 169.338 30.418C169.435 30.4752 169.656 30.5071 169.999 30.5113V31.0415C169.323 30.9885 168.85 30.963 168.58 30.963L166.485 31.0415V30.5113C166.971 30.5007 167.266 30.4837 167.369 30.4562C167.473 30.4286 167.543 30.3925 167.582 30.3438C167.62 30.295 167.637 30.2335 167.637 30.1593C167.637 30.0447 167.607 29.8963 167.545 29.7139L166.746 27.3238H162.977L162.269 29.3322C162.144 29.6906 162.08 29.9535 162.08 30.1211C162.08 30.1932 162.097 30.2547 162.133 30.3013C162.18 30.3692 162.254 30.4159 162.354 30.4413C162.515 30.4837 162.797 30.5071 163.2 30.5113V31.0415C162.466 30.9948 161.917 30.9715 161.554 30.9715C161.132 30.9715 160.674 30.9948 160.174 31.0415L160.172 31.0436ZM163.198 26.6621H166.485L164.858 21.952L163.198 26.6621Z" fill="white"/>
<path d="M173.329 20.4441V19.9436C174.2 19.9754 174.892 19.9902 175.399 19.9902C175.738 19.9902 176.096 19.986 176.478 19.9754L177.5 19.9372C177.613 19.933 177.717 19.9287 177.812 19.9287C178.501 19.9287 179.044 20.0199 179.439 20.2023C179.833 20.3847 180.141 20.6752 180.363 21.0739C180.586 21.4726 180.696 21.9265 180.696 22.4376C180.696 22.8956 180.605 23.3516 180.421 23.8033C180.236 24.255 179.969 24.641 179.617 24.9549C179.265 25.2709 178.898 25.4957 178.516 25.6314C178.255 25.7247 177.96 25.7714 177.632 25.7714C177.354 25.7714 177.055 25.7353 176.735 25.6611L176.599 25.0758C176.985 25.1797 177.288 25.2327 177.511 25.2327C177.835 25.2327 178.145 25.1373 178.438 24.9485C178.73 24.7598 178.959 24.4735 179.121 24.0917C179.284 23.71 179.364 23.288 179.364 22.8257C179.364 22.3633 179.286 21.9752 179.127 21.6126C178.968 21.2521 178.728 20.9764 178.404 20.7897C178.081 20.6031 177.689 20.5098 177.229 20.5098C176.817 20.5098 176.374 20.5989 175.901 20.7749C175.863 21.3263 175.842 22.1915 175.842 23.3686V27.3047C175.842 28.013 175.848 28.7022 175.861 29.3745C175.874 29.8687 175.905 30.1634 175.956 30.2568C176.005 30.3501 176.086 30.42 176.198 30.4646C176.308 30.5091 176.622 30.5367 177.138 30.5473V31.0478C176.334 31.0054 175.744 30.9863 175.367 30.9863C175.218 30.9863 174.54 31.0075 173.329 31.0478V30.5473C173.84 30.5367 174.154 30.5091 174.266 30.4646C174.379 30.42 174.457 30.3585 174.502 30.2822C174.555 30.1783 174.586 29.9259 174.599 29.5251C174.603 29.4148 174.612 28.6768 174.625 27.3068V23.6909C174.625 22.9826 174.618 22.2912 174.605 21.6126C174.593 21.1185 174.561 20.8258 174.51 20.7346C174.459 20.6434 174.381 20.5755 174.268 20.531C174.158 20.4865 173.844 20.4589 173.327 20.4483L173.329 20.4441Z" fill="white"/>
<path d="M187.835 30.5433V31.0438C186.91 31.0014 186.303 30.9823 186.013 30.9823L184.002 31.0438V30.5433C184.514 30.5327 184.827 30.5052 184.94 30.4606C185.052 30.4161 185.131 30.3546 185.175 30.2783C185.228 30.1743 185.26 29.922 185.273 29.5211C185.277 29.4109 185.285 28.6728 185.298 27.3028V23.687C185.298 22.9786 185.292 22.2873 185.279 21.6086C185.266 21.1145 185.235 20.8218 185.184 20.7306C185.133 20.6395 185.054 20.5716 184.942 20.5271C184.832 20.4825 184.518 20.4549 184.002 20.4443V19.9438C184.832 19.9799 185.472 19.999 185.922 19.999C186.371 19.999 186.993 19.9799 187.835 19.9438V20.4443C187.319 20.4549 187.005 20.4825 186.895 20.5271C186.785 20.5716 186.706 20.6331 186.664 20.7116C186.611 20.8155 186.579 21.0678 186.566 21.4687C186.562 21.5726 186.554 22.3127 186.541 23.687V27.3028C186.541 28.0112 186.547 28.7004 186.56 29.3727C186.573 29.8668 186.605 30.1616 186.655 30.2549C186.704 30.3482 186.785 30.4182 186.897 30.4628C187.008 30.5073 187.321 30.5349 187.837 30.5455L187.835 30.5433Z" fill="white"/>
<path d="M191.601 22.529H191.198C191.194 21.2842 191.173 20.4231 191.132 19.9438C191.605 19.9651 192.348 19.9905 193.359 20.0223C194.18 20.0435 194.727 20.0541 194.998 20.0541C195.293 20.0541 195.976 20.0393 197.049 20.0075C197.825 19.9863 198.392 19.9651 198.748 19.946C198.695 20.5292 198.661 21.3902 198.644 22.5312H198.228L198.175 21.7804C198.141 21.3266 198.116 21.07 198.103 21.0063C198.09 20.9448 198.071 20.9003 198.048 20.8727C198.025 20.8473 197.989 20.8261 197.94 20.8091C197.878 20.7943 197.662 20.7731 197.289 20.7476C196.916 20.7222 196.621 20.7094 196.404 20.7094H195.609C195.567 21.2099 195.543 21.8843 195.543 22.7326V27.3007C195.543 28.0091 195.55 28.6983 195.563 29.3706C195.575 29.8647 195.607 30.1595 195.658 30.2528C195.707 30.3461 195.787 30.4161 195.9 30.4606C196.01 30.5052 196.324 30.5327 196.839 30.5433V31.0438C196.063 31.0014 195.48 30.9823 195.088 30.9823C194.918 30.9823 194.241 31.0035 193.056 31.0438V30.5433C193.571 30.5327 193.887 30.5052 194 30.4606C194.112 30.4161 194.188 30.3546 194.226 30.2783C194.284 30.1743 194.318 29.922 194.33 29.5211C194.33 29.4109 194.339 28.6728 194.356 27.3028V22.7496C194.356 22.5312 194.352 22.2915 194.343 22.0307L194.303 20.7116H193.334C192.774 20.7116 192.328 20.737 192 20.79C191.896 20.8049 191.828 20.8388 191.798 20.8918C191.749 20.9809 191.707 21.2651 191.669 21.7422L191.597 22.5312L191.601 22.529Z" fill="white"/>
<path d="M200.932 31.0436V30.5134C201.276 30.5092 201.488 30.4922 201.573 30.4625C201.658 30.4349 201.736 30.3798 201.808 30.2992C201.88 30.2186 201.982 30.0087 202.118 29.6694C202.196 29.4764 202.478 28.7447 202.964 27.4744L204.591 23.0696C204.769 22.5861 205.148 21.5066 205.729 19.8354H206.154L208.932 27.6695C209.383 28.9398 209.683 29.7372 209.829 30.0596C209.912 30.242 210.001 30.3607 210.098 30.418C210.196 30.4752 210.416 30.5071 210.76 30.5113V31.0415C210.083 30.9885 209.61 30.963 209.341 30.963L207.246 31.0415V30.5113C207.731 30.5007 208.026 30.4837 208.13 30.4562C208.234 30.4286 208.304 30.3925 208.342 30.3438C208.378 30.295 208.397 30.2335 208.397 30.1593C208.397 30.0447 208.368 29.8963 208.306 29.7139L207.504 27.3238H203.736L203.025 29.3322C202.9 29.6906 202.837 29.9535 202.837 30.1211C202.837 30.1932 202.854 30.2547 202.89 30.3013C202.939 30.3692 203.011 30.4159 203.11 30.4413C203.271 30.4837 203.554 30.5071 203.956 30.5113V31.0415C203.223 30.9948 202.673 30.9715 202.311 30.9715C201.889 30.9715 201.431 30.9948 200.93 31.0415L200.932 31.0436ZM203.959 26.6621H207.246L205.619 21.952L203.959 26.6621Z" fill="white"/>
<path d="M214.565 31.0438V30.6367C214.834 30.4861 215.006 30.3652 215.078 30.2783C215.12 30.2316 215.152 30.1722 215.169 30.098C215.209 29.9517 215.235 29.6399 215.247 29.1606C215.264 28.448 215.273 28.0239 215.273 27.8882V23.687C215.273 22.9786 215.266 22.2873 215.254 21.6086C215.241 21.1145 215.209 20.8218 215.158 20.7306C215.107 20.6395 215.029 20.5716 214.917 20.5271C214.806 20.4825 214.492 20.4549 213.977 20.4443V19.9438C215.035 19.9863 215.691 20.0053 215.943 20.0053C216.221 20.0053 216.842 19.9841 217.811 19.9438V20.4443C217.296 20.4549 216.982 20.4825 216.872 20.5271C216.762 20.5716 216.685 20.6331 216.641 20.7116C216.588 20.8155 216.556 21.0678 216.543 21.4687C216.539 21.5726 216.53 22.3127 216.518 23.687V28.9358C216.518 29.483 216.526 29.9283 216.543 30.2719C217.037 30.3079 217.527 30.327 218.015 30.327C219.239 30.327 220.095 30.2337 220.585 30.045C220.643 29.888 220.691 29.7099 220.736 29.5063L220.997 28.2105H221.434C221.338 28.9867 221.245 29.8986 221.154 30.9442C220.976 30.9866 220.836 31.012 220.73 31.0226C220.505 31.0375 220.157 31.046 219.688 31.046L215.835 30.9845C215.419 30.9845 214.995 31.0057 214.567 31.046L214.565 31.0438Z" fill="white"/>
</svg>
