<svg width="87" height="98" viewBox="0 0 87 98" fill="none" xmlns="http://www.w3.org/2000/svg">
<path d="M28.5123 21.3398C28.2886 21.5593 28.6505 22.4214 28.9596 22.4214C29.0978 22.4214 29.2076 22.336 29.2076 22.2262C29.2076 21.8358 28.679 21.169 28.5123 21.3357V21.3398Z" fill="white"/>
<path d="M23.3726 25.1746C23.3726 24.6744 22.5919 24.955 22.1528 25.6219C21.5957 26.4554 21.5672 26.7645 22.1243 26.3172C22.3479 26.122 22.7627 26.0692 23.1246 26.1789C23.6247 26.3457 23.7061 26.2887 23.5678 25.8984C23.458 25.6503 23.3726 25.3128 23.3726 25.1746Z" fill="white"/>
<path d="M34.4612 19.9208C34.1847 19.9208 33.9326 20.059 33.9326 20.1973C33.9326 20.364 34.266 20.4738 34.6564 20.4738C35.0468 20.4738 35.2948 20.364 35.1809 20.1973C35.0956 20.059 34.7662 19.9208 34.4572 19.9208H34.4612Z" fill="white"/>
<path d="M42.1667 71.0455C42.9149 70.7121 43.8054 70.2119 44.1388 69.907C44.8626 69.2116 46.8103 68.74 46.973 69.1832C47.0299 69.3784 47.4203 69.8216 47.8065 70.1875C48.4205 70.7446 48.4449 70.8259 48.0017 70.7446C47.7252 70.7161 47.4162 70.7975 47.3593 70.9398C47.3064 71.135 47.6927 71.1878 48.3596 71.135C49.6119 70.9967 49.6404 70.525 48.4165 69.8012C47.6358 69.358 47.6927 69.358 50.0552 69.9395C53.1984 70.6917 53.0845 70.6348 51.4743 70.7487C50.6407 70.8015 49.8315 70.9967 49.6689 71.1919C49.5022 71.4155 49.0264 71.6392 48.6117 71.749C46.8876 72.1393 48.4449 73.53 50.1934 73.1965C50.6407 73.0827 51.2506 72.7777 51.5841 72.5012C51.946 72.1393 52.6941 71.9441 53.8937 71.8628C54.837 71.81 55.6178 71.8344 55.6178 71.9482C55.6178 72.0621 55.9512 72.5581 56.37 73.0298C57.0938 73.9203 57.1182 73.9203 57.3418 73.3063C57.537 72.8062 57.6468 72.7493 57.9802 73.0298C58.2039 73.225 58.704 73.2779 59.1757 73.1681C59.8954 73.0298 60.1191 73.1396 60.8713 74.0586C61.5192 74.8366 61.7049 75.4208 61.4284 75.8111C61.1803 76.1445 61.095 76.173 60.9852 75.8396C60.8998 75.6444 60.5948 75.2825 60.3183 75.0304C59.932 74.697 59.8751 74.5018 60.1231 74.2253C60.3468 73.9488 60.237 73.8634 59.5417 73.8634C59.013 73.8634 58.4844 74.087 58.2079 74.392C57.9558 74.697 57.6224 74.8678 57.4841 74.7824C57.3459 74.697 57.289 75.2825 57.3174 76.0876C57.3988 77.5067 57.3418 77.5881 56.122 78.7591C55.0363 79.7594 54.6175 79.979 53.7595 79.979C53.174 79.979 52.3973 80.1742 52.0639 80.4263C51.5068 80.8126 51.4539 80.8126 51.4539 80.3409C51.4539 79.6456 50.9253 79.1454 50.4252 79.3406C50.23 79.426 49.8153 79.2837 49.5062 79.0072C48.6726 78.2549 47.6683 78.4216 45.9767 79.5927C43.7241 81.1216 43.6997 81.6177 45.7816 82.3455C46.5867 82.622 46.9486 82.622 47.2535 82.3984C47.4487 82.2317 47.9773 82.1219 48.3961 82.1504C48.9817 82.2357 49.3151 82.0121 49.8966 81.2314C50.7302 80.1498 51.149 80.0888 50.6204 81.146C49.982 82.3415 49.1484 83.0368 48.3433 83.0368C47.8716 83.0368 47.591 83.1466 47.7049 83.3133C47.7903 83.48 48.6483 83.5898 49.6201 83.5898C51.0107 83.5898 51.4865 83.6996 51.8728 84.1469C52.1818 84.4803 52.7348 84.7039 53.3203 84.7039C54.1539 84.7039 54.5727 84.3705 56.797 82.0609C58.1591 80.6174 59.4929 79.4219 59.7165 79.4219C60.4118 79.4219 61.4691 78.1167 61.4691 77.2262C61.4691 76.7789 61.6073 76.3072 61.7456 76.2259C62.1644 75.9778 62.079 74.8921 61.6073 74.2253C60.7168 72.9729 59.5783 70.3583 59.4685 69.415C59.4115 68.7671 60.4674 68.3781 62.6361 68.2479C65.5556 68.0528 66.1127 67.943 67.6416 67.1623C68.6134 66.6621 69.7804 66.1904 70.2277 66.0806C70.6994 65.9709 71.5329 65.6659 72.1185 65.4138C73.0618 64.995 73.1757 64.995 73.3424 65.4138C73.566 66.0237 71.7851 71.3627 71.3418 71.3627C71.1467 71.3627 70.7034 71.6961 70.3985 72.1434C69.9512 72.7249 69.7601 72.8102 69.5649 72.5053C69.2274 71.9767 65.6979 72.3386 64.9782 72.977C64.3357 73.5584 63.4208 75.3394 63.4208 76.0063C63.4398 76.3207 63.5415 76.3207 63.7258 76.0063C64.0023 75.5061 64.0592 75.5062 64.5594 75.9819C64.8643 76.2299 65.1693 76.3682 65.2791 76.2584C65.393 76.1445 65.3076 75.9494 65.1124 75.8396C64.8074 75.6444 64.8359 75.3638 65.2506 74.2822C65.7752 72.8387 66.1655 73.0298 65.6654 74.4774C65.2181 75.7583 65.3035 76.0348 65.885 75.2866C66.1615 74.8962 66.3607 74.453 66.2753 74.2538C66.1086 73.7821 66.7185 73.4486 67.1089 73.839C67.3325 74.0626 67.3041 74.2294 66.995 74.4774C66.7755 74.6726 66.2428 75.3679 65.8036 76.0063C65.3848 76.6162 64.7708 77.2302 64.4415 77.3116C63.2745 77.6165 64.2178 77.8117 65.5515 77.5352C66.2753 77.3969 67.2756 77.3116 67.7514 77.3969C68.4467 77.5108 68.8045 77.3725 69.4998 76.6772C70.2806 75.8965 70.557 75.8152 72.029 75.8152C74.0581 75.8152 74.42 75.3964 74.668 72.7574C74.977 69.6711 75.3918 67.9755 76.3677 65.8895C77.5875 63.3603 77.5591 62.8561 76.3392 62.2747C75.8147 62.0226 75.3105 61.5793 75.1966 61.3028C74.9201 60.4123 73.8344 60.0789 73.0293 60.6319C72.1347 61.2174 69.1908 61.9128 67.609 61.9128C66.5762 61.9128 66.438 61.8599 66.6087 61.4411C66.747 61.1646 66.8853 60.5221 66.9706 60.022C67.0235 59.5218 67.1943 59.0502 67.3325 58.9648C67.4708 58.8834 67.5806 58.4077 67.5806 57.9116C67.5806 57.383 67.7758 56.8259 67.9953 56.6308C68.219 56.4356 68.4142 56.1021 68.4142 55.907C68.4142 55.3255 69.3575 55.4353 69.9431 56.0737C70.4676 56.6592 71.1954 56.8259 71.1954 56.3786C71.1954 56.2119 71.0857 56.0168 70.9189 55.9314C70.4717 55.6549 70.5855 55.236 71.1426 55.236C71.3906 55.236 71.781 55.1262 72.0006 54.988C72.3055 54.7928 72.1673 54.6261 71.4719 54.2642C70.9718 54.0162 70.3293 53.8495 70.0528 53.9308C69.634 54.0406 69.5242 53.9308 69.5242 53.2924C69.5242 52.7353 69.2477 52.2108 68.6337 51.6537C68.0401 51.1142 68.2258 49.8903 69.1908 47.9819C70.1558 46.0735 71.8609 44.7858 74.3061 44.119C76.3351 43.5619 78.2829 43.0089 78.6448 42.8991C79.088 42.7609 79.2547 42.8137 79.2547 43.0618C79.2547 43.2854 79.4499 43.7002 79.6694 44.0092C80.0313 44.4809 80.0598 44.4524 79.8931 43.5091C79.7264 42.399 80.1981 42.0046 80.503 43.0089C81.0276 44.7045 84.0081 45.3185 85.0613 43.9523C85.3988 43.5375 85.6468 42.9804 85.6468 42.6999C85.6468 42.4518 85.7566 42.1713 85.9233 42.1184C86.338 41.9802 86.2852 40.2561 85.785 38.2514C85.4231 36.8079 85.1182 36.1939 84.2277 35.3319C83.3941 34.4983 83.0607 34.3316 82.894 34.6366C82.7272 34.8602 82.4467 34.9415 82.0319 34.8033C81.4748 34.6366 81.422 34.665 81.6172 35.4701C81.8408 36.442 81.3935 36.6412 80.9218 35.7751C80.6982 35.3888 80.6982 35.0513 80.9218 34.6325C81.1699 34.2137 81.1455 33.9656 80.8934 33.6607C80.4217 33.0792 80.0883 33.189 80.1737 33.9128C80.1981 34.356 80.0883 34.5227 79.6735 34.5227C79.1734 34.5227 79.1164 34.3275 79.1164 32.8556C79.1164 31.9366 79.0066 30.9078 78.8928 30.5744C78.7545 30.1597 78.783 29.936 78.9457 29.936C79.3076 29.936 79.8077 30.855 79.8077 31.5503C79.8077 31.8837 80.0557 32.1602 80.4461 32.27C80.7795 32.3554 81.3041 32.7986 81.6131 33.2703C82.3084 34.2991 82.5849 34.3275 82.5849 33.3801C82.5849 32.9084 82.4182 32.6035 82.0279 32.5221C81.3895 32.3554 81.3325 32.1318 81.7798 31.6886C82.0279 31.4364 81.9994 31.1884 81.6416 30.6598C81.3895 30.2694 81.1943 29.6595 81.1943 29.2976C81.1943 28.7405 81.0845 28.6552 80.499 28.769C80.1086 28.8219 79.8036 29.074 79.8036 29.2976C79.8036 29.5741 79.9988 29.6595 80.442 29.5497C80.7755 29.4643 80.8853 29.4643 80.7185 29.5497C80.4664 29.6595 80.4664 29.8831 80.8283 30.3833C81.4139 31.2982 80.995 31.6601 80.3566 30.7696C80.0517 30.3833 79.5759 29.7408 79.2466 29.3261C78.4943 28.3543 78.5512 28.1021 79.5231 27.907C80.0788 27.7958 80.1709 27.4068 79.7996 26.74C79.4282 26.0704 79.4458 25.6624 79.8524 25.516C80.438 25.2924 80.438 25.2395 79.9907 25.0687C79.7142 24.959 79.5475 24.6784 79.6288 24.4588C79.7426 24.1823 79.6573 24.0969 79.271 24.2352C78.8237 24.3734 78.7424 24.2067 78.6326 22.7632C78.5187 21.1814 77.6038 19.1239 77.3517 19.8721C77.2988 20.0348 77.4371 20.4007 77.6851 20.6244C78.2422 21.1814 78.5187 22.1817 78.1853 22.4013C78.047 22.4867 77.49 23.3203 76.9898 24.2352C76.3609 25.3466 76.018 25.4862 75.9611 24.654C75.8757 23.5968 75.9611 23.3203 76.571 22.8486C76.9613 22.5152 77.2948 22.015 77.2948 21.7385C77.2948 21.3197 77.2419 21.2668 77.0467 21.5433C76.88 21.8198 76.7702 21.767 76.632 21.2384C76.4327 20.4576 74.9892 19.2662 73.9076 18.9897C72.8219 18.7376 72.8789 19.5184 73.9605 19.9046C74.8794 20.2096 74.9892 20.5186 74.4078 21.0147C74.1841 21.1814 73.7653 21.9337 73.4359 22.6819C72.7406 24.2962 71.7119 25.1297 71.1832 24.5198C70.9881 24.2962 70.3212 23.9627 69.6828 23.7676C69.0688 23.6008 68.4304 23.3487 68.2637 23.2105C67.8449 22.8201 67.5684 22.9584 67.5684 23.5439C67.5684 23.8489 67.7636 24.1823 67.9831 24.2392C69.4022 24.6865 69.3738 24.6581 68.7354 25.1013C68.2068 25.4591 67.9831 25.4591 66.625 25.0728C65.7914 24.8248 65.0392 24.4629 64.9579 24.2392C64.7342 23.6537 64.2341 23.7147 64.2341 24.3246C64.2341 25.0199 64.7911 25.4916 65.5678 25.4916C66.5965 25.4916 68.1539 26.3252 68.0685 26.8538C67.9303 27.5776 67.178 27.4922 66.0679 26.6058C64.9253 25.7153 63.8681 25.6868 63.2053 26.5529C62.7052 27.1913 62.758 27.5247 63.3436 27.3052C64.4252 26.8335 64.9294 26.8579 65.2588 27.415C65.5922 27.9151 65.5353 28.0005 64.6773 28.1672C63.368 28.3868 62.6198 28.1103 61.9773 27.0815C61.6249 26.4879 61.4487 26.5339 61.4487 27.2198C61.4487 27.9436 61.6154 28.3624 62.0343 28.6633C62.6442 29.0821 62.6157 29.0821 61.6968 29.4969C61.0679 29.795 61.0773 29.9075 61.7252 29.8344C62.2538 29.7774 62.8678 29.8059 63.0589 29.8588C63.6973 30.0824 63.0833 30.4971 62.1115 30.4971C61.587 30.4971 61.1681 30.6069 61.1681 30.7737C61.1681 31.0502 59.4441 31.9935 57.8623 32.5791C57.1927 32.8393 57.3229 32.9789 58.2527 32.9979C59.1798 33.0169 59.2814 33.2025 58.5576 33.5549C57.1101 34.2787 56.6384 34.2503 55.3331 33.3882C54.612 32.9084 53.8056 32.8352 52.9137 33.1687C51.5231 33.6647 50.5512 34.3072 51.58 34.0266C53.4952 33.498 53.9709 33.5265 54.9712 34.112C55.5568 34.4454 56.5001 34.8358 57.1385 34.9741C58.1388 35.1692 58.0819 35.1936 56.7197 35.0554C54.4955 34.8602 54.162 34.8927 53.9384 35.2506C53.8002 35.4457 53.4098 35.4986 52.8812 35.3603C52.438 35.275 51.9622 35.3075 51.8809 35.4457C51.767 35.6409 53.9669 36.503 56.1301 37.0844C56.4351 37.1698 56.4676 37.2511 56.187 37.5317C55.9349 37.7798 55.4632 37.7269 54.1295 37.2267C52.3526 36.5883 50.7383 36.4216 50.4903 36.8649C50.3764 37.0031 50.4903 37.1698 50.6529 37.2552C50.9294 37.3406 50.9294 37.4504 50.6285 37.8123C50.043 38.532 49.4859 38.3937 49.4859 37.5358C49.4859 36.507 49.7624 36.1451 50.596 36.0313C50.9823 35.9784 51.2913 35.7832 51.2913 35.5881C51.2913 35.4213 51.3767 35.1733 51.5149 35.0594C51.8484 34.726 51.7386 34.478 51.153 34.3113C50.7342 34.2015 50.6244 34.3113 50.6814 34.726C50.7058 35.0594 50.5675 35.3644 50.4049 35.4213C49.8478 35.6165 49.9576 32.64 50.6 30.2532C51.2669 27.7524 51.2954 27.1954 50.7098 24.7475C50.0714 22.076 50.3235 20.5756 51.6573 18.7702C52.2387 17.961 52.934 16.9322 53.2105 16.4606C53.4871 16.0133 54.4345 15.017 55.325 14.2648C56.797 13.0124 56.9637 12.7603 57.1345 11.512C57.3012 10.4019 57.2442 10.0115 56.801 9.40159C56.3009 8.7632 56.0528 8.67781 54.1621 8.59242C52.3241 8.53955 51.9948 8.59242 51.0758 9.23081C50.4943 9.62117 49.9657 9.92614 49.9088 9.92614C49.8234 9.92614 49.7705 9.56424 49.7705 9.14542C49.7705 8.7266 49.3558 7.75477 48.88 7.00659C48.3799 6.2584 47.8513 5.44923 47.6846 5.22965C47.5463 4.97754 46.7941 4.11957 46.0459 3.25347C45.2936 2.41989 44.5698 1.39114 44.4316 0.976383C44.0697 -0.080834 43.1263 -0.328874 42.4839 0.476238C41.8414 1.28135 41.8414 2.17185 42.5367 3.06235C43.2605 3.95286 43.2321 4.42454 42.5083 5.0914C41.3982 6.06323 40.7842 8.20612 40.5077 11.8739C40.4833 12.4025 40.3125 13.0165 40.2027 13.236C40.0645 13.4597 39.8652 14.0168 39.7839 14.4884C39.6172 15.2976 39.5074 15.3505 37.393 15.7693C34.0587 16.4646 16.822 20.1608 14.5977 20.665C13.5405 20.9131 12.5402 21.1367 12.3735 21.1611C12.2353 21.1611 12.1499 20.8277 12.1783 20.3845C12.2637 19.7705 12.0645 19.437 11.3976 18.8556C10.6454 18.2416 10.4786 17.8553 10.3689 16.6883C9.9785 12.74 12.4792 10.5157 18.0134 9.90174C22.0145 9.45852 23.519 9.12509 24.0436 8.53955C24.3241 8.23459 24.7389 7.98248 24.9625 7.98248C25.296 7.98248 25.296 7.8727 24.8771 7.42541C24.5247 7.03505 24.2279 7.06352 23.9866 7.5108C23.5149 8.42977 22.291 8.81606 19.9001 8.81606C12.8086 8.81606 8.91722 11.4022 8.88876 16.1271C8.88876 17.8512 9.33604 19.2703 10.0842 19.9046C10.6128 20.3194 10.6942 21.1855 10.2794 21.462C10.1412 21.5474 9.47429 21.6572 8.8359 21.71C8.16497 21.767 7.27853 21.9621 6.80685 22.1858C6.27011 22.4433 6.36363 22.6195 7.08742 22.7144C7.82747 22.8066 8.26256 23.3528 8.39268 24.3531C8.53093 25.4957 8.75457 26.0202 9.44989 26.744C10.2835 27.6061 10.3404 27.7728 10.1737 28.9398C9.69793 31.9732 11.4261 34.6406 14.4839 35.6409C16.5414 36.3362 20.3474 36.2793 22.9335 35.5311C25.5481 34.7504 26.772 34.7789 27.325 35.584C27.7154 36.1411 27.7682 36.1655 27.9349 35.6938C28.0447 35.4173 28.0203 35.0513 27.8495 34.8887C27.2925 34.3316 24.7917 34.3031 22.2056 34.8033C17.7856 35.6653 14.4229 34.9985 12.589 32.8881C11.8408 32.0545 11.67 31.6357 11.67 30.5785C11.67 29.8831 11.8083 28.8259 12.0035 28.216C12.2258 27.4759 13.588 27.1601 16.09 27.2686C18.176 27.3255 20.3433 27.4922 20.9288 27.6061C21.4859 27.6874 22.6814 27.6874 23.515 27.5776C24.7348 27.4394 25.0967 27.2726 25.239 26.8294C25.3312 26.458 25.9696 26.4404 27.1542 26.7766C27.6544 26.9148 27.8495 26.801 28.0447 26.2764C28.2968 25.638 28.5205 25.5526 30.4926 25.3859C31.6881 25.2721 32.9404 25.1094 33.2739 25.024C33.774 24.9102 33.9692 25.0484 34.2213 25.6665C35.0793 27.9151 35.3314 29.5579 35.1362 32.0626C35.0264 33.8111 35.0549 34.6447 35.2745 34.7829C35.9982 35.2302 35.612 36.6737 34.4409 37.8163C33.4406 38.8166 33.3593 39.0403 33.6358 39.4835C34.1075 40.2357 33.221 41.9029 32.3305 41.9029C31.9971 41.9029 31.6352 42.0411 31.5539 42.1794C31.4685 42.3461 31.0822 42.3746 30.7203 42.2892C30.2486 42.1794 29.9965 42.2892 29.7485 42.708C29.5817 43.0455 29.1629 43.2935 28.8295 43.2935C27.5527 43.2935 21.5998 44.9892 20.4043 45.6845C19.7374 46.0708 17.9849 47.4614 16.5129 48.7423C15.0409 50.0475 13.4551 51.2999 12.9834 51.5236C11.9262 52.0807 9.62068 52.0807 8.03485 51.5236C5.67238 50.69 3.53354 51.0763 1.72408 52.6337C-0.386292 54.4391 -0.471682 56.6633 1.5289 59.4446C3.11066 61.6688 3.08626 62.0266 1.19547 63.0025C0.528608 63.34 0 63.8117 0 64.0353C0 64.3688 0.0853904 64.4216 0.361893 64.198C0.862038 63.7832 2.78129 63.3075 2.78129 63.6165C2.78129 63.7548 2.55765 63.8646 2.28115 63.8646C1.22393 63.8646 0.557072 64.6697 0.557072 65.9505C0.557072 66.6174 0.642462 67.3412 0.723787 67.5892C1.02875 68.3984 1.39065 68.065 1.39065 67.0077C1.39065 66.4222 1.58582 65.7025 1.83793 65.3935C2.19576 64.8933 2.22422 64.9218 2.03311 65.8123C1.86639 66.7312 1.86639 66.7556 2.33808 66.284C2.61458 66.0359 3.09033 65.7554 3.42376 65.7025C4.95266 65.3935 6.42869 65.3406 6.56694 65.5886C6.72959 65.8407 7.56724 64.5883 8.09584 63.2546C8.26256 62.8643 8.56752 62.4454 8.79117 62.3641C9.53935 62.0876 9.17746 61.3069 7.37206 59.469C6.37177 58.4687 5.56665 57.5538 5.56665 57.4115C5.56665 57.1065 7.09555 56.3542 7.70549 56.3542C7.98199 56.3542 8.95788 56.1062 9.84432 55.7972C10.7389 55.4637 11.5115 55.2401 11.544 55.297C11.5969 55.3499 11.7392 56.7161 11.9059 58.3304C12.3206 62.8317 12.9875 63.8605 17.2977 67.0037C18.4647 67.8617 19.5748 68.8375 19.774 69.171C20.1603 69.9232 19.9123 72.3386 19.3267 73.7861C19.1031 74.3148 18.546 75.2053 18.1313 75.7623C17.131 77.0391 16.8545 78.0719 17.3262 78.7063C17.5213 78.9828 18.4932 79.3772 19.465 79.6252C22.2748 80.2636 25.2472 81.7397 25.6091 82.683C25.7758 83.0978 26.1661 83.8256 26.524 84.2973C27.695 85.8547 28.6099 87.717 29.781 90.7219C31.0334 93.9465 32.1719 95.5038 33.034 95.1419C34.0627 94.7231 34.3108 94.8614 34.5059 95.947C34.754 97.4759 35.3111 97.785 37.7833 97.785C39.8408 97.7565 39.8693 97.7565 39.117 97.3377C38.6454 97.0896 38.0354 96.9799 37.641 97.0612C37.2832 97.175 36.9741 97.1181 36.9741 96.9799C36.9741 96.6424 37.6695 96.3943 38.7267 96.3659C39.5847 96.3659 39.5847 96.3415 38.9747 96.0609C38.1411 95.6421 38.3079 94.8654 39.2268 94.8654C39.7066 94.8844 39.7622 94.635 39.3935 94.1172C38.6982 93.1698 38.1981 93.1129 37.9785 93.979C37.8674 94.3856 37.6722 94.3856 37.393 93.979C37.0311 93.4504 36.8359 93.3935 36.2504 93.6171C35.4168 93.9505 34.9207 93.7269 35.1403 93.1454C35.3924 92.5355 34.7255 90.8683 34.1969 90.6976C33.6114 90.5024 32.2207 88.3879 32.1109 87.5544C32.054 86.9973 32.1394 86.9444 32.8063 87.0827C33.2535 87.1925 33.6683 87.1111 33.7781 86.9444C33.9163 86.7208 34.1644 86.7777 34.6401 87.0827C35.0847 87.3619 35.307 87.0745 35.307 86.2206C35.307 85.1919 35.1687 84.8056 34.5019 84.1631C34.0546 83.7158 33.5829 82.8823 33.4447 82.3008C33.2495 81.3818 33.0543 81.2151 32.1109 80.9386C31.3709 80.7353 30.9724 79.8828 30.9155 78.381C30.8585 76.8819 31.1188 76.2801 31.6962 76.5756C32.42 76.909 32.7005 76.9375 33.3918 76.661C34.2498 76.2991 35.307 75.1605 35.307 74.575C35.307 74.4083 35.8641 73.6845 36.5594 72.9607C37.4499 72.0173 38.0029 71.6554 38.5884 71.6554C39.0032 71.6554 39.5074 71.5172 39.6985 71.322C39.9221 71.0984 40.1133 71.0984 40.3938 71.322C40.6988 71.5985 41.0892 71.5172 42.1464 71.0699L42.1667 71.0455ZM49.6445 72.4646C48.8963 72.798 48.7255 72.798 48.5344 72.4646C48.4246 72.2979 48.7296 72.1881 49.2867 72.2166C50.0389 72.2166 50.1202 72.2694 49.6485 72.4646H49.6445ZM48.0302 80.7516C47.3349 81.4184 46.8632 81.6421 46.0825 81.6421C45.5254 81.6421 45.0537 81.5323 45.0537 81.394C45.0537 81.2558 45.4725 81.0565 45.9727 80.9468C46.4444 80.837 47.3349 80.4466 47.9204 80.0847C49.1972 79.2511 49.2541 79.5602 48.0302 80.7556V80.7516ZM53.9506 84.1428C53.8124 84.1428 53.6741 84.033 53.6741 83.8663C53.6741 83.728 53.3691 83.5044 52.9503 83.419C52.3404 83.2564 52.2835 83.1425 52.4542 82.3659C52.6169 81.5038 52.7877 81.1704 52.9259 81.394C52.9503 81.4469 53.2593 81.8942 53.6212 82.3943C54.2596 83.3418 54.4264 84.1469 53.9547 84.1469L53.9506 84.1428ZM57.8135 79.9709C57.3134 80.5808 56.7319 81.0809 56.5083 81.0809C56.2846 81.0809 55.6747 81.329 55.1745 81.6665C54.6459 81.9714 54.2312 82.1097 54.2312 81.943C54.2312 81.5811 55.3413 80.8004 55.8983 80.8004C56.1464 80.8004 56.7604 80.3531 57.289 79.8285C58.5698 78.4948 58.9033 78.6087 57.8176 79.9668L57.8135 79.9709ZM59.4563 78.5518C58.7853 78.1939 58.8179 77.4701 59.4807 77.4701C59.7572 77.4701 60.2044 77.1936 60.4281 76.8602C60.7236 76.4346 60.8713 76.4631 60.8713 76.9456C60.8998 77.9987 60.0662 78.9177 59.4563 78.5558V78.5518ZM69.5771 75.0751C69.4673 75.1321 69.3534 74.7173 69.3819 74.1318C69.3819 73.5462 69.4673 73.1274 69.6055 73.2128C69.8821 73.3795 69.8536 74.9084 69.5771 75.0751ZM72.8585 74.4123C72.7203 74.4123 72.582 74.3026 72.582 74.1358C72.582 73.9976 72.3869 73.8593 72.1673 73.8593C71.8338 73.8593 71.7769 73.6641 71.9192 73.1071C72.1673 72.0499 72.2771 71.9645 72.7528 72.5785C73.196 73.2209 73.2814 74.4164 72.8626 74.4164L72.8585 74.4123ZM76.3026 63.1814C76.7784 63.6531 76.8882 64.1248 76.5263 64.1248C76.388 64.1248 76.083 63.9012 75.8309 63.6247C75.0258 62.7342 75.469 62.3194 76.3026 63.1814ZM74.0784 60.8718C74.3549 60.9816 74.6355 61.067 74.6924 61.067C74.7453 61.067 74.8022 61.2053 74.8022 61.3435C74.8022 61.7623 74.4403 61.6769 73.9686 61.1483C73.6067 60.7336 73.6352 60.701 74.0784 60.8718ZM74.3874 62.0673C75.0828 62.5105 75.3064 63.0107 74.8591 63.0107C74.7209 63.0107 74.4159 62.787 74.1638 62.5105C73.4685 61.7623 73.5823 61.5387 74.3874 62.0673ZM3.74092 64.4013C2.57392 64.8486 2.32588 64.7063 3.15945 64.0679C3.60267 63.7629 4.07842 63.2343 4.18821 62.9009C4.41185 62.4007 4.43625 62.4536 4.43625 63.2343C4.46471 63.954 4.32646 64.1777 3.74092 64.4013ZM5.80249 62.4861C5.74557 62.9307 5.58834 62.9212 5.33081 62.4576C5.10717 62.0714 4.33052 61.0385 3.57827 60.148C2.79756 59.1762 2.24455 58.2572 2.24455 57.8384C2.24455 56.8951 2.43973 57.0048 2.93988 58.2288C3.18792 58.7858 3.94423 59.8431 4.63956 60.5384C5.58292 61.4818 5.89195 62.0104 5.80656 62.4861H5.80249ZM7.246 62.9009C7.246 63.096 7.13622 63.3441 6.9695 63.4295C6.80279 63.5149 6.693 63.3197 6.693 62.9822C6.693 62.6244 6.35957 61.8721 5.96921 61.2866C5.55446 60.701 5.27389 60.144 5.35928 60.0626C5.55446 59.9 7.25007 62.4251 7.25007 62.9009H7.246ZM8.4984 54.7806C7.16468 55.3946 4.85507 55.6142 5.30235 55.0897C5.83096 54.4797 7.14028 54.0894 8.38861 54.1707C9.20185 54.2276 9.23845 54.4309 8.4984 54.7806ZM10.9422 53.8942C10.2184 54.1463 9.91344 54.0894 9.10833 53.5892C8.57972 53.2842 7.96979 53.0037 7.71769 53.0037C7.46558 53.0037 6.32704 53.5038 5.16003 54.1138C2.88295 55.3092 2.21202 55.5044 2.82602 54.7806C3.26924 54.2235 4.8266 53.451 6.3555 53.0037C7.82747 52.5564 7.85594 52.1701 6.44089 52.1701C5.57885 52.1701 4.88353 52.4751 3.2977 53.5323C2.18763 54.2845 1.21173 54.866 1.15887 54.7847C0.93523 54.5651 1.8542 53.7559 3.07406 53.146C3.76938 52.7841 4.51757 52.284 4.71275 52.0644C5.1275 51.5642 6.632 51.4789 8.10804 51.8977C8.86029 52.1213 9.18966 52.3694 9.29944 52.8695C9.4377 53.455 9.63694 53.5648 10.6616 53.5933C11.4396 53.6096 11.5318 53.7112 10.9381 53.8983L10.9422 53.8942ZM34.7133 84.9195C34.7987 85.1675 34.5995 85.2244 34.018 85.1146C33.5002 84.9845 33.4541 85.0957 33.8797 85.4481C34.4897 85.9482 34.4612 86.367 33.8269 86.367C33.6602 86.367 32.9933 86.119 32.3224 85.81C31.6027 85.4765 31.1838 85.1431 31.2936 84.9479C31.4034 84.8097 31.6555 84.7283 31.8507 84.8097C32.0743 84.8951 32.3508 84.7853 32.5176 84.5901C32.9079 84.1428 34.5222 84.3908 34.7174 84.9235L34.7133 84.9195ZM32.1557 81.4144C32.8754 81.5526 32.8754 81.9999 32.1272 82.5244C31.4847 82.9961 31.4603 82.9961 31.2936 82.4391C31.07 81.7437 31.4603 81.2721 32.1557 81.4103V81.4144ZM41.6909 69.7931C41.6381 69.85 41.3331 69.7403 41.0526 69.5166C40.7435 69.3214 40.5524 69.0734 40.6337 69.0205C40.6866 68.9636 40.9916 69.0734 41.2721 69.297C41.5812 69.4922 41.7723 69.7402 41.6909 69.7931ZM41.9959 68.7115C41.634 68.3252 41.4673 68.0162 41.6096 68.0162C41.9146 68.0446 43.1101 69.0205 43.1101 69.236C43.1101 69.5979 42.6099 69.3743 42 68.7074L41.9959 68.7115ZM45.9442 68.5732C45.5579 68.5732 45.5295 68.5204 45.8914 68.2967C46.3915 67.9918 46.2248 67.9348 43.5573 67.516C42.4147 67.3534 41.3047 66.959 40.833 66.6255C40.0238 66.04 39.8286 66.2636 40.3613 67.2355C40.528 67.5404 40.5809 67.8454 40.4995 67.9308C40.2474 68.2073 38.9422 65.0112 38.9707 64.1777C38.9707 63.5393 39.052 63.6206 39.4423 64.6778C39.7378 65.5127 39.9411 65.6049 40.0523 64.9543C40.1634 64.3064 40.3762 64.2888 40.6907 64.9014C41.1908 65.8448 42.6384 66.902 43.3866 66.902C43.6346 66.902 43.3866 66.5401 42.7766 65.9831C42.2196 65.5114 41.634 64.8161 41.4714 64.4826C41.081 63.7344 41.081 62.173 41.4429 61.62C41.6381 61.315 41.7194 61.5915 41.7194 62.6244C41.7194 63.6572 41.8577 64.1533 42.2765 64.5396C42.5815 64.8161 42.8864 65.2633 42.9718 65.5398C43.0816 65.8977 43.4191 66.0684 43.9721 66.0684C44.5251 66.0684 45.1106 66.3734 45.7816 67.0118C46.7819 67.9836 46.8347 68.5692 45.9442 68.5692V68.5732ZM37.828 59.8146C37.6044 59.5381 37.271 59.4527 36.9091 59.5666C36.4089 59.7292 36.3805 59.7048 36.7424 59.3714C37.3238 58.8143 38.8812 57.7327 39.0764 57.7327C39.1618 57.7327 39.1618 57.8709 39.0764 58.0377C38.9666 58.1759 38.7999 58.8956 38.7145 59.6235C38.5518 60.6807 38.4095 60.9572 37.9338 61.0141C37.6003 61.067 37.2669 60.9003 37.1856 60.6807C37.0473 60.3717 37.1856 60.2334 37.6003 60.2334C38.072 60.2334 38.1005 60.1806 37.824 59.8146H37.828ZM35.2419 61.7623C34.6605 61.5143 33.6561 62.3194 33.6561 63.0147C33.6561 63.3766 33.4894 63.462 32.9608 63.3481C32.4606 63.2628 32.1272 63.3766 31.8792 63.71C31.6555 64.0435 31.4603 64.1004 31.3221 63.9052C31.2367 63.7426 31.4847 63.3481 31.9036 63.0147C34.018 61.4004 35.9616 59.9569 36.0186 60.0098C36.047 60.0626 36.0186 60.6807 35.9332 61.4289C35.8478 62.3194 35.6851 62.7341 35.433 62.7341C34.9614 62.7341 34.937 62.2625 35.4086 62.0958C35.6323 62.0104 35.5754 61.9006 35.2419 61.7623ZM35.494 59.0664C34.4084 59.8715 33.0177 60.9572 32.4078 61.4533C31.0456 62.5634 29.7688 63.401 29.7688 63.2058C29.7688 63.1204 31.4929 61.7054 33.6073 60.0382C35.6933 58.3955 39.5277 55.3946 42.1138 53.3656C44.7 51.3081 46.8998 49.7222 46.9811 49.8361C47.0665 49.9174 46.9567 50.1411 46.7331 50.3078C46.485 50.503 44.3137 52.1986 41.8983 54.1178C39.4789 56.033 36.5878 58.2572 35.5022 59.0664H35.494ZM25.0398 61.9819C25.4871 61.5102 25.7636 61.3964 25.9587 61.5915C26.402 62.0388 24.6779 63.3441 24.011 63.096C23.8158 63.0107 23.6491 62.8439 23.6491 62.6813C23.6491 62.5186 23.8158 62.4576 24.011 62.543C24.2062 62.6284 24.6779 62.3763 25.0398 61.986V61.9819ZM24.7917 60.3147C24.7633 59.8146 25.3204 58.4524 25.4871 58.6191C25.5684 58.7045 25.4301 59.2047 25.2106 59.7048C24.9869 60.2334 24.7917 60.5099 24.7917 60.3147ZM26.7354 62.1771C26.9306 62.1771 26.7354 62.5634 26.2881 63.0107C25.4545 63.9012 25.178 64.015 24.8975 63.5962C24.7307 63.2912 26.1783 62.1771 26.7313 62.1771H26.7354ZM26.4304 61.0955C26.4304 60.9572 27.8211 59.591 29.5167 58.0905C34.7987 53.4469 36.8562 51.5846 40.1377 48.4983C43.0003 45.8024 43.8908 45.0786 43.6143 45.717C43.5289 45.8797 36.3845 52.6662 32.9648 55.8094C32.2167 56.5047 30.5454 58.0336 29.2971 59.2006C27.1583 61.2012 26.4345 61.7013 26.4345 61.0914L26.4304 61.0955ZM30.9887 53.947C30.3787 54.1707 30.0982 54.1707 29.907 53.8373C29.4598 53.1135 30.5739 52.6947 31.1269 53.39C31.379 53.6949 31.3506 53.8088 30.9887 53.947ZM31.1554 55.3662C31.1554 55.7565 30.5698 56.6186 30.2933 56.6186C30.1266 56.6186 30.1266 56.4234 30.3218 56.0899C30.5983 55.5044 31.1554 55.0571 31.1554 55.3662ZM35.4656 43.8303C34.937 43.3301 34.5466 42.8585 34.6035 42.8015C34.6605 42.7487 35.1606 42.9682 35.7136 43.2732C36.4089 43.688 36.7993 44.1922 36.9945 44.8875C37.3564 46.2212 37.3564 47.1971 37.0229 46.64C36.8278 46.3351 36.7464 46.3635 36.661 46.8068C36.6326 47.1117 36.4089 47.3069 36.2422 47.254C36.047 47.1687 35.8803 46.8637 35.8803 46.5303C35.8519 46.1968 35.494 45.5015 35.0467 44.9729C33.9651 43.692 34.2416 43.5009 35.4656 44.6679C36.104 45.2779 36.4374 45.473 36.4374 45.1965C36.4374 44.977 35.9901 44.363 35.4656 43.8344V43.8303ZM38.3282 25.7885C37.2425 25.1216 37.4377 25.0362 38.8568 25.6218C40.0238 26.1219 40.0523 26.1219 40.0523 25.7885C40.0523 25.6502 39.2472 25.2029 38.2469 24.7556C36.1609 23.8977 36.0226 23.426 37.5515 22.5883C38.1994 22.2549 39.5426 22.6724 41.5812 23.8407C43.2768 24.8126 44.7772 25.7275 44.9155 25.8983C45.3302 26.2886 46.4444 27.8988 46.4444 28.094C46.4444 28.2607 41.9959 25.5648 41.5812 25.1216C41.4429 24.9834 41.8292 25.1501 42.4717 25.4835C44.1388 26.4025 44.2527 26.0121 42.6099 24.9834C41.1379 24.04 39.0804 23.2064 38.8324 23.4545C38.5803 23.731 38.6372 24.0929 38.9422 24.0929C39.0804 24.0929 39.9465 24.593 40.8045 25.2029C41.695 25.8413 43.3337 26.8985 44.4479 27.5939C45.5295 28.2892 46.4484 29.0374 46.4484 29.261C46.4484 29.871 46.115 29.7327 43.7769 28.2282C41.3901 26.6708 40.8858 26.4187 40.8858 26.7847C40.8858 26.8985 41.9431 27.6752 43.2483 28.5088C44.8233 29.4901 45.6108 30.4822 45.6108 31.4852C45.6108 32.3188 45.5823 32.9857 45.5579 32.9572C45.5051 32.9328 44.4153 31.8756 43.1101 30.5947C41.2721 28.7893 40.3288 28.094 38.9381 27.48C36.8806 26.622 35.6851 25.8657 35.9657 25.5892C36.0755 25.4794 36.7993 25.6746 37.5515 26.0365C39.1658 26.7888 39.666 26.6464 38.3323 25.7885H38.3282ZM36.9945 21.4783C36.9945 21.031 38.0517 20.0307 38.2753 20.2828C38.4949 20.5064 37.9134 21.5067 37.4133 21.6978C37.1653 21.7832 36.9985 21.6978 36.9985 21.4783H36.9945ZM48.4775 16.5297C48.3921 15.7205 48.4775 15.8059 49.0589 17.1681C50.3927 20.1405 50.3398 20.5308 48.6157 19.8355C47.9733 19.5875 47.835 19.3638 47.835 18.64C47.835 18.1684 48.0017 17.6967 48.1969 17.6113C48.4449 17.5259 48.5303 17.1396 48.4734 16.5297H48.4775ZM48.6686 14.0818C49.002 14.0818 49.2541 14.8625 48.9736 15.0536C48.8353 15.1065 48.6686 14.9439 48.5832 14.6348C48.4978 14.3299 48.5263 14.0777 48.6686 14.0777V14.0818ZM48.6971 25.76C48.8353 25.76 48.9451 25.9552 48.9451 26.1788C48.9451 26.5936 48.6117 26.7359 48.3067 26.4269C48.083 26.2073 48.3352 25.76 48.6971 25.76ZM47.835 21.9215C47.835 21.5881 48.0017 21.3116 48.2213 21.3116C48.4409 21.3116 48.6686 21.1448 48.7499 20.9781C48.8068 20.7829 48.9736 20.7016 49.0833 20.8114C49.1931 20.9253 48.9451 21.34 48.5588 21.7832C47.8635 22.5314 47.835 22.5314 47.835 21.9215ZM48.9492 29.2326C49.1443 28.4844 49.1728 28.5372 49.1972 29.7042C49.1972 30.428 49.1159 31.0949 48.9492 31.1803C48.7824 31.2657 48.7011 31.0705 48.7011 30.7086C48.7255 30.3467 48.8394 29.7042 48.9492 29.2326ZM49.1403 23.0072C49.2541 22.2549 49.3924 21.95 49.5022 22.1736C49.7787 22.6737 50.169 26.8701 49.9494 26.8701C49.8641 26.8701 49.7827 26.5651 49.7827 26.1748C49.7827 25.7844 49.616 25.1704 49.3964 24.841C49.1199 24.4222 49.0345 23.8407 49.1443 23.0072H49.1403ZM47.0299 10.0197C46.363 9.52358 45.8873 9.0763 45.9442 9.0763C46.3061 9.0763 48.6686 10.5483 48.6686 10.7719C48.6686 11.1907 48.3067 11.0199 47.0299 10.0197ZM47.2779 50.7795C47.2779 50.9462 47.5016 51.056 47.7781 51.0031C48.083 50.9502 48.2782 51.1414 48.3352 51.5602C48.4205 52.1172 48.3596 52.1701 47.9163 51.9749C47.1682 51.613 45.9402 51.7513 45.3871 52.2799C45.1106 52.532 44.7488 52.7272 44.6064 52.7272C44.4641 52.7272 44.6634 52.4791 45.0537 52.1416C46.668 50.8648 47.2779 50.4745 47.2779 50.7795ZM47.3877 40.1585C47.6398 39.8251 47.835 39.2964 47.835 39.0159C47.835 38.7353 47.9733 38.5971 48.1115 38.6825C48.5588 38.963 48.4449 39.7925 47.8879 40.2967C47.1681 40.9636 46.8876 40.8782 47.3877 40.1585ZM48.8109 57.2569C49.4778 58.8712 49.3964 59.2291 48.5873 58.3386C48.3108 58.0621 48.1156 57.6188 48.1156 57.3952C48.1156 56.6714 47.8106 56.0615 47.53 56.2282C47.3918 56.3095 47.282 56.1713 47.282 55.9192C47.282 54.9189 48.201 55.724 48.8109 57.2529V57.2569ZM47.2779 53.0565C47.2779 52.9183 47.526 52.7231 47.8635 52.6418C48.2213 52.5564 48.3921 52.6174 48.3067 52.8085C48.1684 53.2273 47.2779 53.4184 47.2779 53.0565ZM46.3061 52.8085C46.0296 53.6665 45.806 53.8657 45.3343 53.5608C45.0009 53.3656 45.0293 53.2273 45.4441 52.7556C46.1394 52.0034 46.5298 52.0034 46.3061 52.8085ZM38.995 46.64C38.3851 46.1643 37.7996 45.53 37.6898 45.1681C37.6044 44.8062 37.3808 44.2491 37.2181 43.9157C37.0514 43.5822 36.9945 43.1065 37.1043 42.8585C37.3564 42.1631 38.2469 42.4681 38.2997 43.2732C38.335 43.7368 38.2794 43.7368 38.133 43.2732C37.9378 42.6064 37.9094 42.6064 37.7183 43.1634C37.4662 43.997 38.0517 45.1884 39.3569 46.3879C40.6907 47.6403 40.5524 47.7501 38.995 46.64ZM39.7432 48.108C39.6619 48.1933 39.1618 47.8884 38.6332 47.4411C38.1045 46.9938 37.828 46.636 37.9663 46.636C38.3567 46.636 39.914 47.9412 39.7432 48.108ZM37.6044 49.9459C37.4661 49.9459 37.2425 49.7507 37.1612 49.4986C37.0473 49.2221 37.1327 49.1123 37.3238 49.1652C37.7427 49.3034 37.9622 49.9459 37.6003 49.9459H37.6044ZM39.5521 45.8309C38.442 44.8021 38.0802 44.1068 38.6332 44.1068C38.9707 44.1068 41.0241 46.5791 40.833 46.7498C40.7476 46.8352 40.1905 46.4164 39.5521 45.8309ZM37.0758 36.7103C37.1856 36.6005 37.519 36.7388 37.8565 37.0478C38.5518 37.6578 40.1621 39.6583 39.9669 39.6583C39.8815 39.6583 39.1618 39.0484 38.3526 38.2677C37.5475 37.5154 36.9619 36.7957 37.0758 36.7103ZM37.4662 40.1585C37.1327 40.2439 36.9945 40.0446 36.9945 39.5486C36.9945 38.8776 37.0473 38.8532 37.5515 39.1582C38.1899 39.577 38.1371 40.0202 37.4662 40.1626V40.1585ZM36.3276 27.232C36.104 26.7034 37.5475 27.3987 38.5234 28.2892C38.995 28.7324 40.0523 29.3708 40.9143 29.7612C41.9959 30.2369 42.9393 30.9566 44.029 32.1806C44.9195 33.1239 45.6149 34.0144 45.6149 34.1527C45.6149 34.543 44.948 34.4048 44.029 33.7908C43.5289 33.4574 43.1101 33.0955 43.1101 32.9572C43.1101 32.4571 41.3006 30.7086 40.2474 30.1759C38.9137 29.4806 36.5228 27.7037 36.3276 27.232ZM38.7999 30.4565C38.6616 30.485 38.1045 30.2084 37.6329 29.8994C36.6326 29.261 36.5228 29.0943 37.0758 29.0943C37.4662 29.0943 39.1862 30.4565 38.7999 30.4565ZM40.3572 30.9322C40.4386 30.8468 40.8574 31.1518 41.3006 31.5991C42.2724 32.5994 42.0528 32.7092 40.9672 31.7658C40.5524 31.4039 40.2718 31.0136 40.3572 30.9322ZM42.2196 34.2665C43.1101 34.9334 43.2768 35.1814 42.9393 35.3197C42.2196 35.5962 41.4673 35.5149 41.2437 35.1001C41.1298 34.9049 40.4955 34.4048 39.853 33.99C38.7673 33.3191 38.2957 32.7092 38.9056 32.7092C39.5155 32.7092 41.1583 33.4614 42.2155 34.2665H42.2196ZM40.8289 35.5718C40.9387 36.1004 39.9384 36.2671 39.605 35.7385C39.5237 35.5718 39.0764 35.2099 38.6047 34.9334C37.8809 34.4861 37.8524 34.4333 38.3526 34.295C39.0764 34.0998 40.7151 34.9334 40.8289 35.5759V35.5718ZM37.3564 33.4045C37.271 33.1565 37.271 32.8759 37.3808 32.7946C37.5759 32.5994 38.3851 33.2378 38.3851 33.5753C38.3851 33.9941 37.5515 33.8518 37.3564 33.4086V33.4045ZM40.2474 44.2166C38.7185 43.0252 38.2469 42.3299 39.4139 42.9398C39.914 43.2448 42.2236 45.4974 42 45.4974C41.9146 45.4974 41.1379 44.9119 40.2474 44.2166ZM40.3288 40.3821C40.3288 40.2967 40.467 40.2154 40.6053 40.2154C40.772 40.2154 40.8818 40.3821 40.8818 40.6017C40.8818 40.8213 41.1583 41.049 41.5202 41.1588C42.1301 41.3255 44.7731 43.688 44.7731 44.1068C44.7731 44.2166 44.578 44.4118 44.3259 44.4931C44.0494 44.6069 43.5777 44.3548 43.0491 43.7734C41.7967 42.4396 40.3247 40.6017 40.3247 40.3821H40.3288ZM43.1101 41.2726C43.1101 40.9392 44.4722 41.2198 44.9195 41.6345C45.1676 41.8826 44.8911 41.911 43.7525 41.6874C43.3906 41.6345 43.1141 41.4353 43.1141 41.2726H43.1101ZM45.6677 48.0266C45.8344 47.9697 45.9198 48.051 45.8629 48.2218C45.7816 48.4698 43.5573 50.3606 34.7702 57.7002C33.9367 58.3955 33.4081 58.7858 33.6032 58.5093C34.1034 57.8994 45.2814 48.1689 45.6677 48.0307V48.0266ZM45.2489 43.6595C44.887 43.3017 45.0537 42.9926 45.6393 42.9926C45.9442 42.9926 46.1679 43.1309 46.1109 43.3261C45.9727 43.7164 45.501 43.9116 45.2489 43.6595ZM45.7206 40.4919C45.192 40.4919 44.7772 40.3821 44.7772 40.2154C44.7772 40.0772 44.887 39.9389 45.0253 39.9389C45.1635 39.9389 45.6636 39.6055 46.1353 39.2151C46.9445 38.5483 46.9974 38.5198 46.9974 39.0525C46.9974 40.1341 46.6924 40.496 45.7165 40.496L45.7206 40.4919ZM45.3343 38.0197C45.3343 37.8529 45.0862 37.7147 44.7487 37.7147C43.9965 37.7147 44.2201 38.3816 45.0009 38.4954C46.1109 38.6581 45.6393 39.1053 44.3625 39.1053C43.3906 39.1053 43.167 39.1907 43.2808 39.5242C43.5004 40.0812 43.2524 40.0487 42.6953 39.4957C42.3863 39.1623 42.3334 38.9386 42.5286 38.7475C42.919 38.3572 42.919 37.4423 42.5855 37.4423C42.4188 37.4423 42.248 37.552 42.1708 37.6903C41.9471 38.0278 40.6134 38.2474 40.6134 37.9668C40.6134 37.8285 40.8086 37.7188 41.0322 37.7188C41.2559 37.7188 41.447 37.609 41.447 37.4423C41.447 37.1373 44.086 37.1088 45.7287 37.3894C46.3142 37.4992 46.7859 37.7228 46.7859 37.8611C46.7331 38.2474 45.3424 38.3856 45.3424 38.0278L45.3343 38.0197ZM44.5007 36.324C44.5007 36.1858 44.6674 36.0475 44.8626 36.0475C45.4197 36.0475 46.9486 34.3235 47.1722 33.4614C47.2535 33.0426 47.3918 32.7417 47.4772 32.819C47.6724 33.0141 46.9486 35.2953 46.4769 35.9622C46.0296 36.6005 44.5007 36.8811 44.5007 36.324ZM45.7206 13.3865C45.3058 13.0775 45.2774 12.9961 45.6393 12.9677C45.8588 12.9677 46.3061 13.1628 46.6111 13.3865C47.0258 13.6915 47.0543 13.7728 46.6924 13.8012C46.4728 13.8012 46.0255 13.6061 45.7206 13.3865ZM45.9442 15.0536C45.9442 15.1919 45.806 15.3586 45.6393 15.4155C45.4725 15.4684 45.3343 15.3017 45.3343 15.0536C45.3343 14.8056 45.4725 14.6348 45.6393 14.6917C45.806 14.7446 45.9442 14.9154 45.9442 15.0536ZM46.7249 26.4513C46.5298 26.6749 46.3386 26.8701 46.3061 26.8701C46.2736 26.8701 46.0825 26.6749 45.8914 26.4513C45.5864 26.0894 45.6677 26.0365 46.3061 26.0365C46.9445 26.0365 47.0299 26.0894 46.7249 26.4513ZM45.8914 8.46636C44.6715 7.88083 44.2527 7.57586 44.5861 7.49454C45.0578 7.35628 47.3674 8.55175 47.7008 9.08036C47.9245 9.44226 47.9773 9.46665 45.8914 8.47043V8.46636ZM44.7772 10.6052C45.0253 10.7719 45.0253 10.8817 44.7487 11.0525C44.5007 11.1907 44.9724 11.3005 45.9727 11.3005C47.0299 11.3005 47.5016 11.5608 47.3877 12.0812C47.2779 12.496 47.1682 12.8619 47.1397 12.9148C47.1112 12.9392 46.5826 12.801 45.9727 12.5814C44.9439 12.2195 44.8626 12.2195 44.887 12.6342C44.887 12.8823 44.7244 13.1344 44.4722 13.1913C44.0819 13.2442 44.029 13.0531 44.0819 11.9958C44.1673 10.5767 44.3055 10.3287 44.7772 10.6052ZM44.2201 15.1634C44.2201 15.5253 43.7729 15.7774 43.5533 15.5538C43.2483 15.2488 43.3866 14.9154 43.8013 14.9154C44.025 14.9154 44.2161 15.0252 44.2161 15.1634H44.2201ZM44.0006 17.5259C44.5576 17.6113 45.3343 17.5828 45.7531 17.4161C46.1719 17.2494 46.5582 17.1681 46.6151 17.2209C46.6965 17.2779 46.6395 18.3879 46.5298 19.6688C46.3807 21.2248 45.9456 21.4932 45.2245 20.4739C42.7766 17.0298 42.9149 17.3063 44.0006 17.5259ZM45.5579 23.2023C45.6108 23.365 45.5295 23.5358 45.3912 23.5358C45.253 23.5358 45.0578 23.7838 44.9765 24.0929C44.7813 24.8736 44.4194 24.7882 43.8664 23.8448C43.6183 23.3975 43.3947 22.9828 43.3947 22.8974C43.3947 22.6209 45.4522 22.873 45.562 23.2023H45.5579ZM36.661 29.7042C37.0758 30.1231 37.9663 30.7086 38.6616 31.0095C39.3569 31.3145 40.3003 31.8715 40.7476 32.2619C41.5812 32.9857 41.6381 33.1565 40.8858 32.7376C40.6622 32.5994 40.0238 32.4327 39.4667 32.3229C38.9097 32.2375 37.8809 31.7658 37.1612 31.2901C36.1894 30.6232 35.8803 30.2613 35.8803 29.7042C35.8803 29.2244 36.1406 29.2244 36.661 29.7042ZM37.4092 41.2157C38.2428 40.9921 38.5518 41.1303 38.2428 41.5735C38.0476 41.9354 37.5475 41.9639 37.0473 41.6305C36.7708 41.4637 36.8522 41.354 37.4092 41.2157ZM27.5974 61.9534C27.6503 61.8152 30.1836 59.4812 33.2413 56.7568C36.2991 54.0324 39.8042 50.9177 41.0241 49.8361C42.244 48.7504 43.5533 47.6119 43.9436 47.3069C44.4072 46.9545 44.4072 47.0196 43.9436 47.5021C42.7238 48.7545 27.8495 62.1811 27.6788 62.1811C27.569 62.1811 27.5405 62.0714 27.5934 61.9575L27.5974 61.9534ZM42.9149 55.4759C42.4676 55.0327 41.4429 56.1713 41.4429 57.0618C41.4429 57.4481 41.3047 58.0051 41.1664 58.3142C40.8614 58.8712 40.0563 59.0664 40.0563 58.5622C40.0563 58.424 40.2515 58.2857 40.4752 58.2857C40.6988 58.2857 40.8899 58.0377 40.8899 57.7286C40.8899 57.4196 40.7232 57.1716 40.5036 57.1716C40.284 57.1716 40.0563 57.0048 39.975 56.7853C39.7798 56.3095 41.0038 55.0897 41.4185 55.3662C41.5852 55.4515 42.0854 55.2808 42.5286 54.9799C42.9759 54.6424 43.4191 54.3943 43.5004 54.3943C43.7525 54.3943 43.3906 56.4234 43.0857 56.7283C42.6994 57.1756 42.4473 56.6755 42.8376 56.2038C43.0857 55.8948 43.1141 55.6752 42.923 55.48L42.9149 55.4759ZM42.1382 54.6993C41.8292 54.866 42.0813 54.561 42.6953 54.004C43.3052 53.4754 43.9477 53.0321 44.086 53.0321C44.4194 53.0321 42.9433 54.2845 42.1423 54.6993H42.1382ZM46.5298 66.2636C46.0581 66.0685 45.5579 65.8448 45.4441 65.735C45.3343 65.5968 44.887 65.5114 44.4438 65.5114C44.025 65.5114 43.6631 65.3731 43.6631 65.2349C43.6631 65.0682 43.3581 64.6493 42.9677 64.3159C42.3294 63.7588 42.3009 63.5637 42.4676 62.1202C42.6628 60.144 43.106 60.0057 43.106 61.868C43.106 63.1774 43.1914 63.3156 44.4397 64.3688C46.1353 65.8407 46.5257 65.8163 45.1879 64.3688C44.4641 63.5637 44.2161 63.0635 44.2974 62.6203C44.3828 62.3153 44.521 61.7257 44.6308 61.3394C44.7975 60.701 44.7691 60.6726 44.4072 61.1443C43.7647 61.8965 43.6549 61.7257 43.6875 60.0342C43.7119 58.5622 43.7403 58.5053 43.964 59.3389C44.2974 60.4205 44.7162 60.4774 44.9358 59.4771C45.3506 57.5863 45.379 57.5294 45.6311 58.2247C45.7694 58.5866 45.7409 59.7536 45.5742 60.9491C45.4075 62.1161 45.3546 63.1448 45.4644 63.2262C45.7124 63.4742 46.1597 62.6976 46.1597 62.0022C46.1597 61.6159 46.3834 61.3354 46.7453 61.254C47.1885 61.1443 47.3023 60.9775 47.1356 60.5872C46.7453 59.7251 45.8832 57.0821 45.8832 56.8341C45.8832 56.7202 45.993 56.6104 46.1313 56.6104C46.6314 56.6104 47.774 60.8922 47.6358 62.3113C47.5219 63.5311 47.5829 63.7548 48.1644 64.0882C48.4978 64.3118 49.2745 64.4786 49.86 64.4257C50.4171 64.3972 50.8887 64.4786 50.8887 64.6453C50.8887 65.0356 49.9982 65.2837 49.6933 64.9828C49.4981 64.7876 49.2501 64.7876 48.9126 64.9543C48.2172 65.3406 47.5788 65.0072 47.3837 64.2021C47.1356 63.2302 46.6639 63.8402 46.7737 64.9828C46.8591 65.8407 46.9404 65.9261 47.9163 66.0115C48.4734 66.0644 48.8882 66.2067 48.8068 66.3734C48.5832 66.7068 47.6398 66.6499 46.5257 66.2596L46.5298 66.2636ZM48.3921 68.9351C47.8635 68.683 47.5585 68.4635 47.7252 68.3781C48.0302 68.2642 50.0592 69.0449 50.0592 69.2686C50.0592 69.5166 49.3924 69.3784 48.3921 68.9351ZM50.8643 69.4068C50.4198 69.0544 50.3927 68.8687 50.783 68.8497C51.393 68.8497 53.3935 69.602 53.3935 69.8216C53.3935 70.2119 51.4174 69.8785 50.8643 69.4068ZM52.0883 68.0162C52.5071 68.0162 53.2837 68.4879 53.117 68.6546C53.0316 68.74 52.7023 68.679 52.3648 68.5407C51.6695 68.2927 51.5312 68.0121 52.0883 68.0121V68.0162ZM51.397 67.5689C50.8399 67.6258 50.3113 67.6258 50.23 67.5445C49.9535 67.268 50.0348 66.1254 50.3398 65.9302C50.5065 65.8448 50.6163 66.0156 50.6163 66.3206C50.6163 66.7963 50.783 66.9061 51.4214 66.9061C52.6169 66.9061 53.117 66.2677 53.117 64.6534C53.117 63.2912 52.9219 63.0432 52.3932 63.5718C52.1981 63.767 51.7548 63.71 51.0026 63.4051C49.5306 62.7951 49.0874 62.4333 49.5306 62.1527C49.7787 62.0144 49.6973 61.7339 49.2541 61.2093C48.9492 60.7905 48.6686 60.2375 48.6686 59.9854C48.6686 59.7089 48.5019 59.347 48.3352 59.1233C48.0587 58.8184 48.083 58.8184 48.4978 59.1233C49.1931 59.652 50.1406 61.8192 49.8885 62.2381C49.7502 62.4617 49.8356 62.4902 50.165 62.3763C50.8359 62.0998 52.1696 62.4617 51.6939 62.7667C51.3889 62.9334 51.4173 63.0147 51.8077 63.153C52.0557 63.2628 52.4502 63.153 52.6982 62.9049C53.6172 61.986 53.9506 62.3479 53.9506 64.2102C53.9506 67.1826 53.8977 67.2395 51.393 67.573L51.397 67.5689ZM53.1455 52.0603C53.5033 52.1701 54.036 52.2555 54.284 52.223C54.5361 52.223 54.894 52.3897 55.0932 52.6133C55.2599 52.8329 55.3128 52.9712 55.1745 52.9712C55.0363 52.9468 54.4264 52.8329 53.8449 52.7516C53.2309 52.6662 52.7023 52.4141 52.621 52.1945C52.5356 51.918 52.6738 51.8895 53.1496 52.0563L53.1455 52.0603ZM52.1167 49.6653C51.8972 49.6653 51.7304 49.5555 51.7304 49.3888C51.7304 49.2506 51.9785 49.1123 52.316 49.1123C52.621 49.1123 52.7877 49.2506 52.7063 49.3888C52.621 49.5555 52.3444 49.6653 52.1208 49.6653H52.1167ZM54.341 53.2802C55.4266 53.2802 55.9553 54.0324 54.9834 54.1707C54.4264 54.2561 54.4548 54.3374 55.3453 54.8945C56.4025 55.5613 55.9837 55.6752 54.7069 55.1181C53.1496 54.4228 52.93 53.2802 54.345 53.2802H54.341ZM55.7031 46.9166C56.3456 47.0548 57.4272 48.726 57.0084 48.9741C56.8702 49.0594 56.6465 48.9171 56.5367 48.6406C56.4513 48.3641 56.122 47.8314 55.7885 47.4736C55.2599 46.8881 55.2599 46.8352 55.7031 46.9166ZM54.4548 55.7281C55.7885 56.6999 55.7316 56.7283 53.3691 56.338C52.2591 56.1428 50.3398 55.3946 50.3398 55.1181C50.3398 55.0612 51.0636 55.0612 51.9541 55.0612C53.1496 55.0897 53.788 55.2848 54.4548 55.7321V55.7281ZM50.8928 58.9526C50.8928 59.2047 50.1121 59.1477 49.9738 58.9282C49.921 58.7899 49.7787 58.3426 49.6689 57.8994C49.5388 57.36 49.7041 57.3776 50.165 57.9523C50.5838 58.3955 50.8887 58.8712 50.8887 58.9526H50.8928ZM51.0351 59.6763C50.8969 59.4283 50.9253 59.3714 51.1449 59.5096C51.3116 59.6235 51.397 59.8471 51.3116 59.9854C51.2018 60.1236 51.2262 60.2334 51.3686 60.2334C51.4824 60.2334 51.8158 60.5669 52.0923 60.9287C52.8974 62.0388 52.007 61.7908 50.8684 60.6238C50.0104 59.7089 49.9779 59.6235 50.5919 59.8187C51.0921 59.9569 51.2059 59.9285 51.0392 59.6804L51.0351 59.6763ZM54.8167 61.62C54.6785 61.62 54.3694 61.6729 54.1783 61.7583C53.9547 61.8436 53.5359 61.62 53.2309 61.2866C51.4539 59.2291 50.1162 57.1716 50.5634 57.1716C50.8684 57.1716 52.5925 59.2291 53.0926 60.1765C53.2878 60.5384 53.788 60.8718 54.2637 60.9816C54.9834 61.1199 55.4307 61.62 54.8208 61.62H54.8167ZM51.9785 57.4521C52.3932 57.4521 54.2881 59.9 54.1783 60.2619C54.1254 60.4286 53.5359 59.8715 52.8975 59.0095C52.2306 58.1475 51.8402 57.4521 51.9785 57.4521ZM54.6785 59.3958C54.4833 59.3958 54.1214 59.1721 53.8977 58.9241C53.6741 58.6476 53.3976 58.2003 53.3122 57.9523C53.2268 57.7002 52.6697 57.2285 52.0883 56.9235C51.088 56.3664 51.088 56.338 51.8646 56.5088C52.7267 56.6714 54.5361 57.7856 55.0892 58.4565C55.4226 58.8712 55.1989 59.3998 54.6744 59.3998L54.6785 59.3958ZM55.3128 57.9807C54.8696 57.1228 55.508 56.5372 56.065 57.2854C56.2846 57.5904 56.4513 58.0092 56.4513 58.2044C56.4513 58.7899 55.6706 58.6191 55.3087 57.9807H55.3128ZM56.37 51.2796C56.4839 50.751 56.7034 50.4989 57.0369 50.4989C57.3418 50.4989 57.5655 50.5274 57.5655 50.5843C57.5655 50.6087 57.6753 51.056 57.8135 51.5561C58.09 52.4995 57.7891 52.776 57.3134 51.9709C57.0613 51.5236 56.9759 51.5236 56.7563 51.8855C56.3659 52.4425 56.1992 52.162 56.3659 51.2755L56.37 51.2796ZM64.0999 58.8712C64.2097 58.3955 64.4089 58.0621 64.5472 58.1759C65.3238 58.6476 64.0999 61.067 63.0752 61.067C62.5181 61.067 62.5181 61.0385 63.185 60.4286C63.5753 60.0667 63.9942 59.3714 64.104 58.8712H64.0999ZM61.9326 55.9232C61.3755 55.5369 60.9038 55.0897 60.9038 54.9514C60.9038 54.5041 61.3511 54.6464 61.8757 55.2279C62.4327 55.8663 63.1281 55.9517 63.6282 55.4515C64.0714 55.0043 64.2381 55.2564 64.043 56.0086C63.8478 56.8137 63.2094 56.7893 61.9285 55.9232H61.9326ZM62.262 52.1701C61.6805 52.1701 61.6805 52.223 62.5669 53.0891C63.1796 53.6827 62.9844 54.0257 61.9814 54.1178C59.6474 54.3415 59.8426 55.0897 62.7621 57.3708C63.8193 58.2044 63.0142 58.18 61.652 57.3464C61.0421 56.9845 60.3183 56.2607 60.0133 55.7606C59.642 55.1506 59.6704 54.4553 60.0987 53.6746C60.4322 53.0362 60.7371 52.0075 60.7371 51.426C60.7656 50.4542 60.8225 50.3688 61.4609 50.4542C61.8472 50.507 62.88 50.9543 63.7949 51.426C65.0758 52.1213 65.5231 52.5645 65.824 53.3737C66.4095 54.8172 66.0191 55.0124 64.9904 53.8169C63.9901 52.6499 63.1809 52.1782 62.266 52.1782L62.262 52.1701ZM61.7903 59.591C61.4853 60.0626 59.3424 60.3676 59.0944 59.9813C58.8179 59.5056 59.4847 58.8387 60.237 58.8387C60.5948 58.8387 61.0136 58.5907 61.1803 58.2816C61.3471 57.9726 61.5992 57.7246 61.7374 57.7246C62.0708 57.7246 62.0993 59.1152 61.7903 59.5869V59.591ZM58.7081 55.7281C57.6224 54.252 57.537 54.0324 57.8989 53.6421C58.2893 53.2802 58.3462 53.3371 58.5088 54.1707C58.5942 54.6708 59.009 55.5613 59.4278 56.1184C60.5948 57.8425 60.0377 57.5091 58.7081 55.7321V55.7281ZM70.0488 63.5393C70.4107 63.2343 70.7726 63.0676 70.858 63.1489C71.0816 63.3725 70.3009 64.1207 69.8292 64.1207C69.4917 64.0923 69.5242 63.9825 70.0488 63.5352V63.5393ZM67.9913 63.2912C68.7964 63.2912 68.3816 63.706 66.7958 64.4867C65.0717 65.3203 64.7952 65.3772 64.7952 64.9584C64.7952 64.6534 67.3813 63.2912 67.9913 63.2912ZM66.381 63.1204C65.7996 63.5108 65.1286 63.8442 64.905 63.8442C64.6814 63.8442 64.4333 64.2061 64.3235 64.6778C64.2097 65.2349 63.8762 65.6822 63.3761 65.9587C62.9329 66.1782 62.571 66.5401 62.571 66.7638C62.571 67.3737 62.2091 67.4591 60.9323 67.1257C59.9605 66.8736 59.5701 66.902 58.7894 67.2883C57.6509 67.8169 57.5695 67.8169 57.5695 67.455C57.5695 67.3168 57.7647 67.1785 58.0168 67.1785C58.2689 67.1785 58.9317 66.8451 59.5457 66.4263C60.5989 65.6496 60.9079 65.2308 60.3508 65.2308C59.9889 65.2308 59.9889 64.0353 60.3793 63.645C60.9079 63.1164 60.2654 63.0595 58.9073 63.5067C57.4638 63.95 57.3215 64.2021 58.0168 64.9787C58.4885 65.5073 58.3218 66.0603 57.6793 66.0603C57.4313 66.0603 57.293 65.7554 57.293 65.1414C57.293 64.6412 57.1548 64.0841 56.9596 63.889C56.736 63.6653 56.736 63.4742 56.984 63.1692C57.2076 62.8927 57.2361 62.722 57.0125 62.5837C56.8742 62.4983 56.736 62.2787 56.736 62.112C56.736 61.9453 56.984 62.0266 57.293 62.3072C57.7403 62.7219 58.1266 62.7789 59.5173 62.6406C61.1031 62.4739 61.1844 62.4739 61.1844 63.0879C61.1844 64.4216 61.6317 64.5355 62.5751 63.4498C63.0752 62.8927 63.6567 62.4455 63.9088 62.4455C64.2707 62.4455 64.2422 62.5552 63.7705 63.0838C62.7702 64.1939 62.7418 64.5599 63.7705 63.584C64.5228 62.8887 65.0758 62.6366 66.1045 62.5268C66.9937 62.4346 67.0859 62.6284 66.381 63.1082V63.1204ZM73.8588 43.135C72.7731 43.5253 71.659 43.8303 71.3581 43.8018C71.0206 43.8018 71.5207 43.5538 72.4397 43.2448C75.0258 42.4396 75.9976 42.3543 73.8588 43.135ZM84.3944 39.1013C84.9515 38.4913 85.2564 38.5442 85.0043 39.2395C84.8945 39.4632 84.614 39.6583 84.3619 39.6583C83.9186 39.6583 83.9187 39.6055 84.3903 39.1013H84.3944ZM83.4226 38.0725C83.7275 37.6822 83.9796 37.487 83.9796 37.6578C83.9796 37.9912 82.898 39.3249 82.8696 39.0199C82.8696 38.8817 83.1176 38.4629 83.4266 38.0766L83.4226 38.0725ZM82.9753 41.968C83.2843 43.1065 83.6991 43.078 83.6991 41.968C83.6991 41.1913 84.1464 41.1344 84.3375 41.8826C84.5326 42.5779 83.9756 44.1068 83.5283 44.1068C83.3331 44.1068 82.9997 44.1922 82.7516 44.2735C82.4751 44.3833 82.2515 44.2735 82.1376 43.997C82.0563 43.7449 82.0563 43.135 82.1376 42.6348C82.3044 41.8012 82.2515 41.6915 81.6944 41.7159C81.3041 41.7443 81.056 41.5776 81.056 41.3296C81.056 41.0531 81.3325 40.9107 81.8611 40.9107C82.5565 40.9107 82.7232 41.049 82.9712 41.968H82.9753ZM80.2225 37.1861C80.3322 37.1007 80.5315 37.2674 80.6941 37.5724C80.8609 37.8529 81.3895 38.4629 81.8611 38.8776C82.5849 39.5486 82.6703 39.7112 82.3084 39.9349C81.7798 40.2683 81.5562 40.2683 81.3366 39.9349C81.2512 39.7966 81.2512 39.5201 81.3366 39.3778C81.4464 39.2111 81.1983 38.7109 80.7795 38.2352C80.3932 37.735 80.1411 37.2918 80.2225 37.182V37.1861ZM80.9178 39.7153C80.9178 40.0487 80.8324 40.0202 79.8077 39.2436C79.2791 38.8573 78.6976 38.5483 78.5024 38.5483C78.1121 38.5483 78.0308 38.2148 78.3073 37.9099C78.5268 37.7147 80.9178 39.3534 80.9178 39.7153ZM78.6936 35.7385C78.6936 36.4908 77.9698 37.4341 77.4127 37.4341C77.2744 37.4341 76.9166 37.2674 76.6076 37.1007C76.2985 36.934 76.0221 36.7673 75.9651 36.7388C75.9407 36.7103 76.1034 36.1533 76.327 35.4864C76.7458 34.2665 76.9125 31.4852 76.4937 32.5669C76.2985 33.0141 76.2416 32.9288 76.079 32.0423C75.8269 30.7899 75.9407 30.6232 76.6889 31.0095C77.3273 31.347 78.6895 34.5674 78.6895 35.7344L78.6936 35.7385ZM74.5257 38.0197C74.7493 38.0197 75.2495 38.1864 75.6358 38.41C76.0221 38.6337 76.1644 38.7963 75.9123 38.7963C75.6886 38.7963 75.1885 38.6296 74.8022 38.41C74.4159 38.1864 74.2736 38.0197 74.5257 38.0197ZM73.8588 35.7954C73.3017 35.1814 73.44 34.3763 74.2736 33.2947C74.5785 32.9328 74.8022 32.4611 74.8022 32.2619C74.8022 32.0423 74.9404 31.8756 75.0787 31.8756C75.2739 31.8756 75.3552 32.6807 75.3023 34.0144C75.2169 36.3769 74.8306 36.8486 73.8588 35.7954ZM75.4446 37.8529C75.1925 37.1576 75.5016 37.1007 76.0546 37.7147C76.5263 38.2148 76.5263 38.2718 76.083 38.2718C75.8309 38.2718 75.5544 38.0766 75.4406 37.857L75.4446 37.8529ZM77.9982 28.2607C78.108 28.4559 77.9128 28.4844 77.3883 28.3705C76.8705 28.2404 76.8421 28.3705 77.3029 28.7609C77.86 29.2326 77.9413 29.4277 77.6892 29.8181C77.3558 30.3752 77.0508 30.5134 76.5222 30.2898C75.9123 30.0377 75.5788 29.1472 75.9123 28.5372C76.2457 27.9273 77.6892 27.7565 77.9982 28.2607ZM74.4972 21.5881C74.5826 21.5881 74.912 21.7832 75.1925 22.0028C75.7212 22.3932 75.7211 22.4216 75.221 22.9746C74.6965 23.5602 73.6921 23.7554 73.6921 23.2511C73.6921 22.8649 74.302 21.584 74.4972 21.584V21.5881ZM75.0258 26.2317C75.526 26.5936 75.8594 27.0409 75.774 27.1791C75.4975 27.5979 75.2739 27.4556 74.2451 26.2317C73.2408 25.0647 73.44 25.0647 75.0258 26.2317ZM74.9974 29.1797C75.0828 29.2895 75.1112 29.3749 75.0502 29.3464C74.9974 29.322 74.5501 29.2366 74.0784 29.1268C73.0496 28.8747 72.578 28.5982 72.578 28.2648C72.578 28.0168 74.607 28.8219 74.9974 29.1838V29.1797ZM72.5251 31.0136C72.9398 30.2613 73.3587 29.6514 73.4441 29.6514C73.5539 29.6514 73.7206 29.9848 73.8019 30.3752C73.9401 30.9322 73.8304 31.2372 73.3058 31.7373C72.6105 32.3757 72.3868 32.9572 72.2486 34.5186C72.1957 35.1855 72.1347 35.2424 71.9721 34.8521C71.5533 33.8233 71.7484 32.3513 72.5292 31.0136H72.5251ZM72.3015 38.5483C72.7081 37.1956 73.0781 36.8066 73.4115 37.3813C74.0499 38.4385 76.5547 39.7681 77.4412 39.5486C78.2219 39.3534 78.8887 39.9918 78.3601 40.4106C77.9698 40.6871 74.6924 41.6915 72.6064 42.1347C71.8094 42.3027 71.457 42.0899 71.5492 41.4963C71.6346 40.9961 71.968 39.6583 72.3015 38.5483ZM71.2442 34.6528C71.7159 34.6528 71.4679 37.7676 70.9393 38.654C70.6628 39.1297 70.2724 39.9877 70.0772 40.5732C69.9105 41.1303 69.6299 41.602 69.4917 41.602C69.3534 41.602 69.2437 41.1303 69.2437 40.5732C69.2437 38.7394 70.6343 34.6528 71.2442 34.6528ZM69.2437 30.5134C69.2437 30.2369 70.1057 29.6514 70.4961 29.6514C70.801 29.6514 70.3578 30.2084 69.7723 30.485C69.4388 30.6801 69.2437 30.6801 69.2437 30.5134ZM66.4908 28.2607C66.7958 28.2607 66.9625 28.399 66.8771 28.5372C66.7917 28.7039 66.5152 28.8137 66.2916 28.8137C66.0679 28.8137 65.9053 28.7039 65.9053 28.5372C65.9053 28.399 66.1533 28.2607 66.4908 28.2607ZM62.5995 37.0194C63.2094 36.5721 63.9047 35.6856 64.4089 34.7098C64.8237 33.8518 65.4092 32.9572 65.6857 32.762C65.9622 32.5669 66.1859 32.2334 66.1859 32.0667C66.1859 31.4568 68.162 29.6758 69.5771 28.952C71.106 28.1713 71.1914 28.1469 71.1914 28.4803C71.1914 28.5901 70.4391 29.2285 69.5242 29.8953C67.1618 31.6194 67.1048 31.7333 67.2471 35.5677C67.3569 38.349 67.4098 38.7638 67.7188 38.349C68.3044 37.5398 68.4955 38.1254 68.1336 39.6258C67.9099 40.5732 67.6619 41.0449 67.3813 41.0449C67.0194 41.0449 66.991 41.3499 67.1577 42.8544C67.2878 44.1718 66.7036 44.7099 65.4051 44.4687C64.8765 44.3548 64.7667 44.2166 64.905 43.7449C65.3523 42.2689 65.4051 41.297 65.1002 40.9392C64.8481 40.6342 64.8481 40.2967 65.21 39.5201C65.4336 38.9346 65.6288 37.7432 65.6003 36.7673C65.6003 35.8483 65.519 35.2628 65.4336 35.4864C65.3482 35.71 64.8481 36.4298 64.3479 37.0722C63.4574 38.1294 63.4046 38.3775 63.3192 40.4391C63.2663 42.3014 63.3476 42.7487 63.7909 43.2448C64.4618 43.997 64.291 43.9685 62.7377 43.2204C61.8757 42.8015 61.5666 42.525 61.7334 42.3014C61.8716 42.1347 61.9001 41.0775 61.7618 39.8535C61.6317 38.4276 61.9096 37.4829 62.5954 37.0194H62.5995ZM59.8751 39.7437C59.932 40.3862 60.0987 41.1344 60.2085 41.4109C60.4322 41.9395 60.2085 41.9924 59.318 41.5491C58.8463 41.3255 58.6796 40.9921 58.6796 40.3252C58.6796 38.3002 59.623 37.8245 59.8751 39.7437ZM58.9033 41.8826C59.318 41.8826 62.018 43.5782 62.018 43.8303C62.018 44.2776 61.4325 44.1353 60.0174 43.383C59.2652 43.0252 58.6837 42.525 58.6837 42.3014C58.6837 42.0777 58.7691 41.8826 58.9073 41.8826H58.9033ZM58.9561 45.4974C61.1234 46.5791 62.7662 47.8315 62.9857 48.5552C63.2094 49.3075 63.6811 49.2506 63.6811 48.5024C63.6811 48.1689 63.2094 47.4736 62.6239 46.9166C62.0139 46.3595 61.3186 45.5828 61.0421 45.164C60.6233 44.4687 60.5948 44.3833 61.0136 44.3833C61.2657 44.3833 61.7374 44.855 62.0993 45.4405C62.9573 46.7742 65.2669 48.9171 65.6573 48.6935C65.824 48.5837 65.7101 48.1689 65.3523 47.6119C64.4902 46.1643 64.7423 44.9973 65.8809 45.3592C66.5762 45.5828 66.6331 45.9447 66.0476 46.5262C65.519 47.0263 65.7142 47.8315 66.6331 48.9171C67.2715 49.6694 67.2715 50.503 66.6575 50.503C66.4624 50.503 66.686 50.8079 67.1048 51.1983C67.5236 51.5846 67.8571 52.0319 67.8571 52.1701C67.8571 52.5035 67.9099 52.532 66.8283 51.8082C66.3282 51.4748 65.9378 51.056 65.9094 50.8648C65.9094 50.6697 65.4377 50.4176 64.8806 50.2549C62.9613 49.7792 61.0421 49.336 60.3468 49.1692C59.7084 49.031 59.6799 49.0594 60.0703 49.5311C60.4566 49.9784 60.4322 50.0028 59.8751 49.8361C59.5417 49.7222 59.2082 49.7792 59.0944 49.9459C58.8992 50.2509 58.399 50.0557 58.399 49.6409C58.399 49.5027 58.6471 49.3929 58.9561 49.3929C59.7368 49.3929 59.6514 48.8927 58.8463 48.6691C57.842 48.4211 56.8173 47.254 57.232 46.8352C57.7607 46.3066 57.6183 45.5544 56.8701 45.0542C56.4839 44.8062 56.1748 44.4158 56.1748 44.1637C56.1748 43.7774 56.2277 43.7774 56.675 44.1637C56.923 44.4158 57.9518 44.9973 58.9521 45.4974H58.9561ZM55.6503 36.2387C54.8167 35.9337 54.2596 35.6287 54.4264 35.5718C54.5646 35.5189 55.4836 35.7954 56.4839 36.1533C57.4557 36.5436 58.0128 36.8486 57.7078 36.8486C57.4028 36.8486 56.4839 36.5721 55.6503 36.2387ZM57.0653 41.4353C56.9027 41.5207 56.4269 41.297 55.9837 40.9067C55.4836 40.4594 55.3453 40.2398 55.6218 40.2398C56.2318 40.2114 57.4272 41.2116 57.0653 41.4312V41.4353ZM53.8693 38.2677C54.0645 38.2677 54.5646 38.5727 54.9794 38.963C55.9796 39.8535 55.451 39.8535 54.3694 38.963C53.9221 38.5727 53.6741 38.2677 53.8693 38.2677ZM53.731 49.336C53.8164 49.1408 54.0929 48.9171 54.341 48.8887C54.6785 48.8033 54.8167 48.9171 54.7313 49.1652C54.6459 49.3603 54.3694 49.584 54.1214 49.6125C53.7839 49.6978 53.6456 49.584 53.731 49.336ZM53.8977 50.2224C54.2027 50.2508 55.1176 51.613 54.8167 51.613C54.6785 51.613 54.341 51.4179 54.1214 51.1658C53.6456 50.7225 53.5358 50.2224 53.8977 50.2224ZM52.2021 47.5265C53.0926 46.8027 53.3976 46.7173 53.3976 47.25C53.3976 47.8599 53.0113 48.1689 52.2021 48.1405C51.6817 48.1405 51.6817 47.9372 52.2021 47.5305V47.5265ZM52.9503 54.4228C52.7551 54.7562 52.3119 54.7278 51.2018 54.2276C50.6732 54.008 50.3398 53.7559 50.4211 53.6461C50.6692 53.394 53.1455 54.1463 52.9503 54.4269V54.4228ZM50.9782 49.3075C50.8399 50.2549 49.7827 51.8936 49.7827 51.1698C49.7827 51.0316 49.921 50.7551 50.1162 50.5599C50.3683 50.3118 50.3398 50.1451 50.0064 49.893C49.616 49.5596 49.6445 49.4742 50.3398 48.8927C50.8765 48.4671 51.0893 48.6067 50.9782 49.3116V49.3075ZM50.3073 38.8248C51.0026 38.8532 50.9741 38.8776 49.8071 39.9349C48.2498 41.354 47.9407 41.354 48.8597 39.9349C49.4168 39.1013 49.7787 38.8248 50.3032 38.8248H50.3073ZM50.5065 27.5369C50.5878 27.789 50.4781 28.8463 50.23 29.875C50.0064 30.9038 49.6729 32.8474 49.5062 34.2381C49.3395 35.6003 49.1199 36.8527 49.0061 37.0194C48.8678 37.2674 48.4775 37.243 47.5626 37.0194C46.7276 36.7971 46.691 36.324 47.4528 35.6003C48.9532 34.1852 49.4005 32.9328 49.7014 29.2366C49.8397 27.4841 50.2015 26.7359 50.5106 27.541L50.5065 27.5369ZM51.2832 18.3635C50.9497 19.2256 50.6163 18.7824 50.6163 17.53C50.6163 16.4199 50.6692 16.2776 51.0351 16.5866C51.4824 16.9485 51.5597 17.6438 51.2832 18.3635ZM52.564 16.4443C52.3973 16.5541 52.2875 16.0824 52.2875 15.1919C52.2875 14.3014 52.3973 13.8297 52.564 13.9395C52.7307 14.0249 52.8405 14.6064 52.8405 15.1919C52.8405 15.7774 52.7307 16.3589 52.564 16.4443ZM53.3976 14.6389C53.2594 14.6389 53.1211 14.3339 53.1211 13.9436C53.1211 13.5532 53.2594 13.2482 53.3976 13.2482C53.5643 13.2482 53.6741 13.5532 53.6741 13.9436C53.6741 14.3339 53.5643 14.6389 53.3976 14.6389ZM55.2884 8.96651C56.2074 9.18608 56.7319 9.80008 56.7319 10.6621C56.7319 11.5242 56.679 11.4713 56.0935 10.4954C55.817 10.0197 55.3738 9.57644 55.0648 9.49512C54.2027 9.21455 54.3979 8.77133 55.2884 8.96651ZM51.95 9.88141C52.8405 9.0763 52.869 9.0763 53.8977 9.49512C55.0647 9.9668 55.8129 10.776 56.065 11.7722C56.3415 12.8823 55.6178 13.1344 53.5033 12.7196C53.0072 12.6342 52.3119 12.1626 51.8362 11.6096C51.3184 10.9779 51.3564 10.4032 51.95 9.88547V9.88141ZM51.4499 11.9958C52.2021 12.801 52.1167 12.9961 50.8928 13.0246C50.2991 13.0436 50.0674 13.461 50.1975 14.277C50.3642 15.3627 50.2544 15.8059 49.9738 15.2773C49.921 15.139 49.6973 14.4681 49.5022 13.7199C49.1159 12.3049 48.6686 11.7478 48.6686 12.6627C48.6686 13.0002 48.5588 13.2482 48.3921 13.2482C48.2538 13.2482 48.1156 12.9433 48.1156 12.5529C48.1156 11.1907 50.3398 10.8288 51.4499 11.9958ZM47.3105 6.29907C47.7537 6.29907 48.8678 7.32782 48.6442 7.55146C48.5629 7.60839 48.144 7.35628 47.7008 6.99439C47.1153 6.52271 47.0055 6.32753 47.3105 6.29907ZM46.6395 4.40421C47.1112 4.90435 46.8632 5.12799 45.9727 4.96128C45.6108 4.90842 45.3343 4.73764 45.3343 4.59939C45.3343 4.09924 46.1963 3.98945 46.6395 4.40421ZM44.1104 2.82245C44.2201 2.59881 44.3869 2.40363 44.4966 2.40363C44.6064 2.40363 44.7731 2.59881 44.8829 2.82245C44.9968 3.09895 44.8585 3.2372 44.4966 3.2372C44.1348 3.2372 43.9965 3.09895 44.1104 2.82245ZM44.3625 3.68449C44.5861 3.79427 44.7772 3.96099 44.7772 4.09924C44.7772 4.23749 44.582 4.34728 44.3625 4.34728C44.1429 4.34728 43.9436 4.1521 43.9436 3.93253C43.9436 3.68449 44.1104 3.5991 44.3625 3.68449ZM42.7482 2.51341C42.4432 2.20845 42.5245 1.15123 42.8864 0.789337C43.3866 0.289192 43.6671 0.403047 43.6671 1.0943C43.6671 1.84656 43.0572 2.78992 42.7482 2.50935V2.51341ZM43.1629 6.66096C43.6631 6.13235 43.72 5.93717 43.415 5.77046C43.2199 5.63221 43.1385 5.3801 43.2483 5.18492C43.472 4.82303 45.1635 5.01821 45.8873 5.51835C46.2207 5.71353 46.1638 5.74199 45.6921 5.6566C44.6918 5.43296 44.9439 5.90871 46.2492 6.68536C47.9733 7.71818 49.307 8.93805 49.1931 9.3284C49.1118 9.55204 48.8597 9.44226 48.4409 8.99497C47.3023 7.77104 45.1594 6.79921 44.1307 6.99439C43.659 7.10418 43.0735 7.32782 42.9068 7.46607C42.3212 7.93775 42.5164 7.35628 43.1548 6.66096H43.1629ZM42.248 11.7722C42.4147 11.6055 42.553 11.577 42.553 11.7193C42.553 11.8291 42.801 11.7193 43.1101 11.4388C43.9436 10.6906 44.1673 11.1907 43.4964 12.3577C42.7482 13.6345 42.3578 13.7728 42.1057 12.8294C41.9959 12.4106 42.0528 11.9674 42.244 11.7722H42.248ZM41.4144 16.7777C41.6381 16.5541 41.7194 16.611 41.7194 16.9729C41.7194 17.225 42.0813 17.7821 42.5245 18.1968C43.0531 18.6685 43.415 19.3638 43.5573 20.0592C43.6387 20.6691 43.8623 21.3116 44.0006 21.5027C44.334 21.9174 44.1957 22.4745 43.8054 22.198C43.3337 21.8646 42.2765 20.2259 42.2765 19.8355C42.2765 19.6403 42.1382 19.3354 41.9431 19.1402C41.691 18.8922 41.691 18.8068 41.9431 18.8068C42.1382 18.8068 42.2765 18.697 42.2765 18.5303C42.2765 18.392 42.1098 18.2538 41.8902 18.2538C41.3616 18.2538 41.0282 17.1721 41.4144 16.7818V16.7777ZM40.0523 17.0014C40.219 16.8916 40.3288 17.1396 40.3288 17.53C40.3288 17.9203 40.219 18.2538 40.0523 18.2538C39.914 18.2538 39.7758 18.0057 39.7758 17.7251C39.7758 17.4202 39.914 17.0868 40.0523 17.0014ZM39.6619 19.9209C39.7432 19.9209 40.0482 20.0592 40.3572 20.1974C41.1339 20.6447 40.9956 20.1689 40.1336 19.4452C39.6334 19.0548 39.4952 18.8352 39.7717 18.8352C40.5239 18.8352 41.7194 20.2259 41.7194 21.0838C41.7194 21.2506 41.8861 21.6125 42.0813 21.8361C42.5245 22.3647 43.7485 24.3653 43.6102 24.3653C43.5573 24.3653 43.3337 24.1986 43.0816 24.0034C42.862 23.8082 42.2765 23.0844 41.7763 22.3891C40.9428 21.1692 40.1621 20.5552 39.8286 20.8887C39.7432 20.9741 40.1051 21.3888 40.6378 21.832C41.8292 22.8323 41.6096 23.1414 40.1905 22.4176C39.605 22.1411 39.0235 21.832 38.8853 21.8076C38.6332 21.7222 39.3854 19.9168 39.666 19.9168L39.6619 19.9209ZM9.24658 22.6453C9.33197 22.4501 9.6654 22.2265 9.99883 22.198C10.4461 22.1126 10.6128 22.2265 10.5274 22.4745C10.4421 22.6697 10.1086 22.8933 9.77519 22.9218C9.32791 23.0072 9.16119 22.8933 9.24658 22.6453ZM9.10833 24.7556C8.99854 24.6459 8.91315 24.3124 8.91315 24.0359C8.91315 23.5886 9.07987 23.5073 9.83212 23.5886C10.499 23.6415 10.7226 23.8123 10.7226 24.227C10.7226 24.6174 10.499 24.8126 10.0273 24.8695C9.64101 24.9224 9.22219 24.8695 9.10833 24.7556ZM9.47023 25.76C9.47023 25.3412 10.2225 25.1216 10.7755 25.3127C11.1902 25.4794 11.1902 25.5364 10.8609 25.76C10.3038 26.1219 9.47023 26.0934 9.47023 25.76ZM11.8327 26.8985C11.6091 27.232 10.6657 27.232 10.4421 26.8985C10.2469 26.561 11.3041 26.2032 11.6944 26.4513C11.8612 26.561 11.9181 26.7603 11.8327 26.8985ZM12.3898 26.065C12.3044 25.8983 12.3044 25.5892 12.4467 25.4266C12.6703 25.0647 12.6419 24.5361 12.3613 23.2877C12.2515 22.7307 12.1661 22.6737 11.975 22.9828C11.8368 23.2064 11.7798 23.6781 11.8896 24.0115C12.0848 24.8736 11.5847 24.8207 11.1943 23.9587C10.7226 22.9584 10.7795 22.8486 11.5562 22.4826C12.5849 22.0109 12.6988 22.0679 13.0566 22.9543C13.6706 24.4263 13.0851 27.1832 12.3898 26.069V26.065ZM13.3616 22.3688C12.9712 21.8673 13.1285 21.5244 13.8333 21.34C14.4188 21.1733 17.0293 20.6162 19.6154 20.0876C22.23 19.5306 26.1214 18.7254 28.3172 18.2497C30.4845 17.8024 32.4322 17.4161 32.5989 17.4161C33.1844 17.4161 29.5167 19.6119 28.4595 19.8884C27.8739 20.0266 26.0401 20.3641 24.3445 20.6122C22.6448 20.8887 20.6442 21.3888 19.8106 21.7548C19.0055 22.1126 18.2573 22.4216 18.115 22.4216C17.9727 22.4216 17.5864 22.6453 17.2245 22.9218C16.7244 23.2837 16.2242 23.365 15.2524 23.2552C14.2806 23.1454 13.8089 22.9218 13.3616 22.3647V22.3688ZM18.729 25.4266C18.4769 25.9552 17.9808 26.4838 17.6189 26.622C16.7569 26.927 15.2809 26.927 14.7848 26.622C14.5896 26.4838 14.5083 26.2317 14.6181 26.065C14.7278 25.8698 14.6465 25.5648 14.4798 25.3412C14.3131 25.1175 14.2033 24.7312 14.2562 24.4507C14.3416 24.0603 14.5083 24.1742 15.0084 25.0078C15.3988 25.6502 15.8705 26.0365 16.2039 26.0365C16.6756 26.0365 16.6227 25.8983 15.7607 25.0078C15.0721 24.3029 15.35 23.9221 16.5942 23.8651C18.9567 23.7554 19.3755 24.0888 18.7331 25.4225L18.729 25.4266ZM24.7064 25.7885C24.6494 26.6017 24.0463 27.0368 22.8969 27.0937C21.2013 27.1791 21.1443 27.1466 20.9776 26.3984C20.6727 24.9264 20.2294 24.0603 19.5341 23.5358C19.0136 23.1292 19.0882 22.7591 19.7578 22.4257C20.3433 22.1492 20.3962 22.1492 20.1197 22.4542C19.7049 22.8974 19.648 23.5358 20.0343 23.5358C20.201 23.5358 20.3108 23.3406 20.3108 23.117C20.3108 22.5314 20.5873 22.5924 21.3395 23.3121C21.7014 23.6456 21.9779 23.7838 21.9779 23.6171C21.9779 23.4789 21.7299 23.117 21.4208 22.8405C20.7255 22.198 20.7255 21.8686 21.4208 21.8686C21.7258 21.8686 22.6163 22.4786 23.397 23.2308C24.7023 24.5117 24.7877 24.6499 24.7023 25.7925L24.7064 25.7885ZM25.8164 25.0647C25.7636 25.0931 25.2065 24.4547 24.5356 23.6456C23.2832 22.0923 23.2832 21.5881 24.5356 22.9258C25.2594 23.674 25.9791 24.898 25.8164 25.0647ZM27.264 26.313C27.1258 26.313 26.8777 26.065 26.7069 25.7844C26.2353 24.8654 26.3735 24.5035 26.9834 25.0606C27.569 25.5852 27.7357 26.313 27.2599 26.313H27.264ZM34.7418 23.0885C34.2986 23.8123 33.4365 24.6459 33.1031 24.6459C32.6029 24.6459 32.7981 24.1172 33.6886 23.117C34.2986 22.4501 34.4084 22.1451 34.1318 22.1451C33.713 22.1451 32.5745 23.3406 32.0215 24.284C31.7165 24.8695 28.6547 25.2843 28.6547 24.7556C28.6547 24.5605 28.7929 24.3124 28.9312 24.227C29.0979 24.1416 29.2077 23.8407 29.2077 23.5886C29.1792 23.2267 29.0125 23.3406 28.5123 23.9505C28.1504 24.3978 27.817 24.6987 27.7641 24.6459C27.7113 24.5605 27.4307 24.0075 27.1258 23.426C26.4833 22.1451 25.7066 21.6734 26.0157 22.7307C26.4874 24.3694 26.463 24.5401 25.9587 23.8123C25.6822 23.426 25.0682 22.7307 24.5966 22.2265C24.0246 21.6328 24.2564 21.2343 25.2919 21.031C26.1539 20.8643 27.7398 20.5593 28.797 20.3357C29.8786 20.112 31.0497 19.8884 31.4359 19.864C31.9646 19.8111 32.1313 19.6119 32.1313 19.0833C32.1313 18.4449 32.2411 18.3879 33.6032 18.3026C34.9939 18.2172 35.6892 17.6926 34.4368 17.6926C33.8269 17.6642 33.7984 17.6642 34.323 17.2779C34.6279 17.0542 35.4086 16.859 36.0755 16.859C36.7424 16.859 37.271 16.7493 37.271 16.611C37.271 16.2735 38.8283 15.9157 39.2187 16.1637C39.605 16.4118 37.6329 20.1405 36.9091 20.5024C36.5187 20.722 36.4089 21.0025 36.5187 21.5555C36.6285 22.0313 36.5187 22.5883 36.2422 22.9462C35.8519 23.5317 35.7949 23.5317 35.433 23.06C35.0752 22.5883 35.0467 22.5884 34.7377 23.0844L34.7418 23.0885ZM35.6038 34.2381C35.4086 33.99 35.3273 33.7135 35.4371 33.6281C35.6607 33.376 36.4943 33.8762 36.661 34.3235C36.7993 34.7951 36.0226 34.7382 35.6038 34.2381ZM35.8519 38.1294C36.1568 37.9627 36.5756 39.7153 36.352 40.2683C36.2666 40.4919 36.104 40.3211 35.9088 39.8535C35.5469 38.8817 35.5184 38.3531 35.8519 38.1294ZM34.7702 38.2677C34.9085 38.2677 34.9654 38.4629 34.88 38.6825C34.7702 38.9061 34.8556 39.2924 35.0183 39.4876C35.2135 39.7112 35.2419 39.9348 35.1321 40.0162C34.9939 40.1016 34.7418 39.8495 34.5751 39.4591C34.2132 38.7353 34.323 38.2636 34.7702 38.2636V38.2677ZM34.9939 47.1646C35.4656 47.5265 35.8844 47.9168 35.8844 48.0551C35.8844 48.417 35.7461 48.3316 34.88 47.3882C34.3433 46.8135 34.3812 46.739 34.9939 47.1646ZM34.2701 49.3888C34.7702 50.0272 34.88 51.4179 34.5222 52.6946C34.1319 54.1666 33.7984 53.5038 33.77 51.1658C33.77 48.8033 33.77 48.7789 34.2701 49.3888ZM33.3796 53.0037C33.1844 53.7844 32.9608 54.4472 32.851 54.5041C32.7656 54.561 32.6843 53.2273 32.6843 51.5317C32.6843 48.4495 32.6843 48.417 31.7409 47.0263C31.2123 46.2782 30.9887 45.8065 31.2652 46.026C32.851 47.3354 33.9082 50.7795 33.3796 53.0037ZM33.2413 42.7731C33.3267 42.8585 33.3267 43.135 33.2129 43.383C33.0177 43.8831 32.1313 43.997 31.8507 43.5497C31.684 43.2732 32.9933 42.521 33.2413 42.769V42.7731ZM30.7691 44.5785C31.4644 44.855 32.9648 46.022 32.7941 46.1602C32.7412 46.2456 32.1841 45.9122 31.6027 45.4934C30.212 44.4362 30.0738 44.2979 30.7691 44.5744V44.5785ZM20.3677 50.1695C20.4206 50.0028 20.6442 49.7792 20.815 49.7222C21.0102 49.6694 21.0915 49.7751 20.9776 50.0557C20.7824 50.5558 20.201 50.6697 20.3677 50.1695ZM14.1423 64.0963C13.5568 63.7629 12.3613 60.205 12.6134 59.5666C12.8899 58.8428 13.2803 59.2575 13.447 60.4571C13.5568 61.1239 13.9471 61.8192 14.4757 62.3194C14.923 62.7667 15.3093 63.2628 15.3093 63.462C15.3093 64.0191 14.6425 64.3769 14.1423 64.1004V64.0963ZM19.6724 57.1756C19.2536 57.1756 19.2292 57.0089 19.3674 56.0655C19.4772 55.3418 19.4487 54.9555 19.2536 54.9555C18.5338 54.9555 18.3346 56.8707 18.977 57.6514C19.2292 57.9563 19.0624 58.2898 18.2289 59.1233C17.0049 60.3757 17.1188 60.3432 16.09 59.7333C14.9474 59.038 15.1182 58.8428 16.8382 58.8428C18.3143 58.8428 18.3671 58.8143 18.3671 58.119C18.3671 57.6229 18.2573 57.4237 17.9808 57.5375C17.7856 57.6229 17.0334 57.7612 16.3665 57.871C15.5316 58.0011 15.1331 57.5931 15.1711 56.647C15.2565 55.0327 14.8946 54.8091 14.3375 56.1469C13.8089 57.3708 13.8089 56.3136 14.3375 54.8132C14.923 53.2314 14.862 53.1175 13.9471 54.0894C13.4998 54.5651 12.9997 54.9514 12.8615 54.9514C12.4182 54.9514 12.1946 54.4513 12.5565 54.2276C12.7761 54.1178 12.7517 53.9796 12.4996 53.8129C12.1946 53.6177 12.2231 53.5648 12.5849 53.5648C12.8615 53.5648 13.5568 53.1175 14.1708 52.593C14.7563 52.0685 15.3947 51.6212 15.5614 51.6212C15.7566 51.6212 16.4235 52.1213 17.0334 52.7312C17.6759 53.3412 18.3143 53.8413 18.4525 53.8413C18.5908 53.8413 18.6192 53.3127 18.5379 52.6743C18.4268 51.8773 18.7873 51.4599 19.6195 51.4219C20.7865 51.3935 21.0102 51.4748 21.9007 52.4791C23.0961 53.7844 23.6247 53.5608 22.9863 52.0319C22.4862 50.8649 22.4008 49.6694 22.8196 49.6694C22.9863 49.6694 23.0961 49.8646 23.0961 50.0882C23.0961 50.6981 23.763 50.8933 24.5152 50.503C24.9219 50.2807 24.9124 50.0028 24.4868 49.6694C24.0612 49.3549 24.0896 49.1326 24.5722 49.0025C24.9625 48.9171 25.3529 48.6122 25.4301 48.3316C25.5684 47.9168 25.8774 47.803 26.7639 47.8315C28.2684 47.8599 28.5449 47.1361 27.3494 46.1643C26.3206 45.3063 26.6256 45.3063 27.7926 46.1643C28.2928 46.5547 28.8783 46.7783 29.0735 46.6929C29.2971 46.64 29.907 46.9165 30.4357 47.3598C32.0784 48.6406 31.7165 50.4176 29.5208 51.8611C28.1016 52.8085 25.3204 55.3946 25.3204 55.7809C25.3204 56.4478 26.2393 56.338 27.6828 55.5044C28.7021 54.9297 29.2117 54.8836 29.2117 55.3662C29.2117 55.785 28.9068 56.3949 28.4595 56.8137C28.0447 57.261 27.8739 57.6229 28.0447 57.6758C28.2399 57.7286 28.3781 57.9238 28.3781 58.119C28.3781 58.5093 26.5158 60.4001 26.3206 60.205C26.2352 60.1236 26.3206 59.5381 26.4833 58.8997C26.7354 57.871 26.7069 57.6473 26.2881 57.1756C26.0116 56.8707 25.483 56.6186 25.0926 56.6186C24.621 56.6186 24.4827 56.5088 24.564 56.2323C24.7023 55.8948 24.564 55.8948 23.8402 56.1184C21.7827 56.7609 20.14 57.1756 19.6683 57.1756H19.6724ZM22.4821 78.3566C22.23 78.1614 21.982 77.523 21.8722 76.9415C21.7868 76.356 21.5347 75.7176 21.3151 75.5224C20.5629 74.9369 20.3677 76.9659 20.9776 78.5802C21.1159 78.9136 20.8678 78.999 19.7008 79.0275C18.8917 79.0519 18.0581 79.0275 17.8914 78.9421C17.6962 78.8567 17.5295 78.4704 17.5295 78.0801C17.5485 77.5813 17.7436 77.5908 18.115 78.1085C18.42 78.5274 18.8103 78.8608 18.9201 78.8608C19.0584 78.8608 18.973 78.5274 18.7534 78.1085C18.5582 77.6612 18.3671 77.1611 18.3671 76.9659C18.3671 76.5227 20.0343 73.2128 20.1725 73.3511C20.2579 73.4039 20.0871 74.1033 19.8391 74.8799C19.4772 76.047 19.4487 76.4942 19.7008 77.2424C19.896 77.7426 19.9773 77.8524 19.896 77.4661C19.7008 76.4658 20.3433 73.8512 20.7581 73.8512C21.3151 73.8512 22.4821 76.047 22.7058 77.4661C22.8684 78.5761 22.844 78.6859 22.4821 78.3566ZM22.7302 63.5962C22.6773 63.3197 22.2585 62.9009 21.8112 62.7057C21.1159 62.3723 20.9776 62.1242 20.8394 60.7905C20.7581 59.9569 20.5913 59.038 20.4815 58.7899C20.3148 58.3996 20.3962 58.2898 20.8394 58.2898C21.1443 58.2898 22.0633 58.0417 22.8684 57.7327C23.6491 57.4277 24.3729 57.2326 24.4258 57.3179C24.4786 57.3708 24.2591 57.8181 23.8972 58.3182C23.3401 59.1233 23.2588 59.5096 23.3401 61.5143C23.397 63.6247 23.0636 64.8201 22.7302 63.6003V63.5962ZM25.5969 77.6897C25.5969 78.442 24.6535 78.5233 23.7061 77.8524C22.596 77.0757 22.9009 75.9372 24.8731 73.4608C25.3204 72.9038 25.6822 72.0702 25.7066 71.6514C25.7351 70.9845 25.8205 70.8991 26.2068 71.0943C27.4876 71.7896 27.5405 73.1518 26.4304 75.376C25.9831 76.295 25.5969 77.3238 25.5969 77.6856V77.6897ZM28.0122 83.3377C27.9553 84.5616 27.7357 84.6999 27.1542 83.8094C26.2068 82.3374 25.7636 81.085 26.0685 80.776C26.2922 80.5564 26.4304 80.6093 26.5402 80.9996C26.6541 81.3046 27.016 81.7234 27.4023 81.9186C27.9593 82.2236 28.0691 82.4757 28.0122 83.3377ZM28.8214 80.8329C28.3741 80.4073 28.0501 80.3883 27.8495 80.776C27.4023 81.5567 26.9021 81.5282 27.1542 80.7516C27.7926 78.6656 27.7357 78.6941 28.7929 79.9709C29.8745 81.2761 29.8745 81.8332 28.8214 80.8329ZM29.4313 73.1599C29.293 73.2982 29.2077 72.8834 29.2077 72.2166C29.2077 71.0455 29.1792 71.0211 28.3741 71.1309C27.9268 71.2163 27.5405 71.1594 27.5405 71.0455C27.5405 70.7121 28.5123 70.2404 29.1548 70.2404C29.4598 70.2404 29.9884 69.9924 30.3503 69.6549C30.8789 69.2116 30.9073 69.1263 30.517 69.236C28.2684 69.9598 28.2074 69.7931 30.0738 68.069C30.925 67.291 31.4156 67.3927 31.5457 68.374C31.7124 69.8175 31.5457 70.1835 30.4926 70.6226C30.2974 70.708 30.3259 70.8463 30.6024 71.0414C30.9358 71.2651 30.9073 71.4318 30.3259 72.0987C29.9396 72.5134 29.5452 72.9892 29.4354 73.1559L29.4313 73.1599ZM35.7705 72.6883C35.6038 72.9363 35.433 72.9363 34.9898 72.6354C34.4897 72.2735 34.3514 72.2735 34.018 72.6069C33.6846 72.9688 33.713 73.1071 34.1847 73.6357C34.7418 74.2212 34.937 74.6929 34.5995 74.6929C34.5181 74.6929 34.1278 74.3066 33.7415 73.8593C32.8795 72.8021 32.5176 72.9688 33.3511 74.026C34.1603 75.0548 33.8269 75.2459 32.8225 74.2741C32.2939 73.7739 31.8507 73.5788 31.5417 73.6885C31.1269 73.8553 31.1554 73.9651 31.8466 74.6604C32.8185 75.7176 32.5135 76.4414 31.375 75.7705C30.8179 75.4655 30.456 73.8837 30.704 72.8509C30.8179 72.4362 31.4563 71.5741 32.1516 70.9032C33.2901 69.7931 33.3715 69.5979 33.3715 68.2927C33.3715 67.1257 33.4569 66.902 33.8716 66.902C34.5913 66.902 35.372 67.821 35.1484 68.4025C35.0386 68.6546 34.6523 69.0449 34.2335 69.2645C33.6764 69.5451 33.4813 69.85 33.5097 70.4315C33.5097 71.1553 34.0668 71.5985 35.7055 72.2654C35.8437 72.3223 35.8722 72.5134 35.7624 72.6842L35.7705 72.6883ZM36.1609 66.349C35.9942 66.349 35.8844 66.1538 35.8844 65.9302C35.8844 65.7066 36.0226 65.5154 36.1894 65.5154C36.3845 65.5154 36.4374 65.2674 36.3561 64.9299C36.2463 64.4867 36.2707 64.4013 36.4943 64.6249C36.8278 64.9584 36.5797 66.349 36.1609 66.349ZM37.1043 69.5451C36.6895 68.988 36.4089 68.4879 36.4943 68.435C36.5797 68.3496 36.966 68.7969 37.3848 69.4068C38.3038 70.769 38.1371 70.8503 37.1083 69.5451H37.1043ZM39.8815 70.3258C39.5481 71.2163 39.0235 70.7975 38.2428 69.1019C37.824 68.187 37.5759 67.3534 37.6573 67.268C37.7427 67.1826 37.8809 67.3249 37.9948 67.573C38.2143 68.1585 38.6616 68.1585 38.6616 67.573C38.6616 66.7394 39.3569 67.3778 39.7717 68.6058C40.0197 69.3011 40.4101 69.8582 40.6907 69.911C40.9387 69.9639 41.1623 70.1347 41.1623 70.2729C41.1623 70.6308 40.7761 70.5779 40.3816 70.1875C40.1336 69.9354 40.0197 69.9924 39.8815 70.3258Z" fill="white"/>
<path d="M41.2478 55.5046C41.1096 55.5046 40.7477 55.7527 40.4712 56.0617C40.1906 56.3667 40.0808 56.6188 40.2475 56.6188C40.3858 56.6188 40.7477 56.3707 41.0282 56.0617C41.3047 55.7567 41.4145 55.5046 41.2519 55.5046H41.2478Z" fill="white"/>
</svg>
